SplineFontDB: 3.0
FontName: Coda-Heavy
FullName: Coda Heavy
FamilyName: Coda
Weight: Black
Copyright: Copyright (c) 2009 by vernon adams. All rights reserved.
Version: 1.000
ItalicAngle: 0
UnderlinePosition: -103
UnderlineWidth: 102
Ascent: 1638
Descent: 410
LayerCount: 2
Layer: 0 1 "Back"  1
Layer: 1 1 "Fore"  0
XUID: [1021 823 301787212 15779334]
FSType: 4
OS2Version: 0
OS2_WeightWidthSlopeOnly: 0
OS2_UseTypoMetrics: 1
CreationTime: 1291041891
ModificationTime: 1296003633
PfmFamily: 17
TTFWeight: 800
TTFWidth: 5
LineGap: 0
VLineGap: 0
Panose: 2 0 5 5 2 0 0 2 0 4
OS2TypoAscent: 2450
OS2TypoAOffset: 0
OS2TypoDescent: -783
OS2TypoDOffset: 0
OS2TypoLinegap: 0
OS2WinAscent: 2450
OS2WinAOffset: 0
OS2WinDescent: 783
OS2WinDOffset: 0
HheadAscent: 2450
HheadAOffset: 0
HheadDescent: -783
HheadDOffset: 0
OS2SubXSize: 1434
OS2SubYSize: 1331
OS2SubXOff: 0
OS2SubYOff: 287
OS2SupXSize: 1434
OS2SupYSize: 1331
OS2SupXOff: 0
OS2SupYOff: 977
OS2StrikeYSize: 102
OS2StrikeYPos: 512
OS2Vendor: 'SIL '
OS2CodePages: 00000093.00000000
OS2UnicodeRanges: 800000af.4000004b.00000000.00000000

StartChar: D
Encoding: 68 68 4
Width: 1661
Flags: W
HStem: 0 237<593 826.121> 1358 237<593 826.121>
VStem: 96 497<237 1358> 829 497<237.896 1357.42>
LayerCount: 2
Fore
SplineSet
593 237 m 1,0,-1
 829 237 l 1,1,-1
 829 1358 l 1,2,-1
 593 1358 l 1,3,-1
 593 237 l 1,0,-1
1326 393 m 2,4,5
 1326 353 1326 353 1323.5 308.5 c 128,-1,6
 1321 264 1321 264 1305.5 220 c 128,-1,7
 1290 176 1290 176 1256 136.5 c 128,-1,8
 1222 97 1222 97 1160 66.5 c 128,-1,9
 1098 36 1098 36 1002.5 18 c 128,-1,10
 907 0 907 0 767 0 c 2,11,-1
 96 0 l 1,12,-1
 96 1595 l 1,13,-1
 767 1595 l 2,14,15
 907 1595 907 1595 1002.5 1577 c 128,-1,16
 1098 1559 1098 1559 1160 1529 c 128,-1,17
 1222 1499 1222 1499 1256 1459.5 c 128,-1,18
 1290 1420 1290 1420 1305.5 1376.5 c 128,-1,19
 1321 1333 1321 1333 1323.5 1288.5 c 128,-1,20
 1326 1244 1326 1244 1326 1204 c 2,21,-1
 1326 393 l 2,4,5
EndSplineSet
Validated: 1
EndChar

StartChar: H
Encoding: 72 72 5
Width: 1677
Flags: W
HStem: 0 21G<96 593 879 1376> 688 250<593 879> 1575 20G<96 593 879 1376>
VStem: 96 497<0 688 938 1595> 879 497<0 688 938 1595>
LayerCount: 2
Fore
SplineSet
1376 1595 m 1,0,-1
 1376 0 l 1,1,-1
 879 0 l 1,2,-1
 879 688 l 1,3,-1
 593 688 l 1,4,-1
 593 0 l 1,5,-1
 96 0 l 1,6,-1
 96 1595 l 1,7,-1
 593 1595 l 1,8,-1
 593 938 l 1,9,-1
 879 938 l 1,10,-1
 879 1595 l 1,11,-1
 1376 1595 l 1,0,-1
EndSplineSet
Validated: 1
EndChar

StartChar: C
Encoding: 67 67 6
Width: 1628
Flags: W
HStem: -39 276<577.644 809.111> 1358 274<575.398 810.887>
VStem: 78 497<237.695 1357.88> 811 497<237.695 686 909 1357.88>
LayerCount: 2
Fore
SplineSet
811 1358 m 1,0,-1
 575 1358 l 1,1,-1
 575 237 l 1,2,-1
 811 237 l 1,3,-1
 811 686 l 1,4,-1
 1308 686 l 1,5,-1
 1308 371 l 2,6,7
 1308 331 1308 331 1303.5 285 c 128,-1,8
 1299 239 1299 239 1279.5 193.5 c 128,-1,9
 1260 148 1260 148 1221 106 c 128,-1,10
 1182 64 1182 64 1113.5 32 c 128,-1,11
 1045 0 1045 0 942.5 -19.5 c 128,-1,12
 840 -39 840 -39 693 -39 c 0,13,14
 547 -39 547 -39 445 -19.5 c 128,-1,15
 343 0 343 0 274.5 32 c 128,-1,16
 206 64 206 64 167 106 c 128,-1,17
 128 148 128 148 108 193.5 c 128,-1,18
 88 239 88 239 83 285 c 128,-1,19
 78 331 78 331 78 371 c 2,20,-1
 78 1227 l 2,21,22
 78 1267 78 1267 83 1312.5 c 128,-1,23
 88 1358 88 1358 107.5 1403 c 128,-1,24
 127 1448 127 1448 166.5 1489.5 c 128,-1,25
 206 1531 206 1531 274 1562.5 c 128,-1,26
 342 1594 342 1594 443.5 1613 c 128,-1,27
 545 1632 545 1632 690 1632 c 0,28,29
 838 1632 838 1632 941 1613 c 128,-1,30
 1044 1594 1044 1594 1113 1562.5 c 128,-1,31
 1182 1531 1182 1531 1221 1489.5 c 128,-1,32
 1260 1448 1260 1448 1279.5 1403 c 128,-1,33
 1299 1358 1299 1358 1303.5 1312.5 c 128,-1,34
 1308 1267 1308 1267 1308 1227 c 2,35,-1
 1308 909 l 1,36,-1
 811 909 l 1,37,-1
 811 1358 l 1,0,-1
EndSplineSet
Validated: 1
EndChar

StartChar: P
Encoding: 80 80 7
Width: 1626
Flags: W
HStem: 0 21G<96 593> 432 218<593 825.121> 1358 237<593 825.121>
VStem: 96 497<0 432 650 1358> 829 497<651.009 1357.42>
LayerCount: 2
Fore
SplineSet
96 1595 m 1,0,-1
 766 1595 l 2,1,2
 906 1595 906 1595 1001.5 1577 c 128,-1,3
 1097 1559 1097 1559 1159.5 1529 c 128,-1,4
 1222 1499 1222 1499 1255.5 1459.5 c 128,-1,5
 1289 1420 1289 1420 1305 1376.5 c 128,-1,6
 1321 1333 1321 1333 1323.5 1288.5 c 128,-1,7
 1326 1244 1326 1244 1326 1204 c 2,8,-1
 1326 823 l 2,9,10
 1326 783 1326 783 1323.5 738.5 c 128,-1,11
 1321 694 1321 694 1305 651 c 128,-1,12
 1289 608 1289 608 1255.5 568 c 128,-1,13
 1222 528 1222 528 1159.5 498 c 128,-1,14
 1097 468 1097 468 1001.5 450 c 128,-1,15
 906 432 906 432 766 432 c 2,16,-1
 593 432 l 1,17,-1
 593 0 l 1,18,-1
 96 0 l 1,19,-1
 96 1595 l 1,0,-1
593 650 m 1,20,-1
 829 650 l 1,21,-1
 829 1358 l 1,22,-1
 593 1358 l 1,23,-1
 593 650 l 1,20,-1
EndSplineSet
Validated: 1
EndChar

StartChar: G
Encoding: 71 71 8
Width: 1645
Flags: W
HStem: -37 274<575 734.875> 0 21G<863.769 1308> 455 231<753 897> 1358 274<575.064 808.466>
VStem: 78 497<237.426 1357.74> 811 497<909 1357.88>
LayerCount: 2
Fore
SplineSet
1308 686 m 1,0,-1
 1308 0 l 1,1,-1
 873 0 l 1,2,-1
 825 104 l 1,3,4
 805 64 805 64 770 33 c 0,5,6
 740 7 740 7 689.5 -15 c 128,-1,7
 639 -37 639 -37 562 -37 c 0,8,9
 467 -37 467 -37 394.5 -19 c 128,-1,10
 322 -1 322 -1 268 30 c 128,-1,11
 214 61 214 61 177.5 101 c 128,-1,12
 141 141 141 141 119 185 c 128,-1,13
 97 229 97 229 87.5 273.5 c 128,-1,14
 78 318 78 318 78 358 c 2,15,-1
 78 1227 l 2,16,17
 78 1270 78 1270 83.5 1317 c 128,-1,18
 89 1364 89 1364 108.5 1409 c 128,-1,19
 128 1454 128 1454 167.5 1494.5 c 128,-1,20
 207 1535 207 1535 274.5 1565.5 c 128,-1,21
 342 1596 342 1596 443.5 1614 c 128,-1,22
 545 1632 545 1632 689 1632 c 0,23,24
 830 1632 830 1632 930.5 1613 c 128,-1,25
 1031 1594 1031 1594 1099.5 1562.5 c 128,-1,26
 1168 1531 1168 1531 1209.5 1489.5 c 128,-1,27
 1251 1448 1251 1448 1272.5 1403 c 128,-1,28
 1294 1358 1294 1358 1301 1312.5 c 128,-1,29
 1308 1267 1308 1267 1308 1227 c 2,30,-1
 1308 909 l 1,31,-1
 811 909 l 1,32,-1
 811 1358 l 1,33,-1
 575 1358 l 1,34,-1
 575 237 l 1,35,-1
 897 237 l 1,36,-1
 897 455 l 1,37,-1
 753 455 l 1,38,-1
 753 686 l 1,39,-1
 1308 686 l 1,0,-1
EndSplineSet
Validated: 1
EndChar

StartChar: L
Encoding: 76 76 9
Width: 1161
Flags: W
HStem: 0 237<593 901> 1575 20G<96 593>
VStem: 96 497<237 1595>
LayerCount: 2
Fore
SplineSet
96 0 m 1,0,-1
 96 1595 l 1,1,-1
 593 1595 l 1,2,-1
 593 237 l 1,3,-1
 901 237 l 1,4,-1
 901 0 l 1,5,-1
 96 0 l 1,0,-1
EndSplineSet
Validated: 1
EndChar

StartChar: E
Encoding: 69 69 10
Width: 1198
Flags: W
HStem: 0 237<593 902> 711 250<593 881> 1358 237<593 902>
VStem: 96 497<237 711 961 1358>
LayerCount: 2
Fore
SplineSet
902 1595 m 1,0,-1
 902 1358 l 1,1,-1
 593 1358 l 1,2,-1
 593 961 l 1,3,-1
 881 961 l 1,4,-1
 881 711 l 1,5,-1
 593 711 l 1,6,-1
 593 237 l 1,7,-1
 902 237 l 1,8,-1
 902 0 l 1,9,-1
 96 0 l 1,10,-1
 96 1595 l 1,11,-1
 902 1595 l 1,0,-1
EndSplineSet
Validated: 1
EndChar

StartChar: T
Encoding: 84 84 11
Width: 1448
Flags: W
HStem: 0 21G<369 866> 1358 237<25 369 866 1212>
VStem: 369 497<0 1358>
LayerCount: 2
Fore
SplineSet
1212 1595 m 1,0,-1
 1212 1358 l 1,1,-1
 866 1358 l 1,2,-1
 866 0 l 1,3,-1
 369 0 l 1,4,-1
 369 1358 l 1,5,-1
 25 1358 l 1,6,-1
 25 1595 l 1,7,-1
 1212 1595 l 1,0,-1
EndSplineSet
Validated: 1
EndChar

StartChar: U
Encoding: 85 85 12
Width: 1671
Flags: W
HStem: -39 276<592.284 823.203> 1575 20G<94 591 827 1324>
VStem: 94 497<237.695 1595> 827 497<237.695 1595>
LayerCount: 2
Fore
SplineSet
591 237 m 1,0,-1
 827 237 l 1,1,-1
 827 1595 l 1,2,-1
 1324 1595 l 1,3,-1
 1324 371 l 2,4,5
 1324 331 1324 331 1319 285 c 128,-1,6
 1314 239 1314 239 1294 193.5 c 128,-1,7
 1274 148 1274 148 1234 106 c 128,-1,8
 1194 64 1194 64 1125 32 c 128,-1,9
 1056 0 1056 0 953 -19.5 c 128,-1,10
 850 -39 850 -39 703 -39 c 0,11,12
 558 -39 558 -39 456 -19.5 c 128,-1,13
 354 0 354 0 286.5 32 c 128,-1,14
 219 64 219 64 180.5 106 c 128,-1,15
 142 148 142 148 122.5 193.5 c 128,-1,16
 103 239 103 239 98.5 285 c 128,-1,17
 94 331 94 331 94 371 c 2,18,-1
 94 1595 l 1,19,-1
 591 1595 l 1,20,-1
 591 237 l 1,0,-1
EndSplineSet
Validated: 1
EndChar

StartChar: R
Encoding: 82 82 14
Width: 1649
Flags: W
HStem: 0 21G<96 593 829 1326> 649 232<593 829> 1358 237<593 827.084>
VStem: 96 497<0 649 881 1358> 829 497<0 648.656 882.601 1357.38>
LayerCount: 2
Fore
SplineSet
829 649 m 1,0,-1
 593 649 l 1,1,-1
 593 0 l 1,2,-1
 96 0 l 1,3,-1
 96 1595 l 1,4,-1
 745 1595 l 2,5,6
 890 1595 890 1595 989.5 1576.5 c 128,-1,7
 1089 1558 1089 1558 1153.5 1525.5 c 128,-1,8
 1218 1493 1218 1493 1253 1448 c 128,-1,9
 1288 1403 1288 1403 1304 1349 c 128,-1,10
 1320 1295 1320 1295 1323 1234 c 128,-1,11
 1326 1173 1326 1173 1326 1110 c 0,12,13
 1326 1051 1326 1051 1318.5 995.5 c 128,-1,14
 1311 940 1311 940 1288 895 c 128,-1,15
 1265 850 1265 850 1222.5 818 c 128,-1,16
 1180 786 1180 786 1111 774 c 1,17,18
 1143 771 1143 771 1180.5 756.5 c 128,-1,19
 1218 742 1218 742 1250.5 709.5 c 128,-1,20
 1283 677 1283 677 1304.5 623 c 128,-1,21
 1326 569 1326 569 1326 487 c 2,22,-1
 1326 0 l 1,23,-1
 829 0 l 1,24,-1
 829 649 l 1,0,-1
593 881 m 1,25,-1
 829 881 l 1,26,-1
 829 1358 l 1,27,-1
 593 1358 l 1,28,-1
 593 881 l 1,25,-1
EndSplineSet
Validated: 1
EndChar

StartChar: I
Encoding: 73 73 15
Width: 870
Flags: W
HStem: 0 21G<96 593> 1575 20G<96 593>
VStem: 96 497<0 1595>
LayerCount: 2
Fore
SplineSet
593 1595 m 1,0,-1
 593 0 l 1,1,-1
 96 0 l 1,2,-1
 96 1595 l 1,3,-1
 593 1595 l 1,0,-1
EndSplineSet
Validated: 1
EndChar

StartChar: M
Encoding: 77 77 16
Width: 2056
Flags: W
HStem: 0 21G<59 439 639.524 1012.48 1213 1593> 1575 20G<59 676.145 975.855 1593>
VStem: 59 380<0 916> 1213 380<0 916>
LayerCount: 2
Fore
SplineSet
1008 0 m 1,0,-1
 644 0 l 1,1,-1
 439 916 l 1,2,-1
 439 0 l 1,3,-1
 59 0 l 1,4,-1
 59 1595 l 1,5,-1
 673 1595 l 1,6,-1
 826 622 l 1,7,-1
 979 1595 l 1,8,-1
 1593 1595 l 1,9,-1
 1593 0 l 1,10,-1
 1213 0 l 1,11,-1
 1213 916 l 1,12,-1
 1008 0 l 1,0,-1
EndSplineSet
Validated: 1
EndChar

StartChar: A
Encoding: 65 65 17
Width: 1606
Flags: W
HStem: 0 21G<-2 515.086 849.015 1368> 393 179<580 786> 1575 20G<250.79 1115.21>
LayerCount: 2
Fore
SplineSet
554 393 m 1,0,-1
 513 0 l 1,1,-1
 -2 0 l 1,2,-1
 254 1595 l 1,3,-1
 1112 1595 l 1,4,-1
 1368 0 l 1,5,-1
 851 0 l 1,6,-1
 812 393 l 1,7,-1
 554 393 l 1,0,-1
580 572 m 1,8,-1
 786 572 l 1,9,-1
 682 1361 l 1,10,-1
 580 572 l 1,8,-1
EndSplineSet
Validated: 1
EndChar

StartChar: O
Encoding: 79 79 18
Width: 1640
Flags: W
HStem: -39 276<577.284 812.287> 1358 274<580.728 812.287>
VStem: 80 497<237.695 1357.88> 813 497<237.695 1357.88>
LayerCount: 2
Fore
SplineSet
577 237 m 1,0,-1
 813 237 l 1,1,-1
 813 1358 l 1,2,-1
 577 1358 l 1,3,-1
 577 237 l 1,0,-1
688 -39 m 0,4,5
 543 -39 543 -39 441 -19.5 c 128,-1,6
 339 0 339 0 271.5 32 c 128,-1,7
 204 64 204 64 165.5 106 c 128,-1,8
 127 148 127 148 108 193.5 c 128,-1,9
 89 239 89 239 84.5 285 c 128,-1,10
 80 331 80 331 80 371 c 2,11,-1
 80 1227 l 2,12,13
 80 1267 80 1267 84.5 1312.5 c 128,-1,14
 89 1358 89 1358 108 1403 c 128,-1,15
 127 1448 127 1448 165.5 1489.5 c 128,-1,16
 204 1531 204 1531 271.5 1562.5 c 128,-1,17
 339 1594 339 1594 440.5 1613 c 128,-1,18
 542 1632 542 1632 688 1632 c 0,19,20
 835 1632 835 1632 938.5 1613 c 128,-1,21
 1042 1594 1042 1594 1111 1562.5 c 128,-1,22
 1180 1531 1180 1531 1220 1489.5 c 128,-1,23
 1260 1448 1260 1448 1280 1403 c 128,-1,24
 1300 1358 1300 1358 1305 1312.5 c 128,-1,25
 1310 1267 1310 1267 1310 1227 c 2,26,-1
 1310 371 l 2,27,28
 1310 331 1310 331 1305 285 c 128,-1,29
 1300 239 1300 239 1280 193.5 c 128,-1,30
 1260 148 1260 148 1220 106 c 128,-1,31
 1180 64 1180 64 1111 32 c 128,-1,32
 1042 0 1042 0 938.5 -19.5 c 128,-1,33
 835 -39 835 -39 688 -39 c 0,4,5
EndSplineSet
Validated: 1
EndChar

StartChar: B
Encoding: 66 66 19
Width: 1618
Flags: W
HStem: 0 237<593 825.145> 750 231<593 829> 1358 237<593 826.121>
VStem: 96 497<237 750 981 1358> 829 497<237.633 719.992> 829 465<994.478 1357.57>
LayerCount: 2
Fore
SplineSet
1326 460 m 0,0,1
 1326 397 1326 397 1323.5 338 c 128,-1,2
 1321 279 1321 279 1305.5 228 c 128,-1,3
 1290 177 1290 177 1256 135 c 128,-1,4
 1222 93 1222 93 1160 63 c 128,-1,5
 1098 33 1098 33 1002 16.5 c 128,-1,6
 906 0 906 0 766 0 c 2,7,-1
 96 0 l 1,8,-1
 96 1595 l 1,9,-1
 775 1595 l 2,10,11
 905 1595 905 1595 994 1578 c 128,-1,12
 1083 1561 1083 1561 1140.5 1531 c 128,-1,13
 1198 1501 1198 1501 1229 1461 c 128,-1,14
 1260 1421 1260 1421 1274.5 1376 c 128,-1,15
 1289 1331 1289 1331 1291.5 1282.5 c 128,-1,16
 1294 1234 1294 1234 1294 1188 c 0,17,18
 1294 1123 1294 1123 1282 1076.5 c 128,-1,19
 1270 1030 1270 1030 1251 997.5 c 128,-1,20
 1232 965 1232 965 1207 944 c 128,-1,21
 1182 923 1182 923 1157 909 c 0,22,23
 1097 876 1097 876 1021 870 c 1,24,25
 1109 864 1109 864 1177 827 c 0,26,27
 1207 811 1207 811 1234 786.5 c 128,-1,28
 1261 762 1261 762 1281.5 720 c 128,-1,29
 1302 678 1302 678 1314 615.5 c 128,-1,30
 1326 553 1326 553 1326 460 c 0,0,1
593 237 m 1,31,-1
 829 237 l 1,32,-1
 829 750 l 1,33,-1
 593 750 l 1,34,-1
 593 237 l 1,31,-1
593 981 m 1,35,-1
 829 981 l 1,36,-1
 829 1358 l 1,37,-1
 593 1358 l 1,38,-1
 593 981 l 1,35,-1
EndSplineSet
Validated: 1
EndChar

StartChar: S
Encoding: 83 83 20
Width: 1585
Flags: W
HStem: -37 274<577.673 809.283> 18 478<208.105 491.147> 1158 450<817.493 1134.73> 1358 274<578.953 812.451>
VStem: 80 497<1070.03 1355.94> 813 497<237.354 586.742 1158 1357.61>
LayerCount: 2
Fore
SplineSet
577 1128 m 2,0,1
 577 1096 577 1096 608.5 1077 c 128,-1,2
 640 1058 640 1058 691.5 1043.5 c 128,-1,3
 743 1029 743 1029 809 1015 c 128,-1,4
 875 1001 875 1001 943.5 979.5 c 128,-1,5
 1012 958 1012 958 1078 924.5 c 128,-1,6
 1144 891 1144 891 1195.5 837.5 c 128,-1,7
 1247 784 1247 784 1278.5 706 c 128,-1,8
 1310 628 1310 628 1310 518 c 0,9,10
 1310 439 1310 439 1306 367 c 128,-1,11
 1302 295 1302 295 1284 233.5 c 128,-1,12
 1266 172 1266 172 1228 122 c 128,-1,13
 1190 72 1190 72 1121.5 36.5 c 128,-1,14
 1053 1 1053 1 949 -18 c 128,-1,15
 845 -37 845 -37 695 -37 c 0,16,17
 562 -37 562 -37 462.5 -23.5 c 128,-1,18
 363 -10 363 -10 292 18 c 128,-1,19
 221 46 221 46 175.5 89.5 c 128,-1,20
 130 133 130 133 103.5 192 c 128,-1,21
 77 251 77 251 67 327 c 128,-1,22
 57 403 57 403 57 496 c 1,23,-1
 577 496 l 1,24,-1
 577 237 l 1,25,-1
 813 237 l 1,26,-1
 813 533 l 2,27,28
 813 562 813 562 781.5 581 c 128,-1,29
 750 600 750 600 698.5 615.5 c 128,-1,30
 647 631 647 631 581 646 c 128,-1,31
 515 661 515 661 446.5 682 c 128,-1,32
 378 703 378 703 312 733 c 128,-1,33
 246 763 246 763 194.5 807.5 c 128,-1,34
 143 852 143 852 111.5 914.5 c 128,-1,35
 80 977 80 977 80 1064 c 0,36,37
 80 1172 80 1172 91 1256.5 c 128,-1,38
 102 1341 102 1341 129 1404 c 128,-1,39
 156 1467 156 1467 202 1510.5 c 128,-1,40
 248 1554 248 1554 317.5 1581 c 128,-1,41
 387 1608 387 1608 482.5 1620 c 128,-1,42
 578 1632 578 1632 705 1632 c 0,43,44
 887 1632 887 1632 1004.5 1608 c 128,-1,45
 1122 1584 1122 1584 1190 1528 c 128,-1,46
 1258 1472 1258 1472 1284 1381 c 128,-1,47
 1310 1290 1310 1290 1310 1158 c 1,48,-1
 813 1158 l 1,49,-1
 813 1358 l 1,50,-1
 577 1358 l 1,51,-1
 577 1128 l 2,0,1
EndSplineSet
Validated: 1
EndChar

StartChar: Z
Encoding: 90 90 21
Width: 1147
Flags: W
HStem: 0 294<646 950> 1304 291<33 369>
LayerCount: 2
Fore
SplineSet
960 1595 m 1,0,-1
 646 294 l 1,1,-1
 950 294 l 1,2,-1
 950 0 l 1,3,-1
 23 0 l 1,4,-1
 369 1304 l 1,5,-1
 33 1304 l 1,6,-1
 33 1595 l 1,7,-1
 960 1595 l 1,0,-1
EndSplineSet
Validated: 1
EndChar

StartChar: Y
Encoding: 89 89 22
Width: 1571
Flags: W
HStem: 0 21G<397 894> 1575 20G<-18 481.502 810.3 1298>
VStem: 397 497<0 449>
LayerCount: 2
Fore
SplineSet
476 1595 m 1,0,-1
 643 988 l 1,1,-1
 816 1595 l 1,2,-1
 1298 1595 l 1,3,-1
 894 449 l 1,4,-1
 894 0 l 1,5,-1
 397 0 l 1,6,-1
 397 459 l 1,7,-1
 -18 1595 l 1,8,-1
 476 1595 l 1,0,-1
EndSplineSet
Validated: 1
EndChar

StartChar: J
Encoding: 74 74 23
Width: 1612
Flags: W
HStem: -39 276<534.088 765.709> 1575 20G<768 1265>
VStem: 35 497<237.695 603> 768 497<237.695 1595>
LayerCount: 2
Fore
SplineSet
768 1595 m 1,0,-1
 1265 1595 l 1,1,-1
 1265 371 l 2,2,3
 1265 331 1265 331 1258.5 285 c 128,-1,4
 1252 239 1252 239 1231.5 193.5 c 128,-1,5
 1211 148 1211 148 1171 106 c 128,-1,6
 1131 64 1131 64 1064.5 32 c 128,-1,7
 998 0 998 0 900 -19.5 c 128,-1,8
 802 -39 802 -39 664 -39 c 0,9,10
 510 -39 510 -39 403 -19.5 c 128,-1,11
 296 0 296 0 226 32 c 128,-1,12
 156 64 156 64 117.5 106 c 128,-1,13
 79 148 79 148 60.5 193.5 c 128,-1,14
 42 239 42 239 38.5 285 c 128,-1,15
 35 331 35 331 35 371 c 2,16,-1
 35 603 l 1,17,-1
 532 603 l 1,18,-1
 532 237 l 1,19,-1
 768 237 l 1,20,-1
 768 1595 l 1,0,-1
EndSplineSet
Validated: 1
EndChar

StartChar: period
Encoding: 46 46 24
Width: 686
Flags: W
HStem: 0 467<74 532>
VStem: 74 458<0 467>
LayerCount: 2
Fore
SplineSet
532 0 m 1,0,-1
 74 0 l 1,1,-1
 74 467 l 1,2,-1
 532 467 l 1,3,-1
 532 0 l 1,0,-1
EndSplineSet
Validated: 1
EndChar

StartChar: V
Encoding: 86 86 25
Width: 1653
Flags: W
HStem: 0 21G<238.79 1103.21> 1575 20G<-14 552.736 787.264 1356>
LayerCount: 2
Fore
SplineSet
551 1595 m 1,0,-1
 670 224 l 1,1,-1
 789 1595 l 1,2,-1
 1356 1595 l 1,3,-1
 1100 0 l 1,4,-1
 242 0 l 1,5,-1
 -14 1595 l 1,6,-1
 551 1595 l 1,0,-1
EndSplineSet
Validated: 1
EndChar

StartChar: o
Encoding: 111 111 26
Width: 1487
Flags: W
HStem: -39 276<559.459 791.464> 1060 283<559.459 791.464>
VStem: 61 497<237.083 1058.69> 794 497<237.083 1058.69>
LayerCount: 2
Fore
SplineSet
558 237 m 1,0,-1
 794 237 l 1,1,-1
 794 1060 l 1,2,-1
 558 1060 l 1,3,-1
 558 237 l 1,0,-1
682 -39 m 0,4,5
 532 -39 532 -39 427.5 -21 c 128,-1,6
 323 -3 323 -3 254 27 c 128,-1,7
 185 57 185 57 146.5 97 c 128,-1,8
 108 137 108 137 89 180 c 128,-1,9
 70 223 70 223 65.5 267.5 c 128,-1,10
 61 312 61 312 61 352 c 2,11,-1
 61 952 l 2,12,13
 61 992 61 992 65.5 1036.5 c 128,-1,14
 70 1081 70 1081 89 1124.5 c 128,-1,15
 108 1168 108 1168 146.5 1207.5 c 128,-1,16
 185 1247 185 1247 254 1277 c 128,-1,17
 323 1307 323 1307 427.5 1325 c 128,-1,18
 532 1343 532 1343 682 1343 c 0,19,20
 831 1343 831 1343 934.5 1325 c 128,-1,21
 1038 1307 1038 1307 1105.5 1277 c 128,-1,22
 1173 1247 1173 1247 1210.5 1207.5 c 128,-1,23
 1248 1168 1248 1168 1266 1124.5 c 128,-1,24
 1284 1081 1284 1081 1287.5 1036.5 c 128,-1,25
 1291 992 1291 992 1291 952 c 2,26,-1
 1291 352 l 2,27,28
 1291 312 1291 312 1287.5 267.5 c 128,-1,29
 1284 223 1284 223 1266 180 c 128,-1,30
 1248 137 1248 137 1210.5 97 c 128,-1,31
 1173 57 1173 57 1105.5 27 c 128,-1,32
 1038 -3 1038 -3 934.5 -21 c 128,-1,33
 831 -39 831 -39 682 -39 c 0,4,5
EndSplineSet
Validated: 1
EndChar

StartChar: c
Encoding: 99 99 27
Width: 1479
Flags: W
HStem: -37 274<558.799 790.203> 1060 283<558.799 792.424>
VStem: 61 497<237.709 1059.94> 794 497<237.266 451 855 1058.99>
LayerCount: 2
Fore
SplineSet
1291 451 m 1,0,-1
 1291 354 l 2,1,2
 1291 315 1291 315 1288 270.5 c 128,-1,3
 1285 226 1285 226 1268 182.5 c 128,-1,4
 1251 139 1251 139 1213.5 99.5 c 128,-1,5
 1176 60 1176 60 1107.5 29.5 c 128,-1,6
 1039 -1 1039 -1 933 -19 c 128,-1,7
 827 -37 827 -37 673 -37 c 0,8,9
 523 -37 523 -37 419.5 -19 c 128,-1,10
 316 -1 316 -1 248 29 c 128,-1,11
 180 59 180 59 142 99 c 128,-1,12
 104 139 104 139 86 182 c 128,-1,13
 68 225 68 225 64.5 269.5 c 128,-1,14
 61 314 61 314 61 354 c 2,15,-1
 61 954 l 2,16,17
 61 994 61 994 64.5 1038 c 128,-1,18
 68 1082 68 1082 86 1125 c 128,-1,19
 104 1168 104 1168 142 1207.5 c 128,-1,20
 180 1247 180 1247 248 1277 c 128,-1,21
 316 1307 316 1307 419.5 1325 c 128,-1,22
 523 1343 523 1343 673 1343 c 0,23,24
 819 1343 819 1343 921.5 1327 c 128,-1,25
 1024 1311 1024 1311 1092.5 1283 c 128,-1,26
 1161 1255 1161 1255 1201 1219 c 128,-1,27
 1241 1183 1241 1183 1261 1142 c 128,-1,28
 1281 1101 1281 1101 1286 1059 c 128,-1,29
 1291 1017 1291 1017 1291 978 c 2,30,-1
 1291 855 l 1,31,-1
 794 855 l 1,32,-1
 794 1060 l 1,33,-1
 558 1060 l 1,34,-1
 558 237 l 1,35,-1
 794 237 l 1,36,-1
 794 451 l 1,37,-1
 1291 451 l 1,0,-1
EndSplineSet
Validated: 1
EndChar

StartChar: e
Encoding: 101 101 28
Width: 1481
Flags: W
HStem: -36 273<558.799 793.107> 579 178<558 794> 1060 283<558.799 792.52>
VStem: 61 497<237.07 579 757 1059.94> 794 497<237.032 450 757 1059.66>
LayerCount: 2
Fore
SplineSet
1290 451 m 1,0,1
 1290 380 1290 380 1285 316.5 c 128,-1,2
 1280 253 1280 253 1260.5 198.5 c 128,-1,3
 1241 144 1241 144 1201.5 101 c 128,-1,4
 1162 58 1162 58 1093.5 27.5 c 128,-1,5
 1025 -3 1025 -3 922.5 -19.5 c 128,-1,6
 820 -36 820 -36 673 -36 c 0,7,8
 523 -36 523 -36 419.5 -18 c 128,-1,9
 316 0 316 0 248 30 c 128,-1,10
 180 60 180 60 142 99.5 c 128,-1,11
 104 139 104 139 86 182.5 c 128,-1,12
 68 226 68 226 64.5 270 c 128,-1,13
 61 314 61 314 61 354 c 2,14,-1
 61 954 l 2,15,16
 61 994 61 994 64.5 1038 c 128,-1,17
 68 1082 68 1082 86 1125 c 128,-1,18
 104 1168 104 1168 142 1207.5 c 128,-1,19
 180 1247 180 1247 248 1277 c 128,-1,20
 316 1307 316 1307 419.5 1325 c 128,-1,21
 523 1343 523 1343 673 1343 c 0,22,23
 819 1343 819 1343 922 1325 c 128,-1,24
 1025 1307 1025 1307 1093.5 1277 c 128,-1,25
 1162 1247 1162 1247 1201.5 1207.5 c 128,-1,26
 1241 1168 1241 1168 1261 1125 c 128,-1,27
 1281 1082 1281 1082 1286 1037.5 c 128,-1,28
 1291 993 1291 993 1291 954 c 2,29,-1
 1291 579 l 1,30,-1
 558 579 l 1,31,-1
 558 237 l 1,32,-1
 794 237 l 1,33,-1
 794 450 l 1,34,-1
 1290 451 l 1,0,1
558 757 m 1,35,-1
 794 757 l 1,36,-1
 794 1060 l 1,37,-1
 558 1060 l 1,38,-1
 558 757 l 1,35,-1
EndSplineSet
Validated: 1
EndChar

StartChar: n
Encoding: 110 110 29
Width: 1520
Flags: W
HStem: 0 21G<80 577 813 1310> 1280 20G<80 496.509 899.5 965.5>
VStem: 80 497<0 1060> 813 497<0 1059.59>
LayerCount: 2
Fore
SplineSet
80 0 m 1,0,-1
 80 1300 l 1,1,-1
 491 1300 l 1,2,-1
 537 1133 l 1,3,4
 563 1185 563 1185 605 1224.5 c 128,-1,5
 647 1264 647 1264 699 1290.5 c 128,-1,6
 751 1317 751 1317 810 1330.5 c 128,-1,7
 869 1344 869 1344 930 1344 c 0,8,9
 1001 1344 1001 1344 1069.5 1321 c 128,-1,10
 1138 1298 1138 1298 1191.5 1251.5 c 128,-1,11
 1245 1205 1245 1205 1277.5 1134 c 128,-1,12
 1310 1063 1310 1063 1310 968 c 2,13,-1
 1310 0 l 1,14,-1
 813 0 l 1,15,-1
 813 1060 l 1,16,-1
 577 1060 l 1,17,-1
 577 0 l 1,18,-1
 80 0 l 1,0,-1
EndSplineSet
Validated: 1
EndChar

StartChar: u
Encoding: 117 117 30
Width: 1520
Flags: W
HStem: 0 21G<891.491 1308>
VStem: 78 497<237.836 1300> 811 497<237 1300>
LayerCount: 2
Fore
SplineSet
1308 1300 m 1,0,-1
 1308 0 l 1,1,-1
 897 0 l 1,2,-1
 851 167 l 1,3,4
 825 115 825 115 783 75.5 c 128,-1,5
 741 36 741 36 689 9.5 c 128,-1,6
 637 -17 637 -17 578 -30.5 c 128,-1,7
 519 -44 519 -44 458 -44 c 0,8,9
 387 -44 387 -44 318.5 -21 c 128,-1,10
 250 2 250 2 196.5 48.5 c 128,-1,11
 143 95 143 95 110.5 166 c 128,-1,12
 78 237 78 237 78 332 c 2,13,-1
 78 1300 l 1,14,-1
 575 1300 l 1,15,-1
 575 237 l 1,16,-1
 811 237 l 1,17,-1
 811 1300 l 1,18,-1
 1308 1300 l 1,0,-1
EndSplineSet
Validated: 1
EndChar

StartChar: m
Encoding: 109 109 31
Width: 2249
Flags: W
HStem: 0 21G<80 557 793 1270 1506 1983> 1060 284<697.067 793 1398.4 1506> 1280 20G<80 476.509>
VStem: 80 477<0 1060> 793 477<0 1060> 1506 477<0 1059.45>
CounterMasks: 1 1c
LayerCount: 2
Fore
SplineSet
80 0 m 1,0,-1
 80 1300 l 1,1,-1
 471 1300 l 1,2,-1
 517 1133 l 1,3,4
 543 1185 543 1185 585 1224.5 c 128,-1,5
 627 1264 627 1264 679 1290.5 c 128,-1,6
 731 1317 731 1317 789.5 1330.5 c 128,-1,7
 848 1344 848 1344 906 1344 c 0,8,9
 955 1344 955 1344 1002.5 1332.5 c 128,-1,10
 1050 1321 1050 1321 1092 1297.5 c 128,-1,11
 1134 1274 1134 1274 1169 1239 c 128,-1,12
 1204 1204 1204 1204 1228 1157 c 1,13,14
 1256 1203 1256 1203 1298.5 1238 c 128,-1,15
 1341 1273 1341 1273 1392 1296.5 c 128,-1,16
 1443 1320 1443 1320 1500 1332 c 128,-1,17
 1557 1344 1557 1344 1614 1344 c 0,18,19
 1683 1344 1683 1344 1749.5 1321 c 128,-1,20
 1816 1298 1816 1298 1868 1251 c 128,-1,21
 1920 1204 1920 1204 1951.5 1133.5 c 128,-1,22
 1983 1063 1983 1063 1983 968 c 2,23,-1
 1983 0 l 1,24,-1
 1506 0 l 1,25,-1
 1506 1060 l 1,26,-1
 1269 1060 l 1,27,28
 1270 1055 1270 1055 1270 1049.5 c 128,-1,29
 1270 1044 1270 1044 1270 1039 c 2,30,-1
 1270 0 l 1,31,-1
 793 0 l 1,32,-1
 793 1060 l 1,33,-1
 557 1060 l 1,34,-1
 557 0 l 1,35,-1
 80 0 l 1,0,-1
EndSplineSet
Validated: 1
EndChar

StartChar: i
Encoding: 105 105 32
Width: 780
Flags: W
HStem: 0 21G<80 577> 1280 20G<80 577> 1473 237<80 577>
VStem: 80 497<0 1300 1473 1710>
LayerCount: 2
Fore
SplineSet
577 0 m 1,0,-1
 80 0 l 1,1,-1
 80 1300 l 1,2,-1
 577 1300 l 1,3,-1
 577 0 l 1,0,-1
577 1710 m 1,4,-1
 577 1473 l 1,5,-1
 80 1473 l 1,6,-1
 80 1710 l 1,7,-1
 577 1710 l 1,4,-1
EndSplineSet
Validated: 1
EndChar

StartChar: b
Encoding: 98 98 33
Width: 1505
Flags: W
HStem: -16 16G<80 496.509 898 964> 1324 20G<881.5 970.5> 1690 20G<80 577>
VStem: 80 497<237 1060 1199 1710> 813 497<237.343 1059.12>
LayerCount: 2
Fore
SplineSet
577 1710 m 1,0,-1
 577 1199 l 1,1,2
 641 1270 641 1270 734.5 1307 c 128,-1,3
 828 1344 828 1344 935 1344 c 0,4,5
 1006 1344 1006 1344 1073.5 1321 c 128,-1,6
 1141 1298 1141 1298 1193.5 1250 c 128,-1,7
 1246 1202 1246 1202 1278 1128.5 c 128,-1,8
 1310 1055 1310 1055 1310 955 c 2,9,-1
 1310 377 l 2,10,11
 1310 272 1310 272 1277.5 194 c 128,-1,12
 1245 116 1245 116 1191.5 64.5 c 128,-1,13
 1138 13 1138 13 1069 -12 c 128,-1,14
 1000 -37 1000 -37 928 -37 c 0,15,16
 868 -37 868 -37 811 -24 c 128,-1,17
 754 -11 754 -11 703 14.5 c 128,-1,18
 652 40 652 40 609.5 78.5 c 128,-1,19
 567 117 567 117 537 167 c 1,20,-1
 491 0 l 1,21,-1
 80 0 l 1,22,-1
 80 1710 l 1,23,-1
 577 1710 l 1,0,-1
577 237 m 1,24,-1
 813 237 l 1,25,-1
 813 1060 l 1,26,-1
 577 1060 l 1,27,-1
 577 237 l 1,24,-1
EndSplineSet
Validated: 1
EndChar

StartChar: d
Encoding: 100 100 34
Width: 1505
Flags: W
HStem: 0 21G<409 475 876.491 1293> 1324 20G<402.5 491.5> 1690 20G<796 1293>
VStem: 63 497<237.343 1059.12> 796 497<237 1060 1199 1710>
LayerCount: 2
Fore
SplineSet
1293 1710 m 1,0,-1
 1293 0 l 1,1,-1
 882 0 l 1,2,-1
 836 167 l 1,3,4
 806 117 806 117 763.5 78.5 c 128,-1,5
 721 40 721 40 670 14.5 c 128,-1,6
 619 -11 619 -11 562 -24 c 128,-1,7
 505 -37 505 -37 445 -37 c 0,8,9
 373 -37 373 -37 304 -12 c 128,-1,10
 235 13 235 13 181.5 64.5 c 128,-1,11
 128 116 128 116 95.5 194 c 128,-1,12
 63 272 63 272 63 377 c 2,13,-1
 63 955 l 2,14,15
 63 1055 63 1055 95 1128.5 c 128,-1,16
 127 1202 127 1202 179.5 1250 c 128,-1,17
 232 1298 232 1298 299.5 1321 c 128,-1,18
 367 1344 367 1344 438 1344 c 0,19,20
 545 1344 545 1344 638.5 1307 c 128,-1,21
 732 1270 732 1270 796 1199 c 1,22,-1
 796 1710 l 1,23,-1
 1293 1710 l 1,0,-1
796 1060 m 1,24,-1
 560 1060 l 1,25,-1
 560 237 l 1,26,-1
 796 237 l 1,27,-1
 796 1060 l 1,24,-1
EndSplineSet
Validated: 1
EndChar

StartChar: h
Encoding: 104 104 35
Width: 1520
Flags: W
HStem: 0 21G<80 577 813 1310> 1323 20G<900 963> 1690 20G<80 577>
VStem: 80 497<0 1060 1188 1710> 813 497<0 1059.25>
LayerCount: 2
Fore
SplineSet
80 0 m 1,0,-1
 80 1710 l 1,1,-1
 577 1710 l 1,2,-1
 577 1188 l 1,3,4
 600 1225 600 1225 637 1254 c 128,-1,5
 674 1283 674 1283 720 1302.5 c 128,-1,6
 766 1322 766 1322 819 1332.5 c 128,-1,7
 872 1343 872 1343 928 1343 c 0,8,9
 998 1343 998 1343 1066.5 1321 c 128,-1,10
 1135 1299 1135 1299 1189 1253.5 c 128,-1,11
 1243 1208 1243 1208 1276.5 1137 c 128,-1,12
 1310 1066 1310 1066 1310 968 c 2,13,-1
 1310 0 l 1,14,-1
 813 0 l 1,15,-1
 813 1060 l 1,16,-1
 577 1060 l 1,17,-1
 577 0 l 1,18,-1
 80 0 l 1,0,-1
EndSplineSet
Validated: 1
EndChar

StartChar: l
Encoding: 108 108 36
Width: 780
Flags: W
HStem: 0 21G<80 577> 1690 20G<80 577>
VStem: 80 497<0 1710>
LayerCount: 2
Fore
SplineSet
577 0 m 1,0,-1
 80 0 l 1,1,-1
 80 1710 l 1,2,-1
 577 1710 l 1,3,-1
 577 0 l 1,0,-1
EndSplineSet
Validated: 1
EndChar

StartChar: r
Encoding: 114 114 37
Width: 1014
Flags: W
HStem: 0 21G<80 577> 1280 20G<80 486.463 843.5 855>
VStem: 80 497<0 869>
LayerCount: 2
Fore
SplineSet
80 0 m 1,0,-1
 80 1300 l 1,1,-1
 481 1300 l 1,2,-1
 537 1095 l 1,3,4
 547 1145 547 1145 568 1183 c 128,-1,5
 589 1221 589 1221 616.5 1248.5 c 128,-1,6
 644 1276 644 1276 676 1294 c 128,-1,7
 708 1312 708 1312 740 1322.5 c 128,-1,8
 772 1333 772 1333 802 1337.5 c 128,-1,9
 832 1342 832 1342 855 1343 c 1,10,-1
 855 949 l 1,11,-1
 577 869 l 1,12,-1
 577 0 l 1,13,-1
 80 0 l 1,0,-1
EndSplineSet
Validated: 1
EndChar

StartChar: p
Encoding: 112 112 38
Width: 1503
Flags: W
HStem: -408 21G<80 577> 1280 20G<80 496.509>
VStem: 80 497<-408 101 236 1060> 813 497<238.232 1059.99>
LayerCount: 2
Fore
SplineSet
80 -408 m 1,0,-1
 80 1300 l 1,1,-1
 491 1300 l 1,2,-1
 537 1133 l 1,3,4
 567 1183 567 1183 610 1221.5 c 128,-1,5
 653 1260 653 1260 704 1285.5 c 128,-1,6
 755 1311 755 1311 812.5 1324 c 128,-1,7
 870 1337 870 1337 928 1337 c 0,8,9
 1000 1337 1000 1337 1069 1312 c 128,-1,10
 1138 1287 1138 1287 1191.5 1235.5 c 128,-1,11
 1245 1184 1245 1184 1277.5 1106 c 128,-1,12
 1310 1028 1310 1028 1310 923 c 2,13,-1
 1310 345 l 2,14,15
 1310 245 1310 245 1278 171.5 c 128,-1,16
 1246 98 1246 98 1193.5 50 c 128,-1,17
 1141 2 1141 2 1073.5 -21 c 128,-1,18
 1006 -44 1006 -44 935 -44 c 0,19,20
 883 -44 883 -44 832.5 -34.5 c 128,-1,21
 782 -25 782 -25 735.5 -6.5 c 128,-1,22
 689 12 689 12 648.5 39 c 128,-1,23
 608 66 608 66 577 101 c 1,24,-1
 577 -408 l 1,25,-1
 80 -408 l 1,0,-1
577 236 m 1,26,-1
 813 236 l 1,27,-1
 813 1060 l 1,28,-1
 577 1060 l 1,29,-1
 577 236 l 1,26,-1
EndSplineSet
Validated: 1
EndChar

StartChar: q
Encoding: 113 113 39
Width: 1481
Flags: W
HStem: -408 21G<796 1293> 1280 20G<876.491 1293>
VStem: 63 497<238.232 1059.99> 796 497<-408 101 237 1060>
LayerCount: 2
Fore
SplineSet
796 -408 m 1,0,-1
 796 101 l 1,1,2
 765 66 765 66 724.5 39 c 128,-1,3
 684 12 684 12 637.5 -6.5 c 128,-1,4
 591 -25 591 -25 540.5 -34.5 c 128,-1,5
 490 -44 490 -44 438 -44 c 0,6,7
 367 -44 367 -44 299.5 -21 c 128,-1,8
 232 2 232 2 179.5 50 c 128,-1,9
 127 98 127 98 95 171.5 c 128,-1,10
 63 245 63 245 63 345 c 2,11,-1
 63 923 l 2,12,13
 63 1028 63 1028 95.5 1106 c 128,-1,14
 128 1184 128 1184 181.5 1235.5 c 128,-1,15
 235 1287 235 1287 304 1312 c 128,-1,16
 373 1337 373 1337 445 1337 c 0,17,18
 503 1337 503 1337 560.5 1324 c 128,-1,19
 618 1311 618 1311 669 1285.5 c 128,-1,20
 720 1260 720 1260 763 1221.5 c 128,-1,21
 806 1183 806 1183 836 1133 c 1,22,-1
 882 1300 l 1,23,-1
 1293 1300 l 1,24,-1
 1293 -408 l 1,25,-1
 796 -408 l 1,0,-1
796 1060 m 1,26,-1
 560 1060 l 1,27,-1
 560 237 l 1,28,-1
 796 237 l 1,29,-1
 796 1060 l 1,26,-1
EndSplineSet
Validated: 1
EndChar

StartChar: t
Encoding: 116 116 40
Width: 954
Flags: W
HStem: 0 21G<139 636> 1100 200<16 139 636 800> 1575 20G<139 636>
VStem: 139 497<0 1100 1300 1595>
LayerCount: 2
Fore
SplineSet
636 0 m 1,0,-1
 139 0 l 1,1,-1
 139 1100 l 1,2,-1
 16 1100 l 1,3,-1
 16 1300 l 1,4,-1
 139 1300 l 1,5,-1
 139 1595 l 1,6,-1
 636 1595 l 1,7,-1
 636 1300 l 1,8,-1
 800 1300 l 1,9,-1
 800 1100 l 1,10,-1
 636 1100 l 1,11,-1
 636 0 l 1,0,-1
EndSplineSet
Validated: 1
EndChar

StartChar: a
Encoding: 97 97 41
Width: 1481
Flags: W
HStem: -36 273<532 639.648> 0 21G<846.611 1308> 602 193<535.387 768> 1060 283<535.034 767.567>
VStem: 35 497<238.98 576.418> 113 419<895.219 1058.91> 768 497<237 602 782 1058.69>
LayerCount: 2
Fore
SplineSet
852 0 m 1,0,-1
 807 167 l 1,1,2
 781 116 781 116 741 78 c 128,-1,3
 701 40 701 40 652 14.5 c 128,-1,4
 603 -11 603 -11 547.5 -23.5 c 128,-1,5
 492 -36 492 -36 437 -36 c 0,6,7
 322 -36 322 -36 244.5 -1.5 c 128,-1,8
 167 33 167 33 120.5 89.5 c 128,-1,9
 74 146 74 146 54.5 218.5 c 128,-1,10
 35 291 35 291 35 368 c 0,11,12
 35 447 35 447 58.5 523.5 c 128,-1,13
 82 600 82 600 139.5 660.5 c 128,-1,14
 197 721 197 721 294.5 758 c 128,-1,15
 392 795 392 795 540 795 c 0,16,17
 591 795 591 795 650 792 c 128,-1,18
 709 789 709 789 768 782 c 1,19,-1
 768 1060 l 1,20,-1
 532 1060 l 1,21,-1
 532 893 l 1,22,-1
 138 894 l 1,23,24
 127 933 127 933 120 971 c 128,-1,25
 113 1009 113 1009 113 1044 c 0,26,27
 113 1104 113 1104 138.5 1158.5 c 128,-1,28
 164 1213 164 1213 226.5 1254 c 128,-1,29
 289 1295 289 1295 394.5 1319 c 128,-1,30
 500 1343 500 1343 661 1343 c 0,31,32
 806 1343 806 1343 907 1325 c 128,-1,33
 1008 1307 1008 1307 1075 1277 c 128,-1,34
 1142 1247 1142 1247 1180 1207.5 c 128,-1,35
 1218 1168 1218 1168 1237 1124.5 c 128,-1,36
 1256 1081 1256 1081 1260.5 1036.5 c 128,-1,37
 1265 992 1265 992 1265 952 c 2,38,-1
 1265 257 l 2,39,40
 1265 209 1265 209 1271.5 164 c 128,-1,41
 1278 119 1278 119 1286 82 c 0,42,43
 1296 39 1296 39 1308 0 c 1,44,-1
 852 0 l 1,0,-1
532 602 m 1,45,-1
 532 237 l 1,46,-1
 768 237 l 1,47,-1
 768 602 l 1,48,-1
 532 602 l 1,45,-1
EndSplineSet
Validated: 1
EndChar

StartChar: f
Encoding: 102 102 42
Width: 1186
Flags: W
HStem: 0 21G<195 692> 1098 202<8 195 692 976> 1477 257<692 943.359> 1477 206<744.059 968>
VStem: 195 497<0 1098 1300 1476.59>
LayerCount: 2
Fore
SplineSet
195 1300 m 1,0,1
 195 1418 195 1418 228 1500.5 c 128,-1,2
 261 1583 261 1583 320 1635 c 128,-1,3
 379 1687 379 1687 460.5 1710.5 c 128,-1,4
 542 1734 542 1734 639 1734 c 0,5,6
 715 1734 715 1734 797.5 1720.5 c 128,-1,7
 880 1707 880 1707 968 1683 c 1,8,-1
 968 1477 l 1,9,-1
 692 1477 l 1,10,-1
 692 1300 l 1,11,-1
 976 1300 l 1,12,-1
 976 1098 l 1,13,-1
 692 1098 l 1,14,-1
 692 0 l 1,15,-1
 195 0 l 1,16,-1
 195 1098 l 1,17,-1
 8 1098 l 1,18,-1
 8 1300 l 1,19,-1
 195 1300 l 1,0,1
EndSplineSet
Validated: 1
EndChar

StartChar: j
Encoding: 106 106 43
Width: 780
Flags: W
HStem: -332 266<-214.541 -24> -285 219<-221 -24.125> 1473 237<-24 473>
VStem: -24 497<-63.5547 1300 1473 1710>
LayerCount: 2
Fore
SplineSet
-24 1300 m 1,0,-1
 473 1300 l 1,1,-1
 473 94 l 2,2,3
 473 -5 473 -5 441.5 -83.5 c 128,-1,4
 410 -162 410 -162 352.5 -217.5 c 128,-1,5
 295 -273 295 -273 214.5 -302.5 c 128,-1,6
 134 -332 134 -332 37 -332 c 0,7,8
 -23 -332 -23 -332 -87.5 -320.5 c 128,-1,9
 -152 -309 -152 -309 -221 -285 c 1,10,-1
 -221 -66 l 1,11,-1
 -24 -66 l 1,12,-1
 -24 1300 l 1,0,-1
473 1710 m 1,13,-1
 473 1473 l 1,14,-1
 -24 1473 l 1,15,-1
 -24 1710 l 1,16,-1
 473 1710 l 1,13,-1
EndSplineSet
Validated: 1
EndChar

StartChar: s
Encoding: 115 115 44
Width: 1425
Flags: W
HStem: -36 273<528.236 759.298> 1060 283<529.565 762.626>
VStem: 31 497<854.398 1058.61> 764 497<238.773 455.87>
LayerCount: 2
Fore
SplineSet
764 444 m 1,0,1
 756 453 756 453 720 458 c 128,-1,2
 684 463 684 463 631 469.5 c 128,-1,3
 578 476 578 476 513 486 c 128,-1,4
 448 496 448 496 381 515 c 128,-1,5
 314 534 314 534 251 564 c 128,-1,6
 188 594 188 594 139 640 c 128,-1,7
 90 686 90 686 60.5 750 c 128,-1,8
 31 814 31 814 31 902 c 0,9,10
 31 966 31 966 41 1023.5 c 128,-1,11
 51 1081 51 1081 76.5 1130 c 128,-1,12
 102 1179 102 1179 147 1218.5 c 128,-1,13
 192 1258 192 1258 262 1285.5 c 128,-1,14
 332 1313 332 1313 430 1328 c 128,-1,15
 528 1343 528 1343 661 1343 c 1,16,17
 794 1341 794 1341 888 1328 c 128,-1,18
 982 1315 982 1315 1045.5 1293 c 128,-1,19
 1109 1271 1109 1271 1146.5 1239 c 128,-1,20
 1184 1207 1184 1207 1203.5 1167 c 128,-1,21
 1223 1127 1223 1127 1228.5 1078.5 c 128,-1,22
 1234 1030 1234 1030 1234 975 c 2,23,-1
 1234 889 l 1,24,-1
 764 919 l 1,25,-1
 764 1060 l 1,26,-1
 528 1060 l 1,27,-1
 528 867 l 1,28,29
 537 858 537 858 573.5 852 c 128,-1,30
 610 846 610 846 663 838.5 c 128,-1,31
 716 831 716 831 781 820 c 128,-1,32
 846 809 846 809 912.5 790 c 128,-1,33
 979 771 979 771 1041.5 742 c 128,-1,34
 1104 713 1104 713 1153 669 c 128,-1,35
 1202 625 1202 625 1231.5 564 c 128,-1,36
 1261 503 1261 503 1261 421 c 0,37,38
 1261 308 1261 308 1235.5 222.5 c 128,-1,39
 1210 137 1210 137 1141 79.5 c 128,-1,40
 1072 22 1072 22 950 -7 c 128,-1,41
 828 -36 828 -36 635 -36 c 1,42,43
 505 -33 505 -33 411.5 -19.5 c 128,-1,44
 318 -6 318 -6 254 17 c 128,-1,45
 190 40 190 40 152 72.5 c 128,-1,46
 114 105 114 105 94 145 c 128,-1,47
 74 185 74 185 67.5 233 c 128,-1,48
 61 281 61 281 61 335 c 2,49,-1
 61 413 l 1,50,-1
 528 378 l 1,51,-1
 528 237 l 1,52,-1
 764 237 l 1,53,-1
 764 444 l 1,0,1
EndSplineSet
Validated: 1
EndChar

StartChar: W
Encoding: 87 87 45
Width: 2376
Flags: W
HStem: 0 21G<257.727 843.872 1114.13 1699.29> 1575 20G<0 545.454 762.675 1196.28 1412.52 1958>
LayerCount: 2
Fore
SplineSet
1958 1595 m 1,0,-1
 1696 0 l 1,1,-1
 1118 0 l 1,2,-1
 979 718 l 1,3,-1
 840 0 l 1,4,-1
 261 0 l 1,5,-1
 0 1595 l 1,6,-1
 543 1595 l 1,7,-1
 657 666 l 1,8,-1
 765 1595 l 1,9,-1
 1194 1595 l 1,10,-1
 1300 666 l 1,11,-1
 1415 1595 l 1,12,-1
 1958 1595 l 1,0,-1
EndSplineSet
Validated: 1
EndChar

StartChar: v
Encoding: 118 118 46
Width: 1434
Flags: W
HStem: 0 21G<299.2 918.785> 1280 20G<-8 510.25 705.705 1225>
LayerCount: 2
Fore
SplineSet
-8 1300 m 1,0,-1
 508 1300 l 1,1,-1
 607 420 l 1,2,-1
 708 1300 l 1,3,-1
 1225 1300 l 1,4,-1
 914 0 l 1,5,-1
 304 0 l 1,6,-1
 -8 1300 l 1,0,-1
EndSplineSet
Validated: 1
EndChar

StartChar: x
Encoding: 120 120 47
Width: 1364
Flags: W
HStem: 0 21G<-18 501.357 652.643 1172> 1280 20G<-18 504.295 648.785 1172>
LayerCount: 2
Fore
SplineSet
-18 0 m 1,0,-1
 319 652 l 1,1,-1
 -18 1300 l 1,2,-1
 498 1300 l 1,3,-1
 577 1049 l 1,4,-1
 655 1300 l 1,5,-1
 1172 1300 l 1,6,-1
 835 652 l 1,7,-1
 1172 0 l 1,8,-1
 659 0 l 1,9,-1
 577 258 l 1,10,-1
 495 0 l 1,11,-1
 -18 0 l 1,0,-1
EndSplineSet
Validated: 1
EndChar

StartChar: w
Encoding: 119 119 48
Width: 2181
Flags: W
HStem: 0 21G<208.831 847.165 1004.78 1647.17> 1280 20G<6 502.75 684.523 1171.43 1352.23 1850>
LayerCount: 2
Fore
SplineSet
925 739 m 1,0,-1
 845 0 l 1,1,-1
 212 0 l 1,2,-1
 6 1300 l 1,3,-1
 501 1300 l 1,4,-1
 578 420 l 1,5,-1
 687 1300 l 1,6,-1
 1169 1300 l 1,7,-1
 1276 420 l 1,8,-1
 1354 1300 l 1,9,-1
 1850 1300 l 1,10,-1
 1644 0 l 1,11,-1
 1007 0 l 1,12,-1
 925 739 l 1,0,-1
EndSplineSet
Validated: 1
EndChar

StartChar: z
Encoding: 122 122 49
Width: 1122
Flags: W
HStem: 0 246<597 925> 1051 249<59 362>
LayerCount: 2
Fore
SplineSet
59 1300 m 1,0,-1
 919 1300 l 1,1,-1
 919 1079 l 1,2,-1
 597 246 l 1,3,-1
 925 246 l 1,4,-1
 925 0 l 1,5,-1
 37 0 l 1,6,-1
 37 233 l 1,7,-1
 362 1051 l 1,8,-1
 59 1051 l 1,9,-1
 59 1300 l 1,0,-1
EndSplineSet
Validated: 1
EndChar

StartChar: X
Encoding: 88 88 50
Width: 1556
Flags: W
HStem: 0 21G<-20 535.598 782.196 1339> 1575 20G<-20 503.436 814.379 1339>
LayerCount: 2
Fore
SplineSet
496 1595 m 1,0,-1
 657 1162 l 1,1,-1
 822 1595 l 1,2,-1
 1339 1595 l 1,3,-1
 977 782 l 1,4,-1
 1339 0 l 1,5,-1
 789 0 l 1,6,-1
 657 388 l 1,7,-1
 529 0 l 1,8,-1
 -20 0 l 1,9,-1
 339 782 l 1,10,-1
 -20 1595 l 1,11,-1
 496 1595 l 1,0,-1
EndSplineSet
Validated: 1
EndChar

StartChar: g
Encoding: 103 103 51
Width: 1505
Flags: W
HStem: -587 299<666.272 793.844> 1280 20G<876.491 1293>
VStem: 63 497<238.232 1059.99> 796 497<-214.241 101 237 1060>
LayerCount: 2
Fore
SplineSet
796 101 m 1,0,1
 765 66 765 66 724.5 39 c 128,-1,2
 684 12 684 12 637.5 -6.5 c 128,-1,3
 591 -25 591 -25 540 -34.5 c 128,-1,4
 489 -44 489 -44 438 -44 c 0,5,6
 367 -44 367 -44 299.5 -21 c 128,-1,7
 232 2 232 2 179.5 50 c 128,-1,8
 127 98 127 98 95 171.5 c 128,-1,9
 63 245 63 245 63 345 c 2,10,-1
 63 923 l 2,11,12
 63 1028 63 1028 95.5 1106 c 128,-1,13
 128 1184 128 1184 181.5 1235.5 c 128,-1,14
 235 1287 235 1287 304 1312 c 128,-1,15
 373 1337 373 1337 445 1337 c 0,16,17
 503 1337 503 1337 560 1324 c 128,-1,18
 617 1311 617 1311 668.5 1285.5 c 128,-1,19
 720 1260 720 1260 763 1221.5 c 128,-1,20
 806 1183 806 1183 836 1133 c 1,21,-1
 882 1300 l 1,22,-1
 1293 1300 l 1,23,-1
 1293 58 l 2,24,25
 1293 -59 1293 -59 1268 -152.5 c 128,-1,26
 1243 -246 1243 -246 1200 -318 c 128,-1,27
 1157 -390 1157 -390 1098.5 -441 c 128,-1,28
 1040 -492 1040 -492 972 -524.5 c 128,-1,29
 904 -557 904 -557 829 -572 c 128,-1,30
 754 -587 754 -587 679 -587 c 0,31,32
 611 -587 611 -587 545.5 -575 c 128,-1,33
 480 -563 480 -563 420.5 -540.5 c 128,-1,34
 361 -518 361 -518 311 -486 c 128,-1,35
 261 -454 261 -454 224 -414.5 c 128,-1,36
 187 -375 187 -375 166.5 -329 c 128,-1,37
 146 -283 146 -283 146 -232 c 0,38,39
 146 -210 146 -210 150 -196 c 128,-1,40
 154 -182 154 -182 163 -159 c 1,41,-1
 666 -171 l 1,42,-1
 666 -288 l 1,43,-1
 796 -288 l 1,44,-1
 796 101 l 1,0,1
796 1060 m 1,45,-1
 560 1060 l 1,46,-1
 560 237 l 1,47,-1
 796 237 l 1,48,-1
 796 1060 l 1,45,-1
EndSplineSet
Validated: 1
EndChar

StartChar: K
Encoding: 75 75 52
Width: 1872
Flags: W
HStem: 0 21G<96 593 920.094 1531> 1575 20G<96 593 901.592 1513>
VStem: 96 497<0 440 1034 1595>
LayerCount: 2
Fore
SplineSet
593 0 m 1,0,-1
 96 0 l 1,1,-1
 96 1595 l 1,2,-1
 593 1595 l 1,3,-1
 593 1034 l 1,4,-1
 913 1595 l 1,5,-1
 1513 1595 l 1,6,-1
 1058 834 l 1,7,-1
 1531 0 l 1,8,-1
 930 0 l 1,9,-1
 667 531 l 1,10,-1
 593 440 l 1,11,-1
 593 0 l 1,0,-1
EndSplineSet
Validated: 1
EndChar

StartChar: y
Encoding: 121 121 53
Width: 1520
Flags: W
HStem: -587 352<678.272 810.849>
VStem: 78 497<238.232 1300> 811 497<-216.926 101 237 1300>
LayerCount: 2
Fore
SplineSet
575 237 m 1,0,-1
 811 237 l 1,1,-1
 811 1300 l 1,2,-1
 1308 1300 l 1,3,-1
 1308 58 l 2,4,5
 1308 -59 1308 -59 1283.5 -152.5 c 128,-1,6
 1259 -246 1259 -246 1215.5 -318 c 128,-1,7
 1172 -390 1172 -390 1113 -441 c 128,-1,8
 1054 -492 1054 -492 985.5 -524.5 c 128,-1,9
 917 -557 917 -557 841.5 -572 c 128,-1,10
 766 -587 766 -587 691 -587 c 0,11,12
 623 -587 623 -587 557.5 -575 c 128,-1,13
 492 -563 492 -563 432.5 -540.5 c 128,-1,14
 373 -518 373 -518 323 -486 c 128,-1,15
 273 -454 273 -454 236 -414.5 c 128,-1,16
 199 -375 199 -375 178.5 -329 c 128,-1,17
 158 -283 158 -283 158 -232 c 0,18,19
 158 -210 158 -210 162 -187 c 128,-1,20
 166 -164 166 -164 175 -141 c 1,21,-1
 678 -171 l 1,22,-1
 678 -235 l 1,23,-1
 812 -235 l 1,24,-1
 812 101 l 1,25,26
 781 66 781 66 740 39 c 128,-1,27
 699 12 699 12 652.5 -6.5 c 128,-1,28
 606 -25 606 -25 555 -34.5 c 128,-1,29
 504 -44 504 -44 453 -44 c 0,30,31
 382 -44 382 -44 314.5 -21 c 128,-1,32
 247 2 247 2 194.5 50 c 128,-1,33
 142 98 142 98 110 171.5 c 128,-1,34
 78 245 78 245 78 345 c 2,35,-1
 78 1300 l 1,36,-1
 575 1300 l 1,37,-1
 575 237 l 1,0,-1
EndSplineSet
Validated: 1
EndChar

StartChar: k
Encoding: 107 107 54
Width: 1612
Flags: W
HStem: 0 21G<80 577 842.948 1356> 1280 20G<807.252 1349> 1690 20G<80 577>
VStem: 80 497<0 348 888 1710>
LayerCount: 2
Fore
SplineSet
80 0 m 1,0,-1
 80 1710 l 1,1,-1
 577 1710 l 1,2,-1
 577 888 l 1,3,-1
 819 1300 l 1,4,-1
 1349 1300 l 1,5,-1
 1032 820 l 1,6,-1
 1356 0 l 1,7,-1
 850 0 l 1,8,-1
 679 485 l 1,9,-1
 577 348 l 1,10,-1
 577 0 l 1,11,-1
 80 0 l 1,0,-1
EndSplineSet
Validated: 1
EndChar

StartChar: F
Encoding: 70 70 55
Width: 1174
Flags: W
HStem: 0 21G<96 593> 705 249<593 881> 1358 237<593 902>
VStem: 96 497<0 705 954 1358>
LayerCount: 2
Fore
SplineSet
902 1595 m 1,0,-1
 902 1358 l 1,1,-1
 593 1358 l 1,2,-1
 593 954 l 1,3,-1
 881 954 l 1,4,-1
 881 705 l 1,5,-1
 593 705 l 1,6,-1
 593 0 l 1,7,-1
 96 0 l 1,8,-1
 96 1595 l 1,9,-1
 902 1595 l 1,0,-1
EndSplineSet
Validated: 1
EndChar

StartChar: N
Encoding: 78 78 56
Width: 1741
Flags: W
HStem: 0 21G<96 508 882.17 1357> 1575 20G<96 560.723 958 1357>
VStem: 96 412<0 711> 958 399<834 1595>
LayerCount: 2
Fore
SplineSet
893 0 m 1,0,-1
 508 711 l 1,1,-1
 508 0 l 1,2,-1
 96 0 l 1,3,-1
 96 1595 l 1,4,-1
 550 1595 l 1,5,-1
 958 834 l 1,6,-1
 958 1595 l 1,7,-1
 1357 1595 l 1,8,-1
 1357 0 l 1,9,-1
 893 0 l 1,0,-1
EndSplineSet
Validated: 1
EndChar

StartChar: Thorn
Encoding: 222 222 62
Width: 1599
Flags: W
HStem: 0 21G<96 593> 250 232<593 828.091> 1182 231<593 828.091> 1575 20G<96 593>
VStem: 96 497<0 250 482 1182 1413 1595> 829 497<482.474 1180.88>
LayerCount: 2
Fore
SplineSet
96 1595 m 1,0,-1
 593 1595 l 1,1,-1
 593 1413 l 1,2,-1
 764 1413 l 2,3,4
 906 1413 906 1413 1003 1395 c 128,-1,5
 1100 1377 1100 1377 1162.5 1347 c 128,-1,6
 1225 1317 1225 1317 1258.5 1277.5 c 128,-1,7
 1292 1238 1292 1238 1307 1194.5 c 128,-1,8
 1322 1151 1322 1151 1324 1106.5 c 128,-1,9
 1326 1062 1326 1062 1326 1022 c 2,10,-1
 1326 641 l 2,11,12
 1326 601 1326 601 1324 556.5 c 128,-1,13
 1322 512 1322 512 1307 469 c 128,-1,14
 1292 426 1292 426 1258.5 386 c 128,-1,15
 1225 346 1225 346 1162.5 316 c 128,-1,16
 1100 286 1100 286 1003 268 c 128,-1,17
 906 250 906 250 764 250 c 2,18,-1
 593 250 l 1,19,-1
 593 0 l 1,20,-1
 96 0 l 1,21,-1
 96 1595 l 1,0,-1
593 482 m 1,22,-1
 829 482 l 1,23,-1
 829 1182 l 1,24,-1
 593 1182 l 1,25,-1
 593 482 l 1,22,-1
EndSplineSet
Validated: 1
EndChar

StartChar: germandbls
Encoding: 223 223 63
Width: 1483
Flags: W
HStem: -37 231<621 759.643> 750 231<648 760> 1358 237<526.379 759.679>
VStem: 27 497<-205 1357.28> 760 497<195 722.5> 760 427<991.166 1357.33>
LayerCount: 2
Fore
SplineSet
524 -205 m 1,0,-1
 27 -205 l 1,1,-1
 27 1217 l 2,2,3
 27 1256 27 1256 31.5 1299.5 c 128,-1,4
 36 1343 36 1343 55 1385 c 128,-1,5
 74 1427 74 1427 112.5 1465 c 128,-1,6
 151 1503 151 1503 219.5 1532 c 128,-1,7
 288 1561 288 1561 391.5 1578 c 128,-1,8
 495 1595 495 1595 644 1595 c 0,9,10
 777 1595 777 1595 869 1574.5 c 128,-1,11
 961 1554 961 1554 1021.5 1520 c 128,-1,12
 1082 1486 1082 1486 1115.5 1441.5 c 128,-1,13
 1149 1397 1149 1397 1165 1350 c 128,-1,14
 1181 1303 1181 1303 1184 1256 c 128,-1,15
 1187 1209 1187 1209 1187 1170 c 0,16,17
 1187 1111 1187 1111 1175.5 1068.5 c 128,-1,18
 1164 1026 1164 1026 1144.5 995 c 128,-1,19
 1125 964 1125 964 1100.5 943.5 c 128,-1,20
 1076 923 1076 923 1051 909 c 0,21,22
 991 876 991 876 915 870 c 1,23,24
 950 868 950 868 988.5 860.5 c 128,-1,25
 1027 853 1027 853 1065 837.5 c 128,-1,26
 1103 822 1103 822 1138 798.5 c 128,-1,27
 1173 775 1173 775 1199.5 740.5 c 128,-1,28
 1226 706 1226 706 1241.5 659.5 c 128,-1,29
 1257 613 1257 613 1257 553 c 2,30,-1
 1257 258 l 2,31,32
 1257 222 1257 222 1252 186 c 128,-1,33
 1247 150 1247 150 1229 117.5 c 128,-1,34
 1211 85 1211 85 1175 56.5 c 128,-1,35
 1139 28 1139 28 1078 7.5 c 128,-1,36
 1017 -13 1017 -13 925.5 -25 c 128,-1,37
 834 -37 834 -37 705 -37 c 2,38,-1
 621 -37 l 1,39,-1
 621 194 l 1,40,-1
 760 194 l 1,41,-1
 760 750 l 1,42,-1
 648 750 l 1,43,-1
 648 981 l 1,44,-1
 760 981 l 1,45,-1
 760 1358 l 1,46,-1
 524 1358 l 1,47,-1
 524 -205 l 1,0,-1
EndSplineSet
Validated: 1
EndChar

StartChar: OE
Encoding: 338 338 64
Width: 1925
Flags: W
HStem: 0 244<616.195 715 1286 1597> 711 250<1286 1575> 1354 241<616.195 715 1286 1597>
VStem: 82 530<233.522 1363.64> 715 571<244 711 961 1354>
LayerCount: 2
Fore
SplineSet
651 0 m 2,0,1
 509 0 509 0 411.5 16.5 c 128,-1,2
 314 33 314 33 250.5 61 c 128,-1,3
 187 89 187 89 153 125.5 c 128,-1,4
 119 162 119 162 103 203.5 c 128,-1,5
 87 245 87 245 84.5 288 c 128,-1,6
 82 331 82 331 82 371 c 2,7,-1
 82 1227 l 2,8,9
 82 1266 82 1266 84.5 1308.5 c 128,-1,10
 87 1351 87 1351 103 1392 c 128,-1,11
 119 1433 119 1433 153 1470 c 128,-1,12
 187 1507 187 1507 250.5 1534.5 c 128,-1,13
 314 1562 314 1562 411.5 1578.5 c 128,-1,14
 509 1595 509 1595 651 1595 c 2,15,-1
 1597 1595 l 1,16,-1
 1597 1354 l 1,17,-1
 1286 1354 l 1,18,-1
 1286 961 l 1,19,-1
 1575 961 l 1,20,-1
 1575 711 l 1,21,-1
 1286 711 l 1,22,-1
 1286 244 l 1,23,-1
 1597 244 l 1,24,-1
 1597 0 l 1,25,-1
 651 0 l 2,0,1
612 233 m 1,26,-1
 715 233 l 1,27,-1
 715 1364 l 1,28,-1
 612 1364 l 1,29,-1
 612 233 l 1,26,-1
EndSplineSet
Validated: 1
EndChar

StartChar: Oslash
Encoding: 216 216 70
Width: 1634
Flags: W
HStem: -39 276<575 810.287> 1358 274<578.728 810.287>
VStem: 78 497<331 1357.88> 811 497<237.695 1267>
LayerCount: 2
Fore
SplineSet
1149 1817 m 1,0,-1
 1259 1716 l 1,1,-1
 215 -166 l 1,2,-1
 99 -70 l 1,3,-1
 1149 1817 l 1,0,-1
575 237 m 1,4,-1
 811 237 l 1,5,-1
 811 1358 l 1,6,-1
 575 1358 l 1,7,-1
 575 237 l 1,4,-1
686 -39 m 0,8,9
 541 -39 541 -39 439 -19.5 c 128,-1,10
 337 0 337 0 269.5 32 c 128,-1,11
 202 64 202 64 163.5 106 c 128,-1,12
 125 148 125 148 106 193.5 c 128,-1,13
 87 239 87 239 82.5 285 c 128,-1,14
 78 331 78 331 78 371 c 2,15,-1
 78 1227 l 2,16,17
 78 1267 78 1267 82.5 1312.5 c 128,-1,18
 87 1358 87 1358 106 1403 c 128,-1,19
 125 1448 125 1448 163.5 1489.5 c 128,-1,20
 202 1531 202 1531 269.5 1562.5 c 128,-1,21
 337 1594 337 1594 438.5 1613 c 128,-1,22
 540 1632 540 1632 686 1632 c 0,23,24
 833 1632 833 1632 936.5 1613 c 128,-1,25
 1040 1594 1040 1594 1109 1562.5 c 128,-1,26
 1178 1531 1178 1531 1218 1489.5 c 128,-1,27
 1258 1448 1258 1448 1278 1403 c 128,-1,28
 1298 1358 1298 1358 1303 1312.5 c 128,-1,29
 1308 1267 1308 1267 1308 1227 c 2,30,-1
 1308 371 l 2,31,32
 1308 331 1308 331 1303 285 c 128,-1,33
 1298 239 1298 239 1278 193.5 c 128,-1,34
 1258 148 1258 148 1218 106 c 128,-1,35
 1178 64 1178 64 1109 32 c 128,-1,36
 1040 0 1040 0 936.5 -19.5 c 128,-1,37
 833 -39 833 -39 686 -39 c 0,8,9
EndSplineSet
Validated: 5
EndChar

StartChar: Eth
Encoding: 208 208 71
Width: 1710
Flags: W
HStem: 0 237<642 875.121> 726 142<49 770> 1358 237<642 875.121>
VStem: 145 497<237 1358> 878 497<237.896 1357.42>
LayerCount: 2
Fore
SplineSet
770 868 m 1,0,-1
 770 726 l 1,1,-1
 49 726 l 1,2,-1
 49 868 l 1,3,-1
 770 868 l 1,0,-1
642 237 m 1,4,-1
 878 237 l 1,5,-1
 878 1358 l 1,6,-1
 642 1358 l 1,7,-1
 642 237 l 1,4,-1
1375 393 m 2,8,9
 1375 353 1375 353 1372.5 308.5 c 128,-1,10
 1370 264 1370 264 1354.5 220 c 128,-1,11
 1339 176 1339 176 1305 136.5 c 128,-1,12
 1271 97 1271 97 1209 66.5 c 128,-1,13
 1147 36 1147 36 1051.5 18 c 128,-1,14
 956 0 956 0 816 0 c 2,15,-1
 145 0 l 1,16,-1
 145 1595 l 1,17,-1
 816 1595 l 2,18,19
 956 1595 956 1595 1051.5 1577 c 128,-1,20
 1147 1559 1147 1559 1209 1529 c 128,-1,21
 1271 1499 1271 1499 1305 1459.5 c 128,-1,22
 1339 1420 1339 1420 1354.5 1376.5 c 128,-1,23
 1370 1333 1370 1333 1372.5 1288.5 c 128,-1,24
 1375 1244 1375 1244 1375 1204 c 2,25,-1
 1375 393 l 2,8,9
EndSplineSet
Validated: 5
EndChar

StartChar: AE
Encoding: 198 198 78
Width: 2081
Flags: W
HStem: 0 244<1359 1668> 348 230<701 828> 711 250<1359 1647> 1354 241<1359 1668>
VStem: 841 135<348 578 1001 1595>
LayerCount: 2
Fore
SplineSet
635 348 m 1,0,-1
 535 0 l 1,1,-1
 -31 0 l 1,2,-1
 544 1595 l 1,3,-1
 976 1595 l 1,4,-1
 976 0 l 1,5,-1
 828 0 l 1,6,-1
 828 348 l 1,7,-1
 635 348 l 1,0,-1
701 578 m 1,8,-1
 828 578 l 1,9,-1
 828 1001 l 1,10,-1
 701 578 l 1,8,-1
1668 1595 m 1,11,-1
 1668 1354 l 1,12,-1
 1359 1354 l 1,13,-1
 1359 961 l 1,14,-1
 1647 961 l 1,15,-1
 1647 711 l 1,16,-1
 1359 711 l 1,17,-1
 1359 244 l 1,18,-1
 1668 244 l 1,19,-1
 1668 0 l 1,20,-1
 841 0 l 1,21,-1
 841 1595 l 1,22,-1
 1668 1595 l 1,11,-1
EndSplineSet
Validated: 5
EndChar

StartChar: oe
Encoding: 339 339 79
Width: 2187
Flags: W
HStem: -36 314<568.028 762.258 1224.44 1417.45> 621 206<1223 1420> 1029 314<568.028 760.888 1224.59 1417.77>
VStem: 69 497<279.235 1028.06> 763 460<278 621 827 1029> 1420 499<279.235 555 827 1028.06>
LayerCount: 2
Fore
SplineSet
1919 555 m 1,0,-1
 1919 369 l 2,1,2
 1919 329 1919 329 1918 283.5 c 128,-1,3
 1917 238 1917 238 1903.5 193 c 128,-1,4
 1890 148 1890 148 1858 106.5 c 128,-1,5
 1826 65 1826 65 1765 33.5 c 128,-1,6
 1704 2 1704 2 1608 -17 c 128,-1,7
 1512 -36 1512 -36 1370 -36 c 0,8,9
 1266 -36 1266 -36 1197.5 -22 c 128,-1,10
 1129 -8 1129 -8 1086 12 c 128,-1,11
 1043 32 1043 32 1021.5 55 c 128,-1,12
 1000 78 1000 78 991 96 c 1,13,14
 979 77 979 77 953.5 54 c 128,-1,15
 928 31 928 31 885 11 c 128,-1,16
 842 -9 842 -9 778.5 -22.5 c 128,-1,17
 715 -36 715 -36 628 -36 c 0,18,19
 486 -36 486 -36 389 -17 c 128,-1,20
 292 2 292 2 230 33.5 c 128,-1,21
 168 65 168 65 135 106.5 c 128,-1,22
 102 148 102 148 87.5 193 c 128,-1,23
 73 238 73 238 71 283.5 c 128,-1,24
 69 329 69 329 69 369 c 2,25,-1
 69 932 l 2,26,27
 69 972 69 972 71 1018 c 128,-1,28
 73 1064 73 1064 87.5 1109.5 c 128,-1,29
 102 1155 102 1155 135 1197.5 c 128,-1,30
 168 1240 168 1240 230 1272 c 128,-1,31
 292 1304 292 1304 389 1323.5 c 128,-1,32
 486 1343 486 1343 628 1343 c 0,33,34
 719 1343 719 1343 784 1328.5 c 128,-1,35
 849 1314 849 1314 892.5 1293 c 128,-1,36
 936 1272 936 1272 959.5 1249.5 c 128,-1,37
 983 1227 983 1227 991 1212 c 1,38,39
 1003 1229 1003 1229 1028 1251.5 c 128,-1,40
 1053 1274 1053 1274 1097 1294.5 c 128,-1,41
 1141 1315 1141 1315 1207.5 1329 c 128,-1,42
 1274 1343 1274 1343 1370 1343 c 0,43,44
 1513 1343 1513 1343 1609 1323.5 c 128,-1,45
 1705 1304 1705 1304 1766 1272 c 128,-1,46
 1827 1240 1827 1240 1858.5 1197.5 c 128,-1,47
 1890 1155 1890 1155 1903.5 1109.5 c 128,-1,48
 1917 1064 1917 1064 1918 1018 c 128,-1,49
 1919 972 1919 972 1919 932 c 2,50,-1
 1915 621 l 1,51,-1
 1223 621 l 1,52,-1
 1223 278 l 1,53,-1
 1420 278 l 1,54,-1
 1420 555 l 1,55,-1
 1919 555 l 1,0,-1
566 278 m 1,56,-1
 763 278 l 1,57,-1
 763 1029 l 1,58,-1
 566 1029 l 1,59,-1
 566 278 l 1,56,-1
1223 827 m 1,60,-1
 1420 827 l 1,61,-1
 1420 1029 l 1,62,-1
 1223 1029 l 1,63,-1
 1223 827 l 1,60,-1
EndSplineSet
Validated: 1
EndChar

StartChar: eth
Encoding: 240 240 84
Width: 1427
Flags: W
HStem: -38 274<546.25 654.02>
VStem: 33 513<237.345 824.391> 656 520<275.167 822.061>
LayerCount: 2
Fore
SplineSet
425 1415 m 1,0,1
 387 1444 387 1444 351 1468.5 c 128,-1,2
 315 1493 315 1493 287 1510 c 0,3,4
 254 1530 254 1530 226 1546 c 1,5,-1
 429 1887 l 1,6,7
 476 1866 476 1866 531 1835 c 0,8,9
 578 1809 578 1809 637.5 1768.5 c 128,-1,10
 697 1728 697 1728 763 1672 c 1,11,-1
 951 1815 l 1,12,-1
 1015 1692 l 1,13,-1
 863 1576 l 1,14,15
 925 1511 925 1511 981.5 1431 c 128,-1,16
 1038 1351 1038 1351 1081.5 1255.5 c 128,-1,17
 1125 1160 1125 1160 1150.5 1047.5 c 128,-1,18
 1176 935 1176 935 1176 806 c 0,19,20
 1176 653 1176 653 1169 531 c 128,-1,21
 1162 409 1162 409 1141 315 c 128,-1,22
 1120 221 1120 221 1081 154 c 128,-1,23
 1042 87 1042 87 979 44.5 c 128,-1,24
 916 2 916 2 825 -18 c 128,-1,25
 734 -38 734 -38 608 -38 c 0,26,27
 480 -38 480 -38 388 -21 c 128,-1,28
 296 -4 296 -4 232 28.5 c 128,-1,29
 168 61 168 61 129 109 c 128,-1,30
 90 157 90 157 68.5 219.5 c 128,-1,31
 47 282 47 282 40 358 c 128,-1,32
 33 434 33 434 33 523 c 0,33,34
 33 604 33 604 38.5 678.5 c 128,-1,35
 44 753 44 753 61.5 816.5 c 128,-1,36
 79 880 79 880 112 931.5 c 128,-1,37
 145 983 145 983 200.5 1019.5 c 128,-1,38
 256 1056 256 1056 337 1076 c 128,-1,39
 418 1096 418 1096 531 1096 c 2,40,-1
 658 1096 l 1,41,42
 658 1125 658 1125 648 1154 c 128,-1,43
 638 1183 638 1183 621 1212 c 128,-1,44
 604 1241 604 1241 581 1269 c 128,-1,45
 558 1297 558 1297 531 1323 c 1,46,-1
 303 1150 l 1,47,-1
 240 1274 l 1,48,-1
 425 1415 l 1,0,1
656 826 m 1,49,-1
 546 826 l 1,50,-1
 546 236 l 1,51,-1
 656 236 l 1,52,-1
 656 826 l 1,49,-1
EndSplineSet
Validated: 1
EndChar

StartChar: oslash
Encoding: 248 248 86
Width: 1487
Flags: W
HStem: -39 317<556.622 752.801> 1029 314<556.438 750.781>
VStem: 59 497<278.156 379 627 1028.2> 753 497<278.555 673 920 1028.75>
LayerCount: 2
Fore
SplineSet
659 -39 m 0,0,1
 543 -39 543 -39 456 -27.5 c 128,-1,2
 369 -16 369 -16 305 4 c 1,3,-1
 215 -131 l 1,4,-1
 99 -53 l 1,5,-1
 178 65 l 1,6,7
 136 96 136 96 112 132 c 128,-1,8
 88 168 88 168 76 205.5 c 128,-1,9
 64 243 64 243 61.5 280.5 c 128,-1,10
 59 318 59 318 59 352 c 2,11,-1
 59 952 l 2,12,13
 59 992 59 992 63 1036.5 c 128,-1,14
 67 1081 67 1081 85.5 1124.5 c 128,-1,15
 104 1168 104 1168 141.5 1207.5 c 128,-1,16
 179 1247 179 1247 245.5 1277 c 128,-1,17
 312 1307 312 1307 413 1325 c 128,-1,18
 514 1343 514 1343 659 1343 c 0,19,20
 774 1343 774 1343 859.5 1331.5 c 128,-1,21
 945 1320 945 1320 1008 1300 c 1,22,-1
 1097 1432 l 1,23,-1
 1206 1350 l 1,24,-1
 1132 1240 l 1,25,26
 1174 1209 1174 1209 1198 1173 c 128,-1,27
 1222 1137 1222 1137 1233.5 1099.5 c 128,-1,28
 1245 1062 1245 1062 1247.5 1024 c 128,-1,29
 1250 986 1250 986 1250 952 c 2,30,-1
 1250 352 l 2,31,32
 1250 312 1250 312 1246.5 267.5 c 128,-1,33
 1243 223 1243 223 1225 180 c 128,-1,34
 1207 137 1207 137 1170.5 97 c 128,-1,35
 1134 57 1134 57 1068.5 27 c 128,-1,36
 1003 -3 1003 -3 903 -21 c 128,-1,37
 803 -39 803 -39 659 -39 c 0,0,1
556 627 m 1,38,-1
 753 920 l 1,39,-1
 753 1029 l 1,40,-1
 556 1029 l 1,41,-1
 556 627 l 1,38,-1
753 278 m 1,42,-1
 753 673 l 1,43,-1
 556 379 l 1,44,-1
 556 278 l 1,45,-1
 753 278 l 1,42,-1
EndSplineSet
Validated: 1
EndChar

StartChar: thorn
Encoding: 254 254 87
Width: 1483
Flags: W
HStem: -409 21G<80 596> -23 21G<807 890.5> 1303 20G<808 890.5> 1582 20G<80 596>
VStem: 80 516<-409 78 231 1069 1225 1602> 699 519<231.708 1068.31>
LayerCount: 2
Fore
SplineSet
596 1602 m 1,0,-1
 596 1225 l 1,1,2
 603 1240 603 1240 615.5 1257 c 128,-1,3
 628 1274 628 1274 654.5 1289 c 128,-1,4
 681 1304 681 1304 726.5 1313.5 c 128,-1,5
 772 1323 772 1323 844 1323 c 0,6,7
 937 1323 937 1323 1001.5 1303.5 c 128,-1,8
 1066 1284 1066 1284 1107.5 1251.5 c 128,-1,9
 1149 1219 1149 1219 1171.5 1176 c 128,-1,10
 1194 1133 1194 1133 1204.5 1087 c 128,-1,11
 1215 1041 1215 1041 1216.5 995 c 128,-1,12
 1218 949 1218 949 1218 909 c 2,13,-1
 1218 391 l 2,14,15
 1218 352 1218 352 1216.5 305.5 c 128,-1,16
 1215 259 1215 259 1204.5 213 c 128,-1,17
 1194 167 1194 167 1171.5 124.5 c 128,-1,18
 1149 82 1149 82 1107.5 49 c 128,-1,19
 1066 16 1066 16 1001.5 -3.5 c 128,-1,20
 937 -23 937 -23 844 -23 c 0,21,22
 770 -23 770 -23 726.5 -13 c 128,-1,23
 683 -3 683 -3 657.5 12 c 128,-1,24
 632 27 632 27 619.5 44.5 c 128,-1,25
 607 62 607 62 596 78 c 1,26,-1
 596 -409 l 1,27,-1
 80 -409 l 1,28,-1
 80 1602 l 1,29,-1
 596 1602 l 1,0,-1
596 231 m 1,30,-1
 699 231 l 1,31,-1
 699 1069 l 1,32,-1
 596 1069 l 1,33,-1
 596 231 l 1,30,-1
EndSplineSet
Validated: 1
EndChar

StartChar: ae
Encoding: 230 230 97
Width: 2191
Flags: W
HStem: -36 314<520 715.662 1215.41 1391.54> 579 178<1214 1394> 602 193<523.388 717> 1029 314<520.203 716.225 1214.35 1390.97>
VStem: 31 489<280.215 580.824> 101 419<895.219 1029> 717 497<278 579 782 1029> 1394 497<279.59 450 757 1027.83>
LayerCount: 2
Fore
SplineSet
1890 451 m 1,0,1
 1890 380 1890 380 1885.5 316.5 c 128,-1,2
 1881 253 1881 253 1862.5 198.5 c 128,-1,3
 1844 144 1844 144 1807 101 c 128,-1,4
 1770 58 1770 58 1704.5 27.5 c 128,-1,5
 1639 -3 1639 -3 1540 -19.5 c 128,-1,6
 1441 -36 1441 -36 1299 -36 c 0,7,8
 1229 -36 1229 -36 1169 -19.5 c 128,-1,9
 1109 -3 1109 -3 1064 17 c 0,10,11
 1012 40 1012 40 969 70 c 1,12,13
 829 13 829 13 712 -11.5 c 128,-1,14
 595 -36 595 -36 498 -36 c 0,15,16
 379 -36 379 -36 291 -2.5 c 128,-1,17
 203 31 203 31 145 86.5 c 128,-1,18
 87 142 87 142 59 215 c 128,-1,19
 31 288 31 288 31 368 c 0,20,21
 31 447 31 447 53 523.5 c 128,-1,22
 75 600 75 600 131.5 660.5 c 128,-1,23
 188 721 188 721 284 758 c 128,-1,24
 380 795 380 795 528 795 c 0,25,26
 572 795 572 795 619 792 c 128,-1,27
 666 789 666 789 717 782 c 1,28,-1
 717 1029 l 1,29,-1
 520 1029 l 1,30,-1
 520 893 l 1,31,-1
 126 894 l 1,32,33
 115 933 115 933 108 971 c 128,-1,34
 101 1009 101 1009 101 1044 c 0,35,36
 101 1104 101 1104 125.5 1158.5 c 128,-1,37
 150 1213 150 1213 210 1254 c 128,-1,38
 270 1295 270 1295 372 1319 c 128,-1,39
 474 1343 474 1343 629 1343 c 0,40,41
 718 1343 718 1343 781 1330.5 c 128,-1,42
 844 1318 844 1318 885 1303 c 0,43,44
 933 1285 933 1285 964 1263 c 1,45,46
 1000 1285 1000 1285 1049 1303 c 0,47,48
 1091 1318 1091 1318 1153.5 1330.5 c 128,-1,49
 1216 1343 1216 1343 1299 1343 c 0,50,51
 1440 1343 1440 1343 1539 1325 c 128,-1,52
 1638 1307 1638 1307 1704 1277 c 128,-1,53
 1770 1247 1770 1247 1807.5 1207.5 c 128,-1,54
 1845 1168 1845 1168 1863.5 1125 c 128,-1,55
 1882 1082 1882 1082 1886.5 1037.5 c 128,-1,56
 1891 993 1891 993 1891 954 c 2,57,-1
 1891 579 l 1,58,-1
 1214 579 l 1,59,-1
 1214 278 l 1,60,-1
 1394 278 l 1,61,-1
 1394 450 l 1,62,-1
 1890 451 l 1,0,1
520 602 m 1,63,-1
 520 278 l 1,64,-1
 717 278 l 1,65,-1
 717 329 l 1,66,-1
 717 602 l 1,67,-1
 520 602 l 1,63,-1
1214 757 m 1,68,-1
 1394 757 l 1,69,-1
 1394 1029 l 1,70,-1
 1214 1029 l 1,71,-1
 1214 757 l 1,68,-1
EndSplineSet
Validated: 1
EndChar

StartChar: guilsinglleft
Encoding: 8249 8249 98
Width: 1051
Flags: W
HStem: 0 21G<802.607 835> 1575 20G<803.129 835>
LayerCount: 2
Fore
SplineSet
43 1098 m 1,0,-1
 835 1595 l 1,1,-1
 835 1090 l 1,2,-1
 292 797 l 1,3,-1
 835 504 l 1,4,-1
 835 0 l 1,5,-1
 43 489 l 1,6,-1
 43 1098 l 1,0,-1
EndSplineSet
Validated: 1
EndChar

StartChar: multiply
Encoding: 215 215 103
Width: 1358
Flags: W
LayerCount: 2
Fore
SplineSet
1132 924 m 1,0,-1
 899 649 l 1,1,-1
 1132 375 l 1,2,-1
 816 4 l 1,3,-1
 584 279 l 1,4,-1
 350 4 l 1,5,-1
 35 375 l 1,6,-1
 269 649 l 1,7,-1
 35 924 l 1,8,-1
 350 1294 l 1,9,-1
 584 1020 l 1,10,-1
 816 1294 l 1,11,-1
 1132 924 l 1,0,-1
EndSplineSet
Validated: 1
EndChar

StartChar: divide
Encoding: 247 247 115
Width: 1313
Flags: W
HStem: 92 467<334 792> 670 238<39 1089> 1000 497<334 792>
VStem: 334 458<92 559 1000 1497>
LayerCount: 2
Fore
SplineSet
792 92 m 1,0,-1
 334 92 l 1,1,-1
 334 559 l 1,2,-1
 792 559 l 1,3,-1
 792 92 l 1,0,-1
792 1000 m 1,4,-1
 334 1000 l 1,5,-1
 334 1497 l 1,6,-1
 792 1497 l 1,7,-1
 792 1000 l 1,4,-1
1089 908 m 1,8,-1
 1089 670 l 1,9,-1
 39 670 l 1,10,-1
 39 908 l 1,11,-1
 1089 908 l 1,8,-1
EndSplineSet
Validated: 1
EndChar

StartChar: uniFB01
Encoding: 64257 64257 118
Width: 1819
Flags: W
HStem: 0 21G<163 691 951 1479> 1098 202<10 163 691 951> 1393 316<951 1479> 1477 232<691 951>
VStem: 163 528<0 1098 1300 1475.43> 951 528<0 1098 1393 1477>
LayerCount: 2
Fore
SplineSet
1479 0 m 1,0,-1
 951 0 l 1,1,-1
 951 1098 l 1,2,-1
 691 1098 l 1,3,-1
 691 0 l 1,4,-1
 163 0 l 1,5,-1
 163 1098 l 1,6,-1
 10 1098 l 1,7,-1
 10 1300 l 1,8,-1
 163 1300 l 1,9,-1
 163 1317 l 2,10,11
 163 1420 163 1420 184.5 1494.5 c 128,-1,12
 206 1569 206 1569 259.5 1616.5 c 128,-1,13
 313 1664 313 1664 404 1686.5 c 128,-1,14
 495 1709 495 1709 635 1709 c 2,15,-1
 1479 1709 l 1,16,-1
 1479 1393 l 1,17,-1
 951 1393 l 1,18,-1
 951 1477 l 1,19,-1
 691 1477 l 1,20,-1
 691 1300 l 1,21,-1
 1479 1300 l 1,22,-1
 1479 0 l 1,0,-1
EndSplineSet
Validated: 1
EndChar

StartChar: uniFB02
Encoding: 64258 64258 119
Width: 1823
Flags: W
HStem: 0 21G<163 691 955 1483> 1098 202<10 163 691 955> 1477 234<691 955>
VStem: 163 528<0 1098 1300 1475.43> 955 528<0 1098 1300 1477>
LayerCount: 2
Fore
SplineSet
1483 0 m 1,0,-1
 955 0 l 1,1,-1
 955 1098 l 1,2,-1
 691 1098 l 1,3,-1
 691 0 l 1,4,-1
 163 0 l 1,5,-1
 163 1098 l 1,6,-1
 10 1098 l 1,7,-1
 10 1300 l 1,8,-1
 163 1300 l 1,9,-1
 163 1317 l 2,10,11
 163 1420 163 1420 184.5 1494.5 c 128,-1,12
 206 1569 206 1569 259.5 1617 c 128,-1,13
 313 1665 313 1665 404 1688 c 128,-1,14
 495 1711 495 1711 635 1711 c 2,15,-1
 1483 1710 l 1,16,-1
 1483 0 l 1,0,-1
691 1300 m 1,17,-1
 955 1300 l 1,18,-1
 955 1477 l 1,19,-1
 691 1477 l 1,20,-1
 691 1300 l 1,17,-1
EndSplineSet
Validated: 1
EndChar

StartChar: Lslash
Encoding: 321 321 120
Width: 1567
Flags: W
HStem: 0 237<788 1096> 1575 20G<291 788>
VStem: 291 497<237 1595>
LayerCount: 2
Fore
SplineSet
1302 1072 m 1,0,-1
 29 410 l 1,1,-1
 29 750 l 1,2,-1
 1302 1410 l 1,3,-1
 1302 1072 l 1,0,-1
291 0 m 1,4,-1
 291 1595 l 1,5,-1
 788 1595 l 1,6,-1
 788 237 l 1,7,-1
 1096 237 l 1,8,-1
 1096 0 l 1,9,-1
 291 0 l 1,4,-1
EndSplineSet
Validated: 5
EndChar

StartChar: lslash
Encoding: 322 322 121
Width: 1124
Flags: W
HStem: 0 21G<214 711> 1690 20G<214 711>
VStem: 214 497<0 1710>
LayerCount: 2
Fore
SplineSet
945 1023 m 1,0,-1
 14 539 l 1,1,-1
 14 788 l 1,2,-1
 945 1271 l 1,3,-1
 945 1023 l 1,0,-1
711 0 m 1,4,-1
 214 0 l 1,5,-1
 214 1710 l 1,6,-1
 711 1710 l 1,7,-1
 711 0 l 1,4,-1
EndSplineSet
Validated: 5
EndChar

StartChar: exclam
Encoding: 33 33 124
Width: 780
Flags: W
HStem: 0 397<86 601> 1584 20G<86 601>
VStem: 86 515<0 397 1271.88 1604> 86 467<492 824.117>
LayerCount: 2
Fore
SplineSet
553 492 m 1,0,-1
 86 492 l 1,1,-1
 86 1604 l 1,2,-1
 601 1604 l 1,3,-1
 553 492 l 1,0,-1
86 0 m 1,4,-1
 86 397 l 1,5,-1
 601 397 l 1,6,-1
 601 0 l 1,7,-1
 86 0 l 1,4,-1
EndSplineSet
Validated: 1
EndChar

StartChar: quotedbl
Encoding: 34 34 125
Width: 1229
Flags: W
HStem: 798 806<120 408 648 936>
VStem: 120 288<798 933.939> 648 288<798 933.939>
LayerCount: 2
Fore
SplineSet
408 798 m 1,0,-1
 120 798 l 1,1,-1
 35 1604 l 1,2,-1
 493 1604 l 1,3,-1
 408 798 l 1,0,-1
936 798 m 1,4,-1
 648 798 l 1,5,-1
 563 1604 l 1,6,-1
 1021 1604 l 1,7,-1
 936 798 l 1,4,-1
EndSplineSet
Validated: 1
EndChar

StartChar: numbersign
Encoding: 35 35 126
Width: 1804
Flags: W
HStem: 0 21G<121 613.542 715 1207.53> 1575 20G<326.388 817 920.388 1411>
LayerCount: 2
Fore
SplineSet
1393 300 m 1,0,-1
 1243 300 l 1,1,-1
 1205 0 l 1,2,-1
 715 0 l 1,3,-1
 754 299 l 1,4,-1
 649 299 l 1,5,-1
 611 0 l 1,6,-1
 121 0 l 1,7,-1
 160 299 l 1,8,-1
 39 299 l 1,9,-1
 92 730 l 1,10,-1
 216 730 l 1,11,-1
 234 872 l 1,12,-1
 100 872 l 1,13,-1
 153 1304 l 1,14,-1
 291 1304 l 1,15,-1
 329 1595 l 1,16,-1
 817 1595 l 1,17,-1
 779 1304 l 1,18,-1
 885 1304 l 1,19,-1
 923 1595 l 1,20,-1
 1411 1595 l 1,21,-1
 1373 1304 l 1,22,-1
 1507 1304 l 1,23,-1
 1455 873 l 1,24,-1
 1318 873 l 1,25,-1
 1299 730 l 1,26,-1
 1446 730 l 1,27,-1
 1393 300 l 1,0,-1
705 730 m 1,28,-1
 809 730 l 1,29,-1
 828 872 l 1,30,-1
 724 872 l 1,31,-1
 705 730 l 1,28,-1
EndSplineSet
Validated: 1
EndChar

StartChar: dollar
Encoding: 36 36 127
Width: 1573
Flags: W
VStem: 49 574<233.116 533 1080.51 1361.42> 437 510<-248 -7.82971 1607.51 1843>
LayerCount: 2
Fore
SplineSet
623 1106 m 2,0,1
 623 1090 623 1090 652.5 1083.5 c 128,-1,2
 682 1077 682 1077 730.5 1071.5 c 128,-1,3
 779 1066 779 1066 840.5 1058 c 128,-1,4
 902 1050 902 1050 966.5 1032 c 128,-1,5
 1031 1014 1031 1014 1092.5 982 c 128,-1,6
 1154 950 1154 950 1202.5 897 c 128,-1,7
 1251 844 1251 844 1280.5 766 c 128,-1,8
 1310 688 1310 688 1310 578 c 0,9,10
 1310 512 1310 512 1307 447.5 c 128,-1,11
 1304 383 1304 383 1293 323.5 c 128,-1,12
 1282 264 1282 264 1259 210.5 c 128,-1,13
 1236 157 1236 157 1195.5 113 c 128,-1,14
 1155 69 1155 69 1094.5 36 c 128,-1,15
 1034 3 1034 3 947 -16 c 1,16,-1
 947 -248 l 1,17,-1
 437 -248 l 1,18,-1
 437 -17 l 1,19,20
 351 -1 351 -1 288.5 24.5 c 128,-1,21
 226 50 226 50 183 82 c 128,-1,22
 140 114 140 114 113.5 151 c 128,-1,23
 87 188 87 188 73 226 c 128,-1,24
 59 264 59 264 54 301 c 128,-1,25
 49 338 49 338 49 371 c 2,26,-1
 49 533 l 1,27,-1
 623 533 l 1,28,-1
 623 233 l 1,29,-1
 735 233 l 1,30,-1
 735 553 l 2,31,32
 735 568 735 568 705.5 578.5 c 128,-1,33
 676 589 676 589 628 601 c 128,-1,34
 580 613 580 613 518 627.5 c 128,-1,35
 456 642 456 642 392 664.5 c 128,-1,36
 328 687 328 687 266 719.5 c 128,-1,37
 204 752 204 752 156 800 c 128,-1,38
 108 848 108 848 78.5 912.5 c 128,-1,39
 49 977 49 977 49 1064 c 0,40,41
 49 1195 49 1195 66.5 1291 c 128,-1,42
 84 1387 84 1387 128 1453 c 128,-1,43
 172 1519 172 1519 247 1558 c 128,-1,44
 322 1597 322 1597 437 1615 c 1,45,-1
 437 1843 l 1,46,-1
 947 1843 l 1,47,-1
 947 1612 l 1,48,49
 1024 1597 1024 1597 1077.5 1573.5 c 128,-1,50
 1131 1550 1131 1550 1167 1520.5 c 128,-1,51
 1203 1491 1203 1491 1223.5 1456.5 c 128,-1,52
 1244 1422 1244 1422 1254 1386.5 c 128,-1,53
 1264 1351 1264 1351 1266.5 1315.5 c 128,-1,54
 1269 1280 1269 1280 1269 1247 c 2,55,-1
 1269 1128 l 1,56,-1
 735 1128 l 1,57,-1
 735 1364 l 1,58,-1
 623 1364 l 1,59,-1
 623 1106 l 2,0,1
EndSplineSet
Validated: 1
EndChar

StartChar: percent
Encoding: 37 37 128
Width: 2902
Flags: W
HStem: -40 21G<840 1303.96>
VStem: 45 413<669.918 1333.91> 540 409<669.918 1333.91> 1529 413<290.842 954.788> 2023 409<290.842 954.788>
LayerCount: 2
Fore
SplineSet
540 1334 m 1,0,-1
 458 1334 l 1,1,-1
 458 669 l 1,2,-1
 540 669 l 1,3,-1
 540 1334 l 1,0,-1
497 454 m 256,4,5
 384 454 384 454 306.5 468 c 128,-1,6
 229 482 229 482 179 506 c 128,-1,7
 129 530 129 530 101.5 561.5 c 128,-1,8
 74 593 74 593 61.5 627.5 c 128,-1,9
 49 662 49 662 47 697.5 c 128,-1,10
 45 733 45 733 45 765 c 2,11,-1
 45 1244 l 2,12,13
 45 1276 45 1276 47 1311 c 128,-1,14
 49 1346 49 1346 61.5 1380.5 c 128,-1,15
 74 1415 74 1415 101.5 1446 c 128,-1,16
 129 1477 129 1477 179 1501 c 128,-1,17
 229 1525 229 1525 306.5 1539 c 128,-1,18
 384 1553 384 1553 497 1553 c 256,19,20
 610 1553 610 1553 687.5 1539 c 128,-1,21
 765 1525 765 1525 815 1501 c 128,-1,22
 865 1477 865 1477 892.5 1446 c 128,-1,23
 920 1415 920 1415 932.5 1380.5 c 128,-1,24
 945 1346 945 1346 947 1311 c 128,-1,25
 949 1276 949 1276 949 1244 c 2,26,-1
 949 765 l 2,27,28
 949 733 949 733 947 697.5 c 128,-1,29
 945 662 945 662 932.5 627.5 c 128,-1,30
 920 593 920 593 892.5 561.5 c 128,-1,31
 865 530 865 530 815 506 c 128,-1,32
 765 482 765 482 687.5 468 c 128,-1,33
 610 454 610 454 497 454 c 256,4,5
2023 955 m 1,34,-1
 1942 955 l 1,35,-1
 1942 290 l 1,36,-1
 2023 290 l 1,37,-1
 2023 955 l 1,34,-1
1979 75 m 256,38,39
 1866 75 1866 75 1789 89 c 128,-1,40
 1712 103 1712 103 1662 127 c 128,-1,41
 1612 151 1612 151 1585 182 c 128,-1,42
 1558 213 1558 213 1545.5 248 c 128,-1,43
 1533 283 1533 283 1531 318.5 c 128,-1,44
 1529 354 1529 354 1529 386 c 2,45,-1
 1529 863 l 2,46,47
 1529 895 1529 895 1531 930.5 c 128,-1,48
 1533 966 1533 966 1545.5 1000.5 c 128,-1,49
 1558 1035 1558 1035 1585 1066.5 c 128,-1,50
 1612 1098 1612 1098 1662 1122 c 128,-1,51
 1712 1146 1712 1146 1789 1160 c 128,-1,52
 1866 1174 1866 1174 1979 1174 c 256,53,54
 2092 1174 2092 1174 2169.5 1160 c 128,-1,55
 2247 1146 2247 1146 2297.5 1122 c 128,-1,56
 2348 1098 2348 1098 2375.5 1066.5 c 128,-1,57
 2403 1035 2403 1035 2415.5 1000.5 c 128,-1,58
 2428 966 2428 966 2430 930.5 c 128,-1,59
 2432 895 2432 895 2432 863 c 2,60,-1
 2432 386 l 2,61,62
 2432 354 2432 354 2430 318.5 c 128,-1,63
 2428 283 2428 283 2415.5 248 c 128,-1,64
 2403 213 2403 213 2375.5 182 c 128,-1,65
 2348 151 2348 151 2297.5 127 c 128,-1,66
 2247 103 2247 103 2169.5 89 c 128,-1,67
 2092 75 2092 75 1979 75 c 256,38,39
1639 1670 m 1,68,-1
 1300 -40 l 1,69,-1
 840 -40 l 1,70,-1
 1184 1670 l 1,71,-1
 1639 1670 l 1,68,-1
EndSplineSet
Validated: 1
EndChar

StartChar: ampersand
Encoding: 38 38 129
Width: 1688
Flags: W
HStem: -38 274<601.934 785.452> 728 224<598 787 1296 1433> 1154 444.5<785.375 1178.54> 1364 271<601.438 781.586>
VStem: 68 530<237.145 726.664 952.793 1361.88> 787 509<238.302 728 952 1080 1154 1362.72>
LayerCount: 2
Fore
SplineSet
784 1154 m 1,0,-1
 784 1364 l 1,1,-1
 598 1364 l 1,2,-1
 598 952 l 1,3,-1
 787 952 l 1,4,-1
 787 1080 l 1,5,-1
 1296 1080 l 1,6,-1
 1296 952 l 1,7,-1
 1433 952 l 1,8,-1
 1433 728 l 1,9,-1
 1296 728 l 1,10,-1
 1296 635 l 2,11,12
 1296 503 1296 503 1288.5 402 c 128,-1,13
 1281 301 1281 301 1258.5 226.5 c 128,-1,14
 1236 152 1236 152 1194.5 101 c 128,-1,15
 1153 50 1153 50 1085 19.5 c 128,-1,16
 1017 -11 1017 -11 919 -24.5 c 128,-1,17
 821 -38 821 -38 685 -38 c 0,18,19
 546 -38 546 -38 446 -25 c 128,-1,20
 346 -12 346 -12 277.5 16 c 128,-1,21
 209 44 209 44 167.5 89 c 128,-1,22
 126 134 126 134 104 199 c 128,-1,23
 82 264 82 264 75 349 c 128,-1,24
 68 434 68 434 68 543 c 0,25,26
 68 631 68 631 86 688.5 c 128,-1,27
 104 746 104 746 126.5 779 c 128,-1,28
 149 812 149 812 168 825.5 c 128,-1,29
 187 839 187 839 189 840 c 1,30,31
 187 841 187 841 168 855 c 128,-1,32
 149 869 149 869 126.5 903 c 128,-1,33
 104 937 104 937 86 993.5 c 128,-1,34
 68 1050 68 1050 68 1137 c 0,35,36
 68 1290 68 1290 94.5 1387 c 128,-1,37
 121 1484 121 1484 190 1539 c 128,-1,38
 259 1594 259 1594 379 1614.5 c 128,-1,39
 499 1635 499 1635 685 1635 c 0,40,41
 821 1635 821 1635 918.5 1627 c 128,-1,42
 1016 1619 1016 1619 1083.5 1598.5 c 128,-1,43
 1151 1578 1151 1578 1192 1543 c 128,-1,44
 1233 1508 1233 1508 1255 1454.5 c 128,-1,45
 1277 1401 1277 1401 1284.5 1327 c 128,-1,46
 1292 1253 1292 1253 1292 1154 c 1,47,-1
 784 1154 l 1,0,-1
787 236 m 1,48,-1
 787 728 l 1,49,-1
 598 728 l 1,50,-1
 598 236 l 1,51,-1
 787 236 l 1,48,-1
EndSplineSet
Validated: 1
EndChar

StartChar: quotesingle
Encoding: 39 39 130
Width: 606
Flags: W
HStem: 1584 20G<35 493>
VStem: 120 288<798 933.939>
LayerCount: 2
Fore
SplineSet
408 798 m 1,0,-1
 120 798 l 1,1,-1
 35 1604 l 1,2,-1
 493 1604 l 1,3,-1
 408 798 l 1,0,-1
EndSplineSet
Validated: 1
EndChar

StartChar: parenleft
Encoding: 40 40 131
Width: 934
Flags: W
HStem: -330 279<674.149 854> 1657 278<674.149 854>
VStem: 57 512<229.705 1375.57>
LayerCount: 2
Fore
SplineSet
57 803 m 256,0,1
 57 1068 57 1068 81.5 1254.5 c 128,-1,2
 106 1441 106 1441 153.5 1567 c 128,-1,3
 201 1693 201 1693 269.5 1766 c 128,-1,4
 338 1839 338 1839 426.5 1876.5 c 128,-1,5
 515 1914 515 1914 622.5 1924.5 c 128,-1,6
 730 1935 730 1935 854 1935 c 1,7,-1
 854 1657 l 1,8,9
 802 1657 802 1657 760.5 1652.5 c 128,-1,10
 719 1648 719 1648 687.5 1624 c 128,-1,11
 656 1600 656 1600 633.5 1548 c 128,-1,12
 611 1496 611 1496 596.5 1401 c 128,-1,13
 582 1306 582 1306 575.5 1160.5 c 128,-1,14
 569 1015 569 1015 569 803 c 256,15,16
 569 591 569 591 575.5 445.5 c 128,-1,17
 582 300 582 300 596.5 205 c 128,-1,18
 611 110 611 110 633.5 58 c 128,-1,19
 656 6 656 6 687.5 -18 c 128,-1,20
 719 -42 719 -42 760.5 -46.5 c 128,-1,21
 802 -51 802 -51 854 -51 c 1,22,-1
 854 -330 l 1,23,24
 730 -330 730 -330 622.5 -319.5 c 128,-1,25
 515 -309 515 -309 426.5 -271.5 c 128,-1,26
 338 -234 338 -234 269.5 -160.5 c 128,-1,27
 201 -87 201 -87 153.5 38.5 c 128,-1,28
 106 164 106 164 81.5 351 c 128,-1,29
 57 538 57 538 57 803 c 256,0,1
EndSplineSet
Validated: 1
EndChar

StartChar: parenright
Encoding: 41 41 132
Width: 934
Flags: W
HStem: -330 279<-61 118.851> 1657 278<-61 118.851>
VStem: 224 512<226.385 1379.61>
LayerCount: 2
Fore
SplineSet
736 803 m 256,0,1
 736 538 736 538 711.5 351 c 128,-1,2
 687 164 687 164 640 38.5 c 128,-1,3
 593 -87 593 -87 524 -160.5 c 128,-1,4
 455 -234 455 -234 366.5 -271.5 c 128,-1,5
 278 -309 278 -309 170.5 -319.5 c 128,-1,6
 63 -330 63 -330 -61 -330 c 1,7,-1
 -61 -51 l 1,8,9
 -9 -51 -9 -51 32.5 -46.5 c 128,-1,10
 74 -42 74 -42 105.5 -18 c 128,-1,11
 137 6 137 6 159.5 58 c 128,-1,12
 182 110 182 110 196.5 205 c 128,-1,13
 211 300 211 300 217.5 445.5 c 128,-1,14
 224 591 224 591 224 803 c 256,15,16
 224 1015 224 1015 217.5 1160.5 c 128,-1,17
 211 1306 211 1306 196.5 1401 c 128,-1,18
 182 1496 182 1496 159.5 1548 c 128,-1,19
 137 1600 137 1600 105.5 1624 c 128,-1,20
 74 1648 74 1648 32.5 1652.5 c 128,-1,21
 -9 1657 -9 1657 -61 1657 c 1,22,-1
 -61 1935 l 1,23,24
 63 1935 63 1935 170.5 1924.5 c 128,-1,25
 278 1914 278 1914 366.5 1876.5 c 128,-1,26
 455 1839 455 1839 524 1766 c 128,-1,27
 593 1693 593 1693 640 1567 c 128,-1,28
 687 1441 687 1441 711.5 1254.5 c 128,-1,29
 736 1068 736 1068 736 803 c 256,0,1
EndSplineSet
Validated: 1
EndChar

StartChar: asterisk
Encoding: 42 42 133
Width: 1343
Flags: W
HStem: 1581 20G<437.071 471.134 682.739 716.929>
LayerCount: 2
Fore
SplineSet
494 346 m 1,0,-1
 142 478 l 1,1,-1
 320 791 l 1,2,-1
 43 733 l 1,3,-1
 43 1164 l 1,4,-1
 320 1097 l 1,5,-1
 122 1347 l 1,6,-1
 464 1601 l 1,7,-1
 576 1287 l 1,8,-1
 690 1601 l 1,9,-1
 1032 1347 l 1,10,-1
 832 1097 l 1,11,-1
 1110 1164 l 1,12,-1
 1110 733 l 1,13,-1
 832 791 l 1,14,-1
 1011 478 l 1,15,-1
 660 346 l 1,16,-1
 576 647 l 1,17,-1
 494 346 l 1,0,-1
EndSplineSet
Validated: 1
EndChar

StartChar: plus
Encoding: 43 43 134
Width: 1343
Flags: W
HStem: 0 21G<354 800> 408 483<43 354 800 1111>
VStem: 354 446<0 408 891 1298>
LayerCount: 2
Fore
SplineSet
354 891 m 1,0,-1
 354 1298 l 1,1,-1
 800 1298 l 1,2,-1
 800 891 l 1,3,-1
 1111 891 l 1,4,-1
 1111 408 l 1,5,-1
 800 408 l 1,6,-1
 800 0 l 1,7,-1
 354 0 l 1,8,-1
 354 408 l 1,9,-1
 43 408 l 1,10,-1
 43 891 l 1,11,-1
 354 891 l 1,0,-1
EndSplineSet
Validated: 1
EndChar

StartChar: comma
Encoding: 44 44 135
Width: 727
Flags: W
HStem: -367 199<98 205.323>
VStem: 74 492<3.31689 487>
LayerCount: 2
Fore
SplineSet
98 -168 m 1,0,1
 150 -156 150 -156 191 -133 c 0,2,3
 209 -123 209 -123 225.5 -110.5 c 128,-1,4
 242 -98 242 -98 255.5 -81.5 c 128,-1,5
 269 -65 269 -65 277 -44.5 c 128,-1,6
 285 -24 285 -24 285 0 c 1,7,-1
 74 0 l 1,8,-1
 74 487 l 1,9,-1
 566 487 l 1,10,-1
 566 150 l 2,11,12
 566 -2 566 -2 534 -101.5 c 128,-1,13
 502 -201 502 -201 442 -260 c 128,-1,14
 382 -319 382 -319 295 -343 c 128,-1,15
 208 -367 208 -367 98 -367 c 1,16,-1
 98 -168 l 1,0,1
EndSplineSet
Validated: 1
EndChar

StartChar: hyphen
Encoding: 45 45 136
Width: 1006
Flags: W
HStem: 461 436<59 812>
LayerCount: 2
Fore
SplineSet
812 897 m 1,0,-1
 812 461 l 1,1,-1
 59 461 l 1,2,-1
 59 897 l 1,3,-1
 812 897 l 1,0,-1
EndSplineSet
Validated: 1
EndChar

StartChar: zero
Encoding: 48 48 138
Width: 1495
Flags: W
HStem: -39 276<555.797 788.093> 1358 275<555.797 788.093>
VStem: 57 497<237.083 1356.98> 790 497<237.083 1356.98>
LayerCount: 2
Fore
SplineSet
554 237 m 1,0,-1
 790 237 l 1,1,-1
 790 1358 l 1,2,-1
 554 1358 l 1,3,-1
 554 237 l 1,0,-1
676 -39 m 256,4,5
 529 -39 529 -39 426 -21 c 128,-1,6
 323 -3 323 -3 254 27 c 128,-1,7
 185 57 185 57 145.5 97 c 128,-1,8
 106 137 106 137 86.5 180 c 128,-1,9
 67 223 67 223 62 267.5 c 128,-1,10
 57 312 57 312 57 352 c 2,11,-1
 57 1242 l 2,12,13
 57 1282 57 1282 62 1326.5 c 128,-1,14
 67 1371 67 1371 86.5 1414.5 c 128,-1,15
 106 1458 106 1458 145.5 1497.5 c 128,-1,16
 185 1537 185 1537 254 1567 c 128,-1,17
 323 1597 323 1597 426 1615 c 128,-1,18
 529 1633 529 1633 676 1633 c 256,19,20
 823 1633 823 1633 925.5 1615 c 128,-1,21
 1028 1597 1028 1597 1096 1567 c 128,-1,22
 1164 1537 1164 1537 1202 1497.5 c 128,-1,23
 1240 1458 1240 1458 1259 1414.5 c 128,-1,24
 1278 1371 1278 1371 1282.5 1326.5 c 128,-1,25
 1287 1282 1287 1282 1287 1242 c 2,26,-1
 1287 352 l 2,27,28
 1287 312 1287 312 1282.5 267.5 c 128,-1,29
 1278 223 1278 223 1259 180 c 128,-1,30
 1240 137 1240 137 1202 97 c 128,-1,31
 1164 57 1164 57 1096 27 c 128,-1,32
 1028 -3 1028 -3 925.5 -21 c 128,-1,33
 823 -39 823 -39 676 -39 c 256,4,5
EndSplineSet
Validated: 1
EndChar

StartChar: one
Encoding: 49 49 139
Width: 989
Flags: W
HStem: 0 21G<265 762> 1200 184<16 196.195> 1575 20G<346.5 762>
VStem: 265 497<0 1200>
LayerCount: 2
Fore
SplineSet
762 1595 m 1,0,-1
 762 0 l 1,1,-1
 265 0 l 1,2,-1
 265 1200 l 1,3,-1
 16 1200 l 1,4,-1
 16 1384 l 1,5,6
 60 1384 60 1384 110.5 1396.5 c 128,-1,7
 161 1409 161 1409 208 1435 c 128,-1,8
 255 1461 255 1461 295 1501 c 128,-1,9
 335 1541 335 1541 358 1595 c 1,10,-1
 762 1595 l 1,0,-1
EndSplineSet
Validated: 1
EndChar

StartChar: two
Encoding: 50 50 140
Width: 1430
Flags: W
HStem: 0 300<560 1194> 1358 274<562.367 755.531>
VStem: 64 497<300 376.771 1064 1356.79> 757 497<1089.73 1356.69>
LayerCount: 2
Fore
SplineSet
64 1064 m 1,0,1
 64 1216 64 1216 94 1324 c 128,-1,2
 124 1432 124 1432 196 1500.5 c 128,-1,3
 268 1569 268 1569 388.5 1600.5 c 128,-1,4
 509 1632 509 1632 689 1632 c 0,5,6
 826 1632 826 1632 931.5 1603.5 c 128,-1,7
 1037 1575 1037 1575 1108.5 1515 c 128,-1,8
 1180 1455 1180 1455 1217 1362.5 c 128,-1,9
 1254 1270 1254 1270 1254 1143 c 0,10,11
 1254 1059 1254 1059 1224 984.5 c 128,-1,12
 1194 910 1194 910 1145.5 844 c 128,-1,13
 1097 778 1097 778 1034.5 720 c 128,-1,14
 972 662 972 662 907 610.5 c 128,-1,15
 842 559 842 559 779.5 515 c 128,-1,16
 717 471 717 471 668.5 432.5 c 128,-1,17
 620 394 620 394 590 361 c 128,-1,18
 560 328 560 328 560 300 c 1,19,-1
 1194 300 l 1,20,-1
 1194 0 l 1,21,-1
 64 0 l 1,22,-1
 64 222 l 2,23,24
 64 337 64 337 94 426 c 128,-1,25
 124 515 124 515 172.5 586 c 128,-1,26
 221 657 221 657 283.5 713 c 128,-1,27
 346 769 346 769 410.5 818 c 128,-1,28
 475 867 475 867 537.5 912.5 c 128,-1,29
 600 958 600 958 648.5 1007.5 c 128,-1,30
 697 1057 697 1057 727 1114.5 c 128,-1,31
 757 1172 757 1172 757 1244 c 2,32,-1
 757 1358 l 1,33,-1
 561 1358 l 1,34,-1
 561 1064 l 1,35,-1
 64 1064 l 1,0,1
EndSplineSet
Validated: 1
EndChar

StartChar: three
Encoding: 51 51 141
Width: 1458
Flags: W
HStem: -38 275<553.674 765.06> 708 224<473 766> 1358 277<553.674 765.06>
VStem: 54 497<248.789 614 1025 1355.14> 766 497<239.727 698.774 943.223 1357.48>
LayerCount: 2
Fore
SplineSet
54 1025 m 1,0,1
 54 1176 54 1176 76 1290.5 c 128,-1,2
 98 1405 98 1405 162 1481.5 c 128,-1,3
 226 1558 226 1558 343 1596.5 c 128,-1,4
 460 1635 460 1635 649 1635 c 0,5,6
 781 1635 781 1635 878 1616.5 c 128,-1,7
 975 1598 975 1598 1043.5 1564 c 128,-1,8
 1112 1530 1112 1530 1154.5 1482.5 c 128,-1,9
 1197 1435 1197 1435 1221.5 1377.5 c 128,-1,10
 1246 1320 1246 1320 1254.5 1254 c 128,-1,11
 1263 1188 1263 1188 1263 1117 c 0,12,13
 1263 1059 1263 1059 1249.5 1015 c 128,-1,14
 1236 971 1236 971 1215 938 c 128,-1,15
 1194 905 1194 905 1169.5 883 c 128,-1,16
 1145 861 1145 861 1124 847 c 128,-1,17
 1103 833 1103 833 1088 827 c 128,-1,18
 1073 821 1073 821 1072 820 c 1,19,20
 1073 819 1073 819 1088 813 c 128,-1,21
 1103 807 1103 807 1124 794 c 128,-1,22
 1145 781 1145 781 1169.5 759 c 128,-1,23
 1194 737 1194 737 1215 704 c 128,-1,24
 1236 671 1236 671 1249.5 626.5 c 128,-1,25
 1263 582 1263 582 1263 523 c 0,26,27
 1263 450 1263 450 1254.5 380 c 128,-1,28
 1246 310 1246 310 1221.5 247.5 c 128,-1,29
 1197 185 1197 185 1154.5 132.5 c 128,-1,30
 1112 80 1112 80 1043.5 42 c 128,-1,31
 975 4 975 4 878 -17 c 128,-1,32
 781 -38 781 -38 649 -38 c 0,33,34
 460 -38 460 -38 343 4.5 c 128,-1,35
 226 47 226 47 162 130 c 128,-1,36
 98 213 98 213 76 334.5 c 128,-1,37
 54 456 54 456 54 615 c 1,38,-1
 551 614 l 1,39,-1
 551 237 l 1,40,-1
 766 237 l 1,41,-1
 766 708 l 1,42,-1
 473 708 l 1,43,-1
 473 932 l 1,44,-1
 766 932 l 1,45,-1
 766 1358 l 1,46,-1
 551 1358 l 1,47,-1
 551 1025 l 1,48,-1
 54 1025 l 1,0,1
EndSplineSet
Validated: 1
EndChar

StartChar: four
Encoding: 52 52 142
Width: 1479
Flags: W
HStem: 0 21G<737 1234> 237 366<539 737> 1575 20G<304.307 803>
VStem: 737 497<0 237 603 938>
LayerCount: 2
Fore
SplineSet
1234 0 m 1,0,-1
 737 0 l 1,1,-1
 737 237 l 1,2,-1
 43 237 l 1,3,-1
 43 657 l 1,4,-1
 310 1595 l 1,5,-1
 803 1595 l 1,6,-1
 539 657 l 1,7,-1
 539 603 l 1,8,-1
 737 603 l 1,9,-1
 737 938 l 1,10,-1
 1234 938 l 1,11,-1
 1234 0 l 1,0,-1
EndSplineSet
Validated: 1
EndChar

StartChar: five
Encoding: 53 53 143
Width: 1438
Flags: W
HStem: -38 275<527.352 758.06> -0.5 474.5<218.625 521.999> 838 270<636.764 759> 1300 295<606 1177>
VStem: 26 497<237.272 474 655 743.077> 759 497<238.031 836.178>
LayerCount: 2
Fore
SplineSet
523 474 m 1,0,-1
 523 237 l 1,1,-1
 759 237 l 1,2,-1
 759 838 l 1,3,-1
 542 838 l 1,4,-1
 522 655 l 1,5,-1
 26 655 l 1,6,-1
 179 1595 l 1,7,-1
 1177 1595 l 1,8,-1
 1177 1300 l 1,9,-1
 606 1300 l 1,10,-1
 563 998 l 1,11,12
 580 1028 580 1028 618 1053 c 0,13,14
 650 1073 650 1073 707 1090.5 c 128,-1,15
 764 1108 764 1108 856 1108 c 0,16,17
 960 1108 960 1108 1035.5 1072 c 128,-1,18
 1111 1036 1111 1036 1160 966 c 128,-1,19
 1209 896 1209 896 1232.5 792.5 c 128,-1,20
 1256 689 1256 689 1256 553 c 0,21,22
 1256 454 1256 454 1247.5 371.5 c 128,-1,23
 1239 289 1239 289 1214.5 223.5 c 128,-1,24
 1190 158 1190 158 1147.5 109 c 128,-1,25
 1105 60 1105 60 1036.5 27.5 c 128,-1,26
 968 -5 968 -5 871 -21.5 c 128,-1,27
 774 -38 774 -38 642 -38 c 0,28,29
 447 -38 447 -38 326 -0.5 c 128,-1,30
 205 37 205 37 138.5 104.5 c 128,-1,31
 72 172 72 172 49 266 c 128,-1,32
 26 360 26 360 26 474 c 1,33,-1
 523 474 l 1,0,-1
EndSplineSet
Validated: 1
EndChar

StartChar: six
Encoding: 54 54 144
Width: 1462
Flags: W
HStem: -38 275<550.768 782.06> 798 270<549 780.389> 1358 274<551.253 781.541>
VStem: 52 497<238.022 798 1068 1338.88> 785 497<237.345 797.781>
LayerCount: 2
Fore
SplineSet
549 237 m 1,0,-1
 785 237 l 1,1,-1
 785 798 l 1,2,-1
 549 798 l 1,3,-1
 549 237 l 1,0,-1
666 -38 m 0,4,5
 535 -38 535 -38 438.5 -21 c 128,-1,6
 342 -4 342 -4 273.5 27.5 c 128,-1,7
 205 59 205 59 162 104.5 c 128,-1,8
 119 150 119 150 94.5 207 c 128,-1,9
 70 264 70 264 61 331.5 c 128,-1,10
 52 399 52 399 52 475 c 2,11,-1
 52 1055 l 2,12,13
 52 1122 52 1122 60 1190.5 c 128,-1,14
 68 1259 68 1259 91 1323 c 128,-1,15
 114 1387 114 1387 156 1443.5 c 128,-1,16
 198 1500 198 1500 266.5 1542 c 128,-1,17
 335 1584 335 1584 433 1608 c 128,-1,18
 531 1632 531 1632 666 1632 c 0,19,20
 808 1632 808 1632 904.5 1609 c 128,-1,21
 1001 1586 1001 1586 1063 1548 c 128,-1,22
 1125 1510 1125 1510 1157.5 1460.5 c 128,-1,23
 1190 1411 1190 1411 1204.5 1358.5 c 128,-1,24
 1219 1306 1219 1306 1220.5 1253.5 c 128,-1,25
 1222 1201 1222 1201 1222 1158 c 1,26,-1
 784 1158 l 1,27,-1
 784 1358 l 1,28,-1
 549 1358 l 1,29,-1
 549 1068 l 1,30,-1
 677 1068 l 2,31,32
 861 1068 861 1068 978.5 1037.5 c 128,-1,33
 1096 1007 1096 1007 1163.5 941.5 c 128,-1,34
 1231 876 1231 876 1256.5 772.5 c 128,-1,35
 1282 669 1282 669 1282 523 c 0,36,37
 1282 434 1282 434 1273 358 c 128,-1,38
 1264 282 1264 282 1239.5 219.5 c 128,-1,39
 1215 157 1215 157 1172 109 c 128,-1,40
 1129 61 1129 61 1060.5 28.5 c 128,-1,41
 992 -4 992 -4 895 -21 c 128,-1,42
 798 -38 798 -38 666 -38 c 0,4,5
EndSplineSet
Validated: 1
EndChar

StartChar: seven
Encoding: 55 55 145
Width: 1096
Flags: W
HStem: 0 21G<17 516.916> 1358 237<16 208>
LayerCount: 2
Fore
SplineSet
711 1595 m 1,0,-1
 711 1351 l 1,1,-1
 514 0 l 1,2,-1
 17 0 l 1,3,-1
 208 1358 l 1,4,-1
 16 1358 l 1,5,-1
 16 1595 l 1,6,-1
 711 1595 l 1,0,-1
EndSplineSet
Validated: 1
EndChar

StartChar: eight
Encoding: 56 56 146
Width: 1432
Flags: W
HStem: -41 277<520.94 753.06> 721 240<519 755> 1358 272<521.514 752.104>
VStem: 22 497<236.952 720.842> 41 478<961.748 1357.61> 755 497<236.987 697.663> 755 467<991.83 1357.61>
LayerCount: 2
Fore
SplineSet
637 1630 m 256,0,1
 775 1630 775 1630 883.5 1604.5 c 128,-1,2
 992 1579 992 1579 1067.5 1524.5 c 128,-1,3
 1143 1470 1143 1470 1182.5 1385 c 128,-1,4
 1222 1300 1222 1300 1222 1181 c 0,5,6
 1222 1127 1222 1127 1212.5 1085 c 128,-1,7
 1203 1043 1203 1043 1187.5 1011 c 128,-1,8
 1172 979 1172 979 1152.5 955.5 c 128,-1,9
 1133 932 1133 932 1112 916 c 0,10,11
 1064 878 1064 878 1002 865 c 1,12,13
 1072 852 1072 852 1127 805 c 0,14,15
 1150 785 1150 785 1172.5 756 c 128,-1,16
 1195 727 1195 727 1212.5 686.5 c 128,-1,17
 1230 646 1230 646 1241 592.5 c 128,-1,18
 1252 539 1252 539 1252 471 c 0,19,20
 1252 397 1252 397 1243 330 c 128,-1,21
 1234 263 1234 263 1210 206 c 128,-1,22
 1186 149 1186 149 1143 103.5 c 128,-1,23
 1100 58 1100 58 1031.5 25.5 c 128,-1,24
 963 -7 963 -7 866 -24 c 128,-1,25
 769 -41 769 -41 637 -41 c 256,26,27
 505 -41 505 -41 408 -24 c 128,-1,28
 311 -7 311 -7 242.5 25.5 c 128,-1,29
 174 58 174 58 131 103.5 c 128,-1,30
 88 149 88 149 64 206 c 128,-1,31
 40 263 40 263 31 329.5 c 128,-1,32
 22 396 22 396 22 471 c 0,33,34
 22 539 22 539 29 592.5 c 128,-1,35
 36 646 36 646 48 686.5 c 128,-1,36
 60 727 60 727 75 756 c 128,-1,37
 90 785 90 785 106 805 c 0,38,39
 143 852 143 852 191 865 c 1,40,41
 149 878 149 878 116 917 c 0,42,43
 102 933 102 933 88.5 956.5 c 128,-1,44
 75 980 75 980 64.5 1012.5 c 128,-1,45
 54 1045 54 1045 47.5 1086.5 c 128,-1,46
 41 1128 41 1128 41 1181 c 0,47,48
 41 1300 41 1300 82.5 1385 c 128,-1,49
 124 1470 124 1470 201 1524.5 c 128,-1,50
 278 1579 278 1579 388.5 1604.5 c 128,-1,51
 499 1630 499 1630 637 1630 c 256,0,1
519 1358 m 1,52,-1
 519 961 l 1,53,-1
 755 961 l 1,54,-1
 755 1358 l 1,55,-1
 519 1358 l 1,52,-1
519 236 m 1,56,-1
 755 236 l 1,57,-1
 755 721 l 1,58,-1
 519 721 l 1,59,-1
 519 236 l 1,56,-1
EndSplineSet
Validated: 1
EndChar

StartChar: nine
Encoding: 57 57 147
Width: 1464
Flags: W
HStem: -38 275<526.371 760.747> 526 270<526.445 762> 1358 274<526.219 761.232>
VStem: 29 497<796.219 1356.65> 72 454<237.141 436> 762 497<255.117 526 796 1357.84>
LayerCount: 2
Fore
SplineSet
762 1358 m 1,0,-1
 526 1358 l 1,1,-1
 526 796 l 1,2,-1
 762 796 l 1,3,-1
 762 1358 l 1,0,-1
646 1632 m 0,4,5
 777 1632 777 1632 873.5 1615 c 128,-1,6
 970 1598 970 1598 1038 1566.5 c 128,-1,7
 1106 1535 1106 1535 1149 1489.5 c 128,-1,8
 1192 1444 1192 1444 1216.5 1387 c 128,-1,9
 1241 1330 1241 1330 1250 1262.5 c 128,-1,10
 1259 1195 1259 1195 1259 1119 c 2,11,-1
 1259 539 l 2,12,13
 1259 472 1259 472 1251 403.5 c 128,-1,14
 1243 335 1243 335 1220 271 c 128,-1,15
 1197 207 1197 207 1155 150.5 c 128,-1,16
 1113 94 1113 94 1045 52 c 128,-1,17
 977 10 977 10 879 -14 c 128,-1,18
 781 -38 781 -38 646 -38 c 0,19,20
 499 -38 499 -38 399 -15 c 128,-1,21
 299 8 299 8 235 46 c 128,-1,22
 171 84 171 84 137 133.5 c 128,-1,23
 103 183 103 183 88.5 235.5 c 128,-1,24
 74 288 74 288 72 340 c 128,-1,25
 70 392 70 392 70 436 c 1,26,-1
 526 436 l 1,27,-1
 526 237 l 1,28,-1
 762 237 l 1,29,-1
 762 526 l 1,30,-1
 635 526 l 2,31,32
 451 526 451 526 333 556.5 c 128,-1,33
 215 587 215 587 147.5 652.5 c 128,-1,34
 80 718 80 718 54.5 821.5 c 128,-1,35
 29 925 29 925 29 1071 c 0,36,37
 29 1160 29 1160 38 1236 c 128,-1,38
 47 1312 47 1312 71.5 1374.5 c 128,-1,39
 96 1437 96 1437 139 1485 c 128,-1,40
 182 1533 182 1533 250.5 1565.5 c 128,-1,41
 319 1598 319 1598 416.5 1615 c 128,-1,42
 514 1632 514 1632 646 1632 c 0,4,5
EndSplineSet
Validated: 1
EndChar

StartChar: colon
Encoding: 58 58 148
Width: 741
Flags: W
HStem: 92 467<100 558> 1000 497<100 558>
VStem: 100 458<92 559 1000 1497>
LayerCount: 2
Fore
SplineSet
558 92 m 1,0,-1
 100 92 l 1,1,-1
 100 559 l 1,2,-1
 558 559 l 1,3,-1
 558 92 l 1,0,-1
558 1000 m 1,4,-1
 100 1000 l 1,5,-1
 100 1497 l 1,6,-1
 558 1497 l 1,7,-1
 558 1000 l 1,4,-1
EndSplineSet
Validated: 1
EndChar

StartChar: semicolon
Encoding: 59 59 149
Width: 774
Flags: W
HStem: -247 199<137 244.323> 1000 497<121 579>
VStem: 113 492<123.317 607> 121 458<1000 1497>
LayerCount: 2
Fore
SplineSet
579 1000 m 1,0,-1
 121 1000 l 1,1,-1
 121 1497 l 1,2,-1
 579 1497 l 1,3,-1
 579 1000 l 1,0,-1
137 -48 m 1,4,5
 189 -36 189 -36 230 -13 c 0,6,7
 248 -3 248 -3 264.5 9.5 c 128,-1,8
 281 22 281 22 294.5 38.5 c 128,-1,9
 308 55 308 55 316 75.5 c 128,-1,10
 324 96 324 96 324 120 c 1,11,-1
 113 120 l 1,12,-1
 113 607 l 1,13,-1
 605 607 l 1,14,-1
 605 270 l 2,15,16
 605 118 605 118 573 18.5 c 128,-1,17
 541 -81 541 -81 481 -140 c 128,-1,18
 421 -199 421 -199 334 -223 c 128,-1,19
 247 -247 247 -247 137 -247 c 1,20,-1
 137 -48 l 1,4,5
EndSplineSet
Validated: 1
EndChar

StartChar: less
Encoding: 60 60 150
Width: 1042
Flags: W
HStem: 0 21G<802.607 835> 1577 20G<803.257 835>
LayerCount: 2
Fore
SplineSet
43 1098 m 1,0,-1
 835 1597 l 1,1,-1
 835 1092 l 1,2,-1
 292 797 l 1,3,-1
 835 504 l 1,4,-1
 835 0 l 1,5,-1
 43 489 l 1,6,-1
 43 1098 l 1,0,-1
EndSplineSet
Validated: 1
EndChar

StartChar: equal
Encoding: 61 61 151
Width: 1026
Flags: W
HStem: 0 336<70 824> 561 336<70 824>
VStem: 70 754<0 336 561 897>
LayerCount: 2
Fore
SplineSet
824 336 m 1,0,-1
 824 0 l 1,1,-1
 70 0 l 1,2,-1
 70 336 l 1,3,-1
 824 336 l 1,0,-1
824 897 m 1,4,-1
 824 561 l 1,5,-1
 70 561 l 1,6,-1
 70 897 l 1,7,-1
 824 897 l 1,4,-1
EndSplineSet
Validated: 1
EndChar

StartChar: greater
Encoding: 62 62 152
Width: 1042
Flags: W
HStem: 0 21G<68 100.434> 1577 20G<68 99.7836>
LayerCount: 2
Fore
SplineSet
861 489 m 1,0,-1
 68 0 l 1,1,-1
 68 504 l 1,2,-1
 611 797 l 1,3,-1
 68 1092 l 1,4,-1
 68 1597 l 1,5,-1
 861 1098 l 1,6,-1
 861 489 l 1,0,-1
EndSplineSet
Validated: 1
EndChar

StartChar: at
Encoding: 64 64 153
Width: 2277
Flags: W
HStem: -394 375<657.441 1342.6> 637 195<952 1031.28> 1352 389<687.746 1337.49>
VStem: 43 382<239.888 1086.62> 529.5 422.5<332.166 635.992> 1036 394<332 637 784 1017.2> 1509.5 396.5<443.75 1159.47>
LayerCount: 2
Fore
SplineSet
1063 235 m 1,0,1
 1036 199 1036 199 1002 172 c 0,2,3
 973 148 973 148 930.5 128.5 c 128,-1,4
 888 109 888 109 834 109 c 0,5,6
 757 109 757 109 705 125.5 c 128,-1,7
 653 142 653 142 619 170 c 128,-1,8
 585 198 585 198 566.5 235.5 c 128,-1,9
 548 273 548 273 539.5 315 c 128,-1,10
 531 357 531 357 529.5 401.5 c 128,-1,11
 528 446 528 446 528 489 c 0,12,13
 528 522 528 522 529.5 560 c 128,-1,14
 531 598 531 598 539.5 636 c 128,-1,15
 548 674 548 674 566.5 709.5 c 128,-1,16
 585 745 585 745 619 772 c 128,-1,17
 653 799 653 799 705 815.5 c 128,-1,18
 757 832 757 832 834 832 c 0,19,20
 915 832 915 832 963.5 817 c 128,-1,21
 1012 802 1012 802 1036 784 c 1,22,-1
 1036 1018 l 1,23,-1
 983 1018 l 1,24,-1
 983 883 l 1,25,-1
 574 883 l 1,26,27
 574 922 574 922 573.5 964 c 128,-1,28
 573 1006 573 1006 581.5 1046 c 128,-1,29
 590 1086 590 1086 613.5 1122 c 128,-1,30
 637 1158 637 1158 684.5 1185.5 c 128,-1,31
 732 1213 732 1213 809.5 1229 c 128,-1,32
 887 1245 887 1245 1004 1245 c 0,33,34
 1103 1245 1103 1245 1173 1231 c 128,-1,35
 1243 1217 1243 1217 1290.5 1193.5 c 128,-1,36
 1338 1170 1338 1170 1366 1137.5 c 128,-1,37
 1394 1105 1394 1105 1408.5 1067.5 c 128,-1,38
 1423 1030 1423 1030 1427 990 c 128,-1,39
 1431 950 1431 950 1431 910 c 0,40,41
 1431 888 1431 888 1430.5 867.5 c 128,-1,42
 1430 847 1430 847 1430 827 c 2,43,-1
 1428 328 l 1,44,-1
 1510 328 l 1,45,46
 1510 458 1510 458 1509.5 580 c 128,-1,47
 1509 702 1509 702 1509 830 c 0,48,49
 1509 955 1509 955 1495 1042 c 128,-1,50
 1481 1129 1481 1129 1453.5 1187 c 128,-1,51
 1426 1245 1426 1245 1384.5 1278 c 128,-1,52
 1343 1311 1343 1311 1288.5 1327.5 c 128,-1,53
 1234 1344 1234 1344 1166 1348 c 128,-1,54
 1098 1352 1098 1352 1017 1352 c 0,55,56
 888 1352 888 1352 794.5 1335.5 c 128,-1,57
 701 1319 701 1319 635 1284.5 c 128,-1,58
 569 1250 569 1250 528 1196.5 c 128,-1,59
 487 1143 487 1143 464 1069.5 c 128,-1,60
 441 996 441 996 433 901.5 c 128,-1,61
 425 807 425 807 425 690 c 0,62,63
 425 523 425 523 437.5 405.5 c 128,-1,64
 450 288 450 288 480.5 209 c 128,-1,65
 511 130 511 130 560.5 84.5 c 128,-1,66
 610 39 610 39 684.5 16 c 128,-1,67
 759 -7 759 -7 860 -13 c 128,-1,68
 961 -19 961 -19 1093 -19 c 0,69,70
 1120 -19 1120 -19 1153 -17.5 c 128,-1,71
 1186 -16 1186 -16 1220.5 -13 c 128,-1,72
 1255 -10 1255 -10 1290.5 -6.5 c 128,-1,73
 1326 -3 1326 -3 1359 1 c 0,74,75
 1436 10 1436 10 1516 21 c 1,76,-1
 1569 -234 l 1,77,78
 1506 -279 1506 -279 1431 -314 c 0,79,80
 1367 -344 1367 -344 1281.5 -369 c 128,-1,81
 1196 -394 1196 -394 1097 -394 c 0,82,83
 917 -394 917 -394 768.5 -378 c 128,-1,84
 620 -362 620 -362 503 -319 c 128,-1,85
 386 -276 386 -276 299.5 -200 c 128,-1,86
 213 -124 213 -124 156 -3.5 c 128,-1,87
 99 117 99 117 71 286.5 c 128,-1,88
 43 456 43 456 43 687 c 0,89,90
 43 893 43 893 69 1051.5 c 128,-1,91
 95 1210 95 1210 148 1327 c 128,-1,92
 201 1444 201 1444 281 1523.5 c 128,-1,93
 361 1603 361 1603 469 1651 c 128,-1,94
 577 1699 577 1699 713 1720 c 128,-1,95
 849 1741 849 1741 1015 1741 c 0,96,97
 1191 1741 1191 1741 1325 1717.5 c 128,-1,98
 1459 1694 1459 1694 1558 1647 c 128,-1,99
 1657 1600 1657 1600 1723.5 1528.5 c 128,-1,100
 1790 1457 1790 1457 1830.5 1361 c 128,-1,101
 1871 1265 1871 1265 1888 1144.5 c 128,-1,102
 1905 1024 1905 1024 1906 878 c 0,103,104
 1906 643 1906 643 1873 490 c 128,-1,105
 1840 337 1840 337 1774.5 248 c 128,-1,106
 1709 159 1709 159 1610.5 123.5 c 128,-1,107
 1512 88 1512 88 1381 88 c 0,108,109
 1287 88 1287 88 1226 110.5 c 128,-1,110
 1165 133 1165 133 1129 161 c 0,111,112
 1087 194 1087 194 1063 235 c 1,0,1
952 637 m 1,113,-1
 952 332 l 1,114,-1
 1036 332 l 1,115,-1
 1036 637 l 1,116,-1
 952 637 l 1,113,-1
EndSplineSet
Validated: 33
EndChar

StartChar: quotedblbase
Encoding: 8222 8222 154
Width: 1255
Flags: W
HStem: -507 806<132 420 660 948>
VStem: 132 288<-507 -371.061> 660 288<-507 -371.061>
LayerCount: 2
Fore
SplineSet
420 -507 m 1,0,-1
 132 -507 l 1,1,-1
 47 299 l 1,2,-1
 505 299 l 1,3,-1
 420 -507 l 1,0,-1
948 -507 m 1,4,-1
 660 -507 l 1,5,-1
 575 299 l 1,6,-1
 1033 299 l 1,7,-1
 948 -507 l 1,4,-1
EndSplineSet
Validated: 1
EndChar

StartChar: ellipsis
Encoding: 8230 8230 155
Width: 2068
Flags: W
HStem: 0 467<74 532 662 1120 1249 1707>
VStem: 74 458<0 467> 662 458<0 467> 1249 458<0 467>
LayerCount: 2
Fore
SplineSet
532 0 m 1,0,-1
 74 0 l 1,1,-1
 74 467 l 1,2,-1
 532 467 l 1,3,-1
 532 0 l 1,0,-1
1120 0 m 1,4,-1
 662 0 l 1,5,-1
 662 467 l 1,6,-1
 1120 467 l 1,7,-1
 1120 0 l 1,4,-1
1707 0 m 1,8,-1
 1249 0 l 1,9,-1
 1249 467 l 1,10,-1
 1707 467 l 1,11,-1
 1707 0 l 1,8,-1
EndSplineSet
Validated: 1
EndChar

StartChar: dagger
Encoding: 8224 8224 156
Width: 1323
Flags: W
HStem: 0 21G<304 825> 900 400<41 304 825 1097> 1575 20G<317 825>
VStem: 304 521<0 900 1300 1595>
LayerCount: 2
Fore
SplineSet
825 0 m 1,0,-1
 304 0 l 1,1,-1
 304 900 l 1,2,-1
 41 900 l 1,3,-1
 41 1300 l 1,4,-1
 317 1300 l 1,5,-1
 317 1595 l 1,6,-1
 825 1595 l 1,7,-1
 825 1300 l 1,8,-1
 1097 1300 l 1,9,-1
 1097 900 l 1,10,-1
 825 900 l 1,11,-1
 825 0 l 1,0,-1
EndSplineSet
Validated: 1
EndChar

StartChar: daggerdbl
Encoding: 8225 8225 157
Width: 1352
Flags: W
HStem: 0 21G<319 839> 295 400<55 319 839 1111> 900 400<55 319 839 1111> 1575 20G<319 839>
VStem: 55 1056<295 695 900 1300> 319 520<0 295 695 900 1300 1595>
LayerCount: 2
Fore
SplineSet
839 695 m 1,0,-1
 1111 695 l 1,1,-1
 1111 295 l 1,2,-1
 839 295 l 1,3,-1
 839 0 l 1,4,-1
 319 0 l 1,5,-1
 319 295 l 1,6,-1
 55 295 l 1,7,-1
 55 695 l 1,8,-1
 319 695 l 1,9,-1
 319 900 l 1,10,-1
 55 900 l 1,11,-1
 55 1300 l 1,12,-1
 319 1300 l 1,13,-1
 319 1595 l 1,14,-1
 839 1595 l 1,15,-1
 839 1300 l 1,16,-1
 1111 1300 l 1,17,-1
 1111 900 l 1,18,-1
 839 900 l 1,19,-1
 839 695 l 1,0,-1
EndSplineSet
Validated: 1
EndChar

StartChar: circumflex
Encoding: 710 710 158
Width: 1706
Flags: W
HStem: 61 615<38 226 382 561>
LayerCount: 2
Fore
SplineSet
1084 676 m 1,0,-1
 1340 61 l 1,1,-1
 905 61 l 1,2,-1
 825 381 l 1,3,-1
 749 61 l 1,4,-1
 315 61 l 1,5,-1
 561 676 l 1,6,-1
 1084 676 l 1,0,-1
EndSplineSet
Validated: 1
EndChar

StartChar: perthousand
Encoding: 8240 8240 159
Width: 4059
Flags: W
HStem: -40 21G<849 1311.98> 75 215<1967.22 2046.13 2927.21 3006.11> 955 219<1967.22 2046.13 2927.21 3006.11>
VStem: 45 413<669.918 1333.91> 540 409<669.918 1333.91> 1555 412<290.842 954.788> 2048 409<290.842 954.788> 2513 413<290.842 954.788> 3008 408<290.842 954.788>
LayerCount: 2
Fore
SplineSet
1648 1670 m 1,0,-1
 1308 -40 l 1,1,-1
 849 -40 l 1,2,-1
 1193 1670 l 1,3,-1
 1648 1670 l 1,0,-1
3008 955 m 1,4,-1
 2926 955 l 1,5,-1
 2926 290 l 1,6,-1
 3008 290 l 1,7,-1
 3008 955 l 1,4,-1
2965 75 m 256,8,9
 2852 75 2852 75 2774.5 89 c 128,-1,10
 2697 103 2697 103 2647 127 c 128,-1,11
 2597 151 2597 151 2569.5 182 c 128,-1,12
 2542 213 2542 213 2529.5 248 c 128,-1,13
 2517 283 2517 283 2515 318.5 c 128,-1,14
 2513 354 2513 354 2513 386 c 2,15,-1
 2513 863 l 2,16,17
 2513 895 2513 895 2515 930.5 c 128,-1,18
 2517 966 2517 966 2529.5 1000.5 c 128,-1,19
 2542 1035 2542 1035 2569.5 1066.5 c 128,-1,20
 2597 1098 2597 1098 2647 1122 c 128,-1,21
 2697 1146 2697 1146 2774.5 1160 c 128,-1,22
 2852 1174 2852 1174 2965 1174 c 256,23,24
 3078 1174 3078 1174 3155 1160 c 128,-1,25
 3232 1146 3232 1146 3282 1122 c 128,-1,26
 3332 1098 3332 1098 3359.5 1066.5 c 128,-1,27
 3387 1035 3387 1035 3399.5 1000.5 c 128,-1,28
 3412 966 3412 966 3414 930.5 c 128,-1,29
 3416 895 3416 895 3416 863 c 2,30,-1
 3416 386 l 2,31,32
 3416 354 3416 354 3414 318.5 c 128,-1,33
 3412 283 3412 283 3399.5 248 c 128,-1,34
 3387 213 3387 213 3359.5 182 c 128,-1,35
 3332 151 3332 151 3282 127 c 128,-1,36
 3232 103 3232 103 3155 89 c 128,-1,37
 3078 75 3078 75 2965 75 c 256,8,9
2048 955 m 1,38,-1
 1967 955 l 1,39,-1
 1967 290 l 1,40,-1
 2048 290 l 1,41,-1
 2048 955 l 1,38,-1
2005 75 m 256,42,43
 1892 75 1892 75 1815 89 c 128,-1,44
 1738 103 1738 103 1688 127 c 128,-1,45
 1638 151 1638 151 1611 182 c 128,-1,46
 1584 213 1584 213 1571.5 248 c 128,-1,47
 1559 283 1559 283 1557 318.5 c 128,-1,48
 1555 354 1555 354 1555 386 c 2,49,-1
 1555 863 l 2,50,51
 1555 895 1555 895 1557 930.5 c 128,-1,52
 1559 966 1559 966 1571.5 1000.5 c 128,-1,53
 1584 1035 1584 1035 1611 1066.5 c 128,-1,54
 1638 1098 1638 1098 1688 1122 c 128,-1,55
 1738 1146 1738 1146 1815 1160 c 128,-1,56
 1892 1174 1892 1174 2005 1174 c 256,57,58
 2118 1174 2118 1174 2195.5 1160 c 128,-1,59
 2273 1146 2273 1146 2323 1122 c 128,-1,60
 2373 1098 2373 1098 2400.5 1066.5 c 128,-1,61
 2428 1035 2428 1035 2440.5 1000.5 c 128,-1,62
 2453 966 2453 966 2455 930.5 c 128,-1,63
 2457 895 2457 895 2457 863 c 2,64,-1
 2457 386 l 2,65,66
 2457 354 2457 354 2455 318.5 c 128,-1,67
 2453 283 2453 283 2440.5 248 c 128,-1,68
 2428 213 2428 213 2400.5 182 c 128,-1,69
 2373 151 2373 151 2323 127 c 128,-1,70
 2273 103 2273 103 2195.5 89 c 128,-1,71
 2118 75 2118 75 2005 75 c 256,42,43
540 1334 m 1,72,-1
 458 1334 l 1,73,-1
 458 669 l 1,74,-1
 540 669 l 1,75,-1
 540 1334 l 1,72,-1
497 454 m 256,76,77
 384 454 384 454 306.5 468 c 128,-1,78
 229 482 229 482 179 506 c 128,-1,79
 129 530 129 530 101.5 561.5 c 128,-1,80
 74 593 74 593 61.5 627.5 c 128,-1,81
 49 662 49 662 47 697.5 c 128,-1,82
 45 733 45 733 45 765 c 2,83,-1
 45 1244 l 2,84,85
 45 1276 45 1276 47 1311 c 128,-1,86
 49 1346 49 1346 61.5 1380.5 c 128,-1,87
 74 1415 74 1415 101.5 1446 c 128,-1,88
 129 1477 129 1477 179 1501 c 128,-1,89
 229 1525 229 1525 306.5 1539 c 128,-1,90
 384 1553 384 1553 497 1553 c 256,91,92
 610 1553 610 1553 687.5 1539 c 128,-1,93
 765 1525 765 1525 815 1501 c 128,-1,94
 865 1477 865 1477 892.5 1446 c 128,-1,95
 920 1415 920 1415 932.5 1380.5 c 128,-1,96
 945 1346 945 1346 947 1311 c 128,-1,97
 949 1276 949 1276 949 1244 c 2,98,-1
 949 765 l 2,99,100
 949 733 949 733 947 697.5 c 128,-1,101
 945 662 945 662 932.5 627.5 c 128,-1,102
 920 593 920 593 892.5 561.5 c 128,-1,103
 865 530 865 530 815 506 c 128,-1,104
 765 482 765 482 687.5 468 c 128,-1,105
 610 454 610 454 497 454 c 256,76,77
EndSplineSet
Validated: 1
EndChar

StartChar: quoteleft
Encoding: 8216 8216 161
Width: 711
Flags: W
HStem: 1436 199<424.616 535>
VStem: 66 492<781 1264.68>
LayerCount: 2
Fore
SplineSet
535 1436 m 1,0,1
 482 1424 482 1424 441 1401 c 0,2,3
 423 1391 423 1391 406.5 1378.5 c 128,-1,4
 390 1366 390 1366 377 1349.5 c 128,-1,5
 364 1333 364 1333 356 1312.5 c 128,-1,6
 348 1292 348 1292 348 1268 c 1,7,-1
 558 1268 l 1,8,-1
 558 781 l 1,9,-1
 66 781 l 1,10,-1
 66 1118 l 2,11,12
 66 1270 66 1270 98 1369.5 c 128,-1,13
 130 1469 130 1469 190.5 1528 c 128,-1,14
 251 1587 251 1587 338 1611 c 128,-1,15
 425 1635 425 1635 535 1635 c 1,16,-1
 535 1436 l 1,0,1
EndSplineSet
Validated: 1
EndChar

StartChar: quoteright
Encoding: 8217 8217 162
Width: 696
Flags: W
HStem: 749 199<90 197.323> 1583 20G<66 558>
VStem: 66 492<1119.32 1603>
LayerCount: 2
Fore
SplineSet
90 948 m 1,0,1
 142 960 142 960 183 983 c 0,2,3
 201 993 201 993 217.5 1005.5 c 128,-1,4
 234 1018 234 1018 247.5 1034.5 c 128,-1,5
 261 1051 261 1051 269 1071.5 c 128,-1,6
 277 1092 277 1092 277 1116 c 1,7,-1
 66 1116 l 1,8,-1
 66 1603 l 1,9,-1
 558 1603 l 1,10,-1
 558 1266 l 2,11,12
 558 1114 558 1114 526 1014.5 c 128,-1,13
 494 915 494 915 434 856 c 128,-1,14
 374 797 374 797 287 773 c 128,-1,15
 200 749 200 749 90 749 c 1,16,-1
 90 948 l 1,0,1
EndSplineSet
Validated: 1
EndChar

StartChar: quotedblleft
Encoding: 8220 8220 163
Width: 1366
Flags: W
HStem: 781 487<348 558 905 1117> 1436 199<424.616 535 981.757 1092>
VStem: 66 492<781 1264.68> 623 494<781 1264.68>
LayerCount: 2
Fore
SplineSet
535 1436 m 1,0,1
 482 1424 482 1424 441 1401 c 0,2,3
 423 1391 423 1391 406.5 1378.5 c 128,-1,4
 390 1366 390 1366 377 1349.5 c 128,-1,5
 364 1333 364 1333 356 1312.5 c 128,-1,6
 348 1292 348 1292 348 1268 c 1,7,-1
 558 1268 l 1,8,-1
 558 781 l 1,9,-1
 66 781 l 1,10,-1
 66 1118 l 2,11,12
 66 1270 66 1270 98 1369.5 c 128,-1,13
 130 1469 130 1469 190.5 1528 c 128,-1,14
 251 1587 251 1587 338 1611 c 128,-1,15
 425 1635 425 1635 535 1635 c 1,16,-1
 535 1436 l 1,0,1
1092 1436 m 1,17,18
 1039 1424 1039 1424 998 1401 c 0,19,20
 980 1391 980 1391 963.5 1378.5 c 128,-1,21
 947 1366 947 1366 934 1349.5 c 128,-1,22
 921 1333 921 1333 913 1312.5 c 128,-1,23
 905 1292 905 1292 905 1268 c 1,24,-1
 1117 1268 l 1,25,-1
 1117 781 l 1,26,-1
 623 781 l 1,27,-1
 623 1118 l 2,28,29
 623 1270 623 1270 655 1369.5 c 128,-1,30
 687 1469 687 1469 748 1528 c 128,-1,31
 809 1587 809 1587 895.5 1611 c 128,-1,32
 982 1635 982 1635 1092 1635 c 1,33,-1
 1092 1436 l 1,17,18
EndSplineSet
Validated: 1
EndChar

StartChar: quotedblright
Encoding: 8221 8221 164
Width: 1358
Flags: W
HStem: 749 199<90 197.323 651 758.323> 1116 487<66 277 627 838>
VStem: 66 492<1119.32 1603> 627 492<1119.32 1603>
LayerCount: 2
Fore
SplineSet
90 948 m 1,0,1
 142 960 142 960 183 983 c 0,2,3
 201 993 201 993 217.5 1005.5 c 128,-1,4
 234 1018 234 1018 247.5 1034.5 c 128,-1,5
 261 1051 261 1051 269 1071.5 c 128,-1,6
 277 1092 277 1092 277 1116 c 1,7,-1
 66 1116 l 1,8,-1
 66 1603 l 1,9,-1
 558 1603 l 1,10,-1
 558 1266 l 2,11,12
 558 1114 558 1114 526 1014.5 c 128,-1,13
 494 915 494 915 434 856 c 128,-1,14
 374 797 374 797 287 773 c 128,-1,15
 200 749 200 749 90 749 c 1,16,-1
 90 948 l 1,0,1
651 948 m 1,17,18
 703 960 703 960 744 983 c 0,19,20
 762 993 762 993 778.5 1005.5 c 128,-1,21
 795 1018 795 1018 808.5 1034.5 c 128,-1,22
 822 1051 822 1051 830 1071.5 c 128,-1,23
 838 1092 838 1092 838 1116 c 1,24,-1
 627 1116 l 1,25,-1
 627 1603 l 1,26,-1
 1119 1603 l 1,27,-1
 1119 1266 l 2,28,29
 1119 1114 1119 1114 1087 1014.5 c 128,-1,30
 1055 915 1055 915 995 856 c 128,-1,31
 935 797 935 797 848 773 c 128,-1,32
 761 749 761 749 651 749 c 1,33,-1
 651 948 l 1,17,18
EndSplineSet
Validated: 1
EndChar

StartChar: bullet
Encoding: 8226 8226 165
Width: 1155
Flags: W
VStem: 57 888<408.537 1042.37>
LayerCount: 2
Fore
SplineSet
945 726 m 256,0,1
 945 584 945 584 922.5 486 c 128,-1,2
 900 388 900 388 863.5 325 c 128,-1,3
 827 262 827 262 780.5 227.5 c 128,-1,4
 734 193 734 193 686.5 177 c 128,-1,5
 639 161 639 161 594 158.5 c 128,-1,6
 549 156 549 156 515 156 c 0,7,8
 468 156 468 156 415.5 159 c 128,-1,9
 363 162 363 162 312 178 c 128,-1,10
 261 194 261 194 215 228.5 c 128,-1,11
 169 263 169 263 134 326.5 c 128,-1,12
 99 390 99 390 78 487 c 128,-1,13
 57 584 57 584 57 726 c 0,14,15
 57 867 57 867 78 964 c 128,-1,16
 99 1061 99 1061 134 1124 c 128,-1,17
 169 1187 169 1187 215 1221.5 c 128,-1,18
 261 1256 261 1256 312 1272 c 128,-1,19
 363 1288 363 1288 415.5 1291 c 128,-1,20
 468 1294 468 1294 515 1294 c 0,21,22
 549 1294 549 1294 594 1291.5 c 128,-1,23
 639 1289 639 1289 686.5 1273 c 128,-1,24
 734 1257 734 1257 780.5 1223 c 128,-1,25
 827 1189 827 1189 863.5 1126 c 128,-1,26
 900 1063 900 1063 922.5 965.5 c 128,-1,27
 945 868 945 868 945 726 c 256,0,1
EndSplineSet
Validated: 1
EndChar

StartChar: endash
Encoding: 8211 8211 166
Width: 1006
Flags: W
HStem: 461 436<59 812>
LayerCount: 2
Fore
SplineSet
812 897 m 1,0,-1
 812 461 l 1,1,-1
 59 461 l 1,2,-1
 59 897 l 1,3,-1
 812 897 l 1,0,-1
EndSplineSet
Validated: 1
EndChar

StartChar: emdash
Encoding: 8212 8212 167
Width: 1911
Flags: W
HStem: 461 436<59 1583>
LayerCount: 2
Fore
SplineSet
1583 897 m 1,0,-1
 1583 461 l 1,1,-1
 59 461 l 1,2,-1
 59 897 l 1,3,-1
 1583 897 l 1,0,-1
EndSplineSet
Validated: 1
EndChar

StartChar: tilde
Encoding: 732 732 168
Width: 1288
Flags: W
HStem: 70 443<253.534 419.789> 260 446<663.753 823.026>
VStem: -41 268<536.076 681> 850 269<96 235.985>
LayerCount: 2
Fore
SplineSet
751 260 m 0,0,1
 726 260 726 260 704.5 246 c 128,-1,2
 683 232 683 232 658.5 211 c 128,-1,3
 634 190 634 190 605 165 c 128,-1,4
 576 140 576 140 537 119 c 128,-1,5
 498 98 498 98 446.5 84 c 128,-1,6
 395 70 395 70 326 70 c 0,7,8
 237 70 237 70 168.5 96 c 128,-1,9
 100 122 100 122 53.5 190 c 128,-1,10
 7 258 7 258 -17 376.5 c 128,-1,11
 -41 495 -41 495 -41 681 c 1,12,-1
 227 681 l 1,13,14
 227 648 227 648 232 617.5 c 128,-1,15
 237 587 237 587 249 564 c 128,-1,16
 261 541 261 541 280 527 c 128,-1,17
 299 513 299 513 328 513 c 0,18,19
 353 513 353 513 376.5 527.5 c 128,-1,20
 400 542 400 542 426.5 563 c 128,-1,21
 453 584 453 584 483.5 609.5 c 128,-1,22
 514 635 514 635 552.5 656 c 128,-1,23
 591 677 591 677 640 691.5 c 128,-1,24
 689 706 689 706 751 706 c 0,25,26
 840 706 840 706 909 680.5 c 128,-1,27
 978 655 978 655 1024.5 587 c 128,-1,28
 1071 519 1071 519 1095 400.5 c 128,-1,29
 1119 282 1119 282 1119 96 c 1,30,-1
 850 96 l 1,31,32
 850 124 850 124 845 153 c 128,-1,33
 840 182 840 182 828.5 206 c 128,-1,34
 817 230 817 230 798 245 c 128,-1,35
 779 260 779 260 751 260 c 0,0,1
EndSplineSet
Validated: 1
EndChar

StartChar: trademark
Encoding: 8482 8482 169
Width: 1974
Flags: W
HStem: 657 938<183 520 707 1043 1279 1614> 1453 142<37 183 520 668>
VStem: 183 337<657 1453> 707 336<657 951> 1113 94<657 715.539> 1279 335<657 951>
LayerCount: 2
Fore
SplineSet
668 1595 m 1,0,-1
 668 1453 l 1,1,-1
 520 1453 l 1,2,-1
 520 657 l 1,3,-1
 183 657 l 1,4,-1
 183 1453 l 1,5,-1
 37 1453 l 1,6,-1
 37 1595 l 1,7,-1
 668 1595 l 1,0,-1
1113 657 m 1,8,-1
 1043 951 l 1,9,-1
 1043 657 l 1,10,-1
 707 657 l 1,11,-1
 707 1595 l 1,12,-1
 1100 1595 l 1,13,-1
 1162 1158 l 1,14,-1
 1215 1595 l 1,15,-1
 1614 1595 l 1,16,-1
 1614 657 l 1,17,-1
 1279 657 l 1,18,-1
 1279 951 l 1,19,-1
 1207 657 l 1,20,-1
 1113 657 l 1,8,-1
EndSplineSet
Validated: 1
EndChar

StartChar: guilsinglright
Encoding: 8250 8250 171
Width: 1051
Flags: W
HStem: 0 21G<74 106.434> 1577 20G<74 105.784>
LayerCount: 2
Fore
SplineSet
867 489 m 1,0,-1
 74 0 l 1,1,-1
 74 504 l 1,2,-1
 617 797 l 1,3,-1
 74 1092 l 1,4,-1
 74 1597 l 1,5,-1
 867 1098 l 1,6,-1
 867 489 l 1,0,-1
EndSplineSet
Validated: 1
EndChar

StartChar: cent
Encoding: 162 162 175
Width: 1430
Flags: W
HStem: 1689 20G<399 828>
VStem: 45 516<319.492 1156.58> 399 429<-304 86.6471 1389.84 1709> 663 519<319.875 645 866 1156.95>
LayerCount: 2
Fore
SplineSet
399 79 m 1,0,1
 311 92 311 92 250 115.5 c 128,-1,2
 189 139 189 139 150 170 c 128,-1,3
 111 201 111 201 89.5 236.5 c 128,-1,4
 68 272 68 272 58 310 c 128,-1,5
 48 348 48 348 46.5 385.5 c 128,-1,6
 45 423 45 423 45 457 c 2,7,-1
 45 1022 l 2,8,9
 45 1055 45 1055 46.5 1092.5 c 128,-1,10
 48 1130 48 1130 58 1167 c 128,-1,11
 68 1204 68 1204 89.5 1240 c 128,-1,12
 111 1276 111 1276 150 1306.5 c 128,-1,13
 189 1337 189 1337 249.5 1360.5 c 128,-1,14
 310 1384 310 1384 399 1397 c 1,15,-1
 399 1709 l 1,16,-1
 828 1709 l 1,17,-1
 828 1397 l 1,18,19
 917 1384 917 1384 978 1360.5 c 128,-1,20
 1039 1337 1039 1337 1078.5 1306.5 c 128,-1,21
 1118 1276 1118 1276 1139 1240.5 c 128,-1,22
 1160 1205 1160 1205 1169.5 1167.5 c 128,-1,23
 1179 1130 1179 1130 1180.5 1092.5 c 128,-1,24
 1182 1055 1182 1055 1182 1022 c 2,25,-1
 1180 866 l 1,26,-1
 663 866 l 1,27,-1
 663 1157 l 1,28,-1
 561 1157 l 1,29,-1
 561 319 l 1,30,-1
 663 319 l 1,31,-1
 663 645 l 1,32,-1
 1182 645 l 1,33,-1
 1182 457 l 2,34,35
 1182 423 1182 423 1180.5 385.5 c 128,-1,36
 1179 348 1179 348 1169 310.5 c 128,-1,37
 1159 273 1159 273 1137.5 237 c 128,-1,38
 1116 201 1116 201 1077 170 c 128,-1,39
 1038 139 1038 139 977 115.5 c 128,-1,40
 916 92 916 92 828 79 c 1,41,-1
 828 -304 l 1,42,-1
 399 -304 l 1,43,-1
 399 79 l 1,0,1
EndSplineSet
Validated: 1
EndChar

StartChar: sterling
Encoding: 163 163 176
Width: 1642
Flags: W
HStem: 718 222<45 188 720 1105>
VStem: 188 532<297.651 718 940 1362.53>
LayerCount: 2
Fore
SplineSet
1105 718 m 1,0,-1
 720 718 l 1,1,-1
 720 268 l 1,2,-1
 835 268 l 1,3,-1
 835 562 l 1,4,-1
 1360 562 l 1,5,-1
 1360 385 l 2,6,7
 1360 345 1360 345 1358 301 c 128,-1,8
 1356 257 1356 257 1345 214 c 128,-1,9
 1334 171 1334 171 1310.5 132.5 c 128,-1,10
 1287 94 1287 94 1244 64.5 c 128,-1,11
 1201 35 1201 35 1134.5 17.5 c 128,-1,12
 1068 0 1068 0 971 0 c 0,13,14
 897 0 897 0 849 14.5 c 128,-1,15
 801 29 801 29 769.5 49 c 128,-1,16
 738 69 738 69 719 91.5 c 128,-1,17
 700 114 700 114 685 130 c 1,18,19
 657 98 657 98 632 75.5 c 128,-1,20
 607 53 607 53 576 38.5 c 128,-1,21
 545 24 545 24 502.5 16 c 128,-1,22
 460 8 460 8 398 4.5 c 128,-1,23
 336 1 336 1 250 0.5 c 128,-1,24
 164 0 164 0 45 0 c 1,25,-1
 45 265 l 1,26,27
 84 270 84 270 116 283 c 0,28,29
 143 294 143 294 165.5 315.5 c 128,-1,30
 188 337 188 337 188 375 c 2,31,-1
 188 718 l 1,32,-1
 45 718 l 1,33,-1
 45 940 l 1,34,-1
 188 940 l 1,35,-1
 188 1064 l 2,36,37
 188 1172 188 1172 196 1256.5 c 128,-1,38
 204 1341 204 1341 226.5 1404 c 128,-1,39
 249 1467 249 1467 290 1510.5 c 128,-1,40
 331 1554 331 1554 397.5 1581 c 128,-1,41
 464 1608 464 1608 559 1620 c 128,-1,42
 654 1632 654 1632 785 1632 c 0,43,44
 922 1632 922 1632 1017 1614.5 c 128,-1,45
 1112 1597 1112 1597 1173.5 1567.5 c 128,-1,46
 1235 1538 1235 1538 1269 1499.5 c 128,-1,47
 1303 1461 1303 1461 1319.5 1418 c 128,-1,48
 1336 1375 1336 1375 1339 1331 c 128,-1,49
 1342 1287 1342 1287 1342 1247 c 2,50,-1
 1342 1070 l 1,51,-1
 816 1070 l 1,52,-1
 816 1364 l 1,53,-1
 720 1364 l 1,54,-1
 720 940 l 1,55,-1
 1105 940 l 1,56,-1
 1105 718 l 1,0,-1
EndSplineSet
Validated: 1
EndChar

StartChar: currency
Encoding: 164 164 177
Width: 1446
Flags: W
HStem: 1323 20G<567 677.5>
VStem: 55.5 514.5<570.014 1067.51> 671 519<569.959 1067.59>
LayerCount: 2
Fore
SplineSet
286 1286 m 1,0,1
 346 1312 346 1312 428.5 1327.5 c 128,-1,2
 511 1343 511 1343 623 1343 c 0,3,4
 732 1343 732 1343 813.5 1328 c 128,-1,5
 895 1313 895 1313 956 1287 c 1,6,-1
 1061 1414 l 1,7,-1
 1134 1330 l 1,8,-1
 1052 1231 l 1,9,10
 1104 1189 1104 1189 1132 1136.5 c 128,-1,11
 1160 1084 1160 1084 1173 1027.5 c 128,-1,12
 1186 971 1186 971 1188 913.5 c 128,-1,13
 1190 856 1190 856 1190 804 c 0,14,15
 1190 765 1190 765 1187.5 712.5 c 128,-1,16
 1185 660 1185 660 1169.5 604.5 c 128,-1,17
 1154 549 1154 549 1121 495 c 128,-1,18
 1088 441 1088 441 1027 398 c 1,19,-1
 1134 272 l 1,20,-1
 1061 188 l 1,21,-1
 929 346 l 1,22,23
 870 324 870 324 795 311.5 c 128,-1,24
 720 299 720 299 623 299 c 0,25,26
 524 299 524 299 447 312 c 128,-1,27
 370 325 370 325 313 348 c 1,28,-1
 179 188 l 1,29,-1
 107 272 l 1,30,-1
 214 400 l 1,31,32
 154 443 154 443 121 497 c 128,-1,33
 88 551 88 551 73 606 c 128,-1,34
 58 661 58 661 55.5 713 c 128,-1,35
 53 765 53 765 53 804 c 0,36,37
 53 856 53 856 55 913 c 128,-1,38
 57 970 57 970 70 1026 c 128,-1,39
 83 1082 83 1082 111 1134.5 c 128,-1,40
 139 1187 139 1187 190 1229 c 1,41,-1
 107 1330 l 1,42,-1
 179 1414 l 1,43,-1
 286 1286 l 1,0,1
570 569 m 1,44,-1
 671 569 l 1,45,-1
 671 1069 l 1,46,-1
 570 1069 l 1,47,-1
 570 569 l 1,44,-1
EndSplineSet
Validated: 1
EndChar

StartChar: yen
Encoding: 165 165 178
Width: 1665
Flags: W
HStem: 0 21G<425 997> 299 143<127 425 997 1301> 585 143<127 332 1095 1301> 1575 20G<29 548.084 877.734 1396>
LayerCount: 2
Fore
SplineSet
425 442 m 1,0,-1
 425 459 l 1,1,-1
 381 585 l 1,2,-1
 127 585 l 1,3,-1
 127 728 l 1,4,-1
 332 728 l 1,5,-1
 29 1595 l 1,6,-1
 543 1595 l 1,7,-1
 710 938 l 1,8,-1
 883 1595 l 1,9,-1
 1396 1595 l 1,10,-1
 1095 728 l 1,11,-1
 1301 728 l 1,12,-1
 1301 585 l 1,13,-1
 1045 585 l 1,14,-1
 997 449 l 1,15,-1
 997 442 l 1,16,-1
 1301 442 l 1,17,-1
 1301 299 l 1,18,-1
 997 299 l 1,19,-1
 997 0 l 1,20,-1
 425 0 l 1,21,-1
 425 299 l 1,22,-1
 127 299 l 1,23,-1
 127 442 l 1,24,-1
 425 442 l 1,0,-1
EndSplineSet
Validated: 1
EndChar

StartChar: brokenbar
Encoding: 166 166 179
Width: 864
Flags: W
VStem: 94 574<-255 656 797 1708>
LayerCount: 2
Fore
SplineSet
668 656 m 1,0,-1
 668 -255 l 1,1,-1
 94 -255 l 1,2,-1
 94 656 l 1,3,-1
 668 656 l 1,0,-1
668 1708 m 1,4,-1
 668 797 l 1,5,-1
 94 797 l 1,6,-1
 94 1708 l 1,7,-1
 668 1708 l 1,4,-1
EndSplineSet
Validated: 1
EndChar

StartChar: section
Encoding: 167 167 180
Width: 1401
Flags: W
VStem: 62 499<235.195 426 751.625 960.008> 627 514<235.184 492.823> 635 521<788.23 972.44 1307 1497.8>
LayerCount: 2
Fore
SplineSet
66 1331 m 0,0,1
 66 1395 66 1395 72 1452.5 c 128,-1,2
 78 1510 78 1510 98 1559 c 128,-1,3
 118 1608 118 1608 155 1647.5 c 128,-1,4
 192 1687 192 1687 253.5 1714.5 c 128,-1,5
 315 1742 315 1742 405.5 1757 c 128,-1,6
 496 1772 496 1772 622 1772 c 0,7,8
 744 1772 744 1772 830.5 1759.5 c 128,-1,9
 917 1747 917 1747 975 1724 c 128,-1,10
 1033 1701 1033 1701 1067 1668.5 c 128,-1,11
 1101 1636 1101 1636 1118.5 1596 c 128,-1,12
 1136 1556 1136 1556 1141 1509.5 c 128,-1,13
 1146 1463 1146 1463 1146 1412 c 0,14,15
 1146 1386 1146 1386 1145.5 1360 c 128,-1,16
 1145 1334 1145 1334 1145 1307 c 1,17,-1
 646 1307 l 1,18,-1
 646 1498 l 1,19,-1
 580 1498 l 1,20,-1
 580 1249 l 1,21,22
 588 1240 588 1240 617 1237 c 128,-1,23
 646 1234 646 1234 688 1232 c 128,-1,24
 730 1230 730 1230 781 1227.5 c 128,-1,25
 832 1225 832 1225 884 1216 c 128,-1,26
 936 1207 936 1207 985 1189.5 c 128,-1,27
 1034 1172 1034 1172 1072 1141.5 c 128,-1,28
 1110 1111 1110 1111 1133 1064 c 128,-1,29
 1156 1017 1156 1017 1156 950 c 0,30,31
 1156 895 1156 895 1142.5 854.5 c 128,-1,32
 1129 814 1129 814 1108.5 784.5 c 128,-1,33
 1088 755 1088 755 1064 736.5 c 128,-1,34
 1040 718 1040 718 1018.5 707 c 128,-1,35
 997 696 997 696 982 691 c 128,-1,36
 967 686 967 686 965 686 c 1,37,38
 967 685 967 685 981 679.5 c 128,-1,39
 995 674 995 674 1014.5 661.5 c 128,-1,40
 1034 649 1034 649 1056 628 c 128,-1,41
 1078 607 1078 607 1097 575.5 c 128,-1,42
 1116 544 1116 544 1128.5 501 c 128,-1,43
 1141 458 1141 458 1141 402 c 0,44,45
 1141 338 1141 338 1135 280.5 c 128,-1,46
 1129 223 1129 223 1109 174 c 128,-1,47
 1089 125 1089 125 1052.5 85.5 c 128,-1,48
 1016 46 1016 46 954 18.5 c 128,-1,49
 892 -9 892 -9 802 -24 c 128,-1,50
 712 -39 712 -39 586 -39 c 0,51,52
 464 -39 464 -39 377.5 -26.5 c 128,-1,53
 291 -14 291 -14 233 9 c 128,-1,54
 175 32 175 32 141 64.5 c 128,-1,55
 107 97 107 97 89.5 137 c 128,-1,56
 72 177 72 177 67 223.5 c 128,-1,57
 62 270 62 270 62 321 c 0,58,59
 62 347 62 347 62.5 373 c 128,-1,60
 63 399 63 399 63 426 c 1,61,-1
 561 426 l 1,62,-1
 561 235 l 1,63,-1
 627 235 l 1,64,-1
 627 484 l 1,65,66
 621 493 621 493 585 493 c 0,67,68
 552 493 552 493 503 488.5 c 128,-1,69
 454 484 454 484 396 484 c 0,70,71
 356 484 356 484 314.5 488 c 128,-1,72
 273 492 273 492 235 504 c 128,-1,73
 197 516 197 516 163.5 537 c 128,-1,74
 130 558 130 558 105 591 c 128,-1,75
 80 624 80 624 65.5 671 c 128,-1,76
 51 718 51 718 51 783 c 0,77,78
 51 834 51 834 63.5 873.5 c 128,-1,79
 76 913 76 913 94.5 942 c 128,-1,80
 113 971 113 971 135 990.5 c 128,-1,81
 157 1010 157 1010 176.5 1022 c 128,-1,82
 196 1034 196 1034 209.5 1039.5 c 128,-1,83
 223 1045 223 1045 225 1046 c 1,84,85
 222 1047 222 1047 197 1061.5 c 128,-1,86
 172 1076 172 1076 143 1109 c 128,-1,87
 114 1142 114 1142 90 1196.5 c 128,-1,88
 66 1251 66 1251 66 1331 c 0,0,1
635 750 m 1,89,-1
 635 973 l 1,90,-1
 573 973 l 1,91,-1
 573 750 l 1,92,-1
 635 750 l 1,89,-1
EndSplineSet
Validated: 1
EndChar

StartChar: dieresis
Encoding: 168 168 181
Width: 774
Flags: W
HStem: 82 336<-209 198 409 816>
VStem: -209 407<82 418> 409 407<82 418>
LayerCount: 2
Fore
SplineSet
198 418 m 1,0,-1
 198 82 l 1,1,-1
 -209 82 l 1,2,-1
 -209 418 l 1,3,-1
 198 418 l 1,0,-1
816 418 m 1,4,-1
 816 82 l 1,5,-1
 409 82 l 1,6,-1
 409 418 l 1,7,-1
 816 418 l 1,4,-1
EndSplineSet
Validated: 1
EndChar

StartChar: copyright
Encoding: 169 169 182
Width: 1911
Flags: W
HStem: -102 171<505.61 1131.86> 215 160<769.407 836.416> 1274 160<769.156 836.416> 1573 176<503.683 1134.63>
VStem: 51 218<263.602 1380.51> 416 352<375.133 1273.86> 839 350<375.387 752 915 1273.92> 1370 216<265.81 1378.43>
LayerCount: 2
Fore
SplineSet
819 -102 m 0,0,1
 673 -102 673 -102 563 -81.5 c 128,-1,2
 453 -61 453 -61 371.5 -26.5 c 128,-1,3
 290 8 290 8 235 54 c 128,-1,4
 180 100 180 100 144 152 c 128,-1,5
 108 204 108 204 89 258.5 c 128,-1,6
 70 313 70 313 61.5 364 c 128,-1,7
 53 415 53 415 52 460.5 c 128,-1,8
 51 506 51 506 51 539 c 2,9,-1
 51 1116 l 2,10,11
 51 1160 51 1160 54 1224 c 128,-1,12
 57 1288 57 1288 77.5 1358.5 c 128,-1,13
 98 1429 98 1429 144 1498.5 c 128,-1,14
 190 1568 190 1568 275 1624 c 128,-1,15
 360 1680 360 1680 492.5 1714.5 c 128,-1,16
 625 1749 625 1749 819 1749 c 0,17,18
 964 1749 964 1749 1074.5 1729 c 128,-1,19
 1185 1709 1185 1709 1266 1675 c 128,-1,20
 1347 1641 1347 1641 1402.5 1595.5 c 128,-1,21
 1458 1550 1458 1550 1493.5 1498.5 c 128,-1,22
 1529 1447 1529 1447 1548 1393.5 c 128,-1,23
 1567 1340 1567 1340 1575.5 1289 c 128,-1,24
 1584 1238 1584 1238 1585 1193.5 c 128,-1,25
 1586 1149 1586 1149 1586 1116 c 2,26,-1
 1586 539 l 2,27,28
 1586 506 1586 506 1585 460.5 c 128,-1,29
 1584 415 1584 415 1575.5 364 c 128,-1,30
 1567 313 1567 313 1548 258.5 c 128,-1,31
 1529 204 1529 204 1493.5 152 c 128,-1,32
 1458 100 1458 100 1402.5 54 c 128,-1,33
 1347 8 1347 8 1266 -26.5 c 128,-1,34
 1185 -61 1185 -61 1074.5 -81.5 c 128,-1,35
 964 -102 964 -102 819 -102 c 0,0,1
819 69 m 256,36,37
 950 69 950 69 1041.5 88.5 c 128,-1,38
 1133 108 1133 108 1194.5 140.5 c 128,-1,39
 1256 173 1256 173 1291 215.5 c 128,-1,40
 1326 258 1326 258 1343.5 304 c 128,-1,41
 1361 350 1361 350 1365.5 396 c 128,-1,42
 1370 442 1370 442 1370 482 c 2,43,-1
 1370 1165 l 2,44,45
 1370 1205 1370 1205 1365.5 1250.5 c 128,-1,46
 1361 1296 1361 1296 1343.5 1341 c 128,-1,47
 1326 1386 1326 1386 1291 1428 c 128,-1,48
 1256 1470 1256 1470 1194.5 1502.5 c 128,-1,49
 1133 1535 1133 1535 1041.5 1554 c 128,-1,50
 950 1573 950 1573 819 1573 c 256,51,52
 688 1573 688 1573 596 1554 c 128,-1,53
 504 1535 504 1535 443 1502.5 c 128,-1,54
 382 1470 382 1470 347 1428 c 128,-1,55
 312 1386 312 1386 294.5 1341 c 128,-1,56
 277 1296 277 1296 272.5 1250 c 128,-1,57
 268 1204 268 1204 268 1165 c 0,58,59
 268 1151 268 1151 269 1138 c 128,-1,60
 270 1125 270 1125 269 1113 c 2,61,-1
 269 534 l 2,62,63
 269 522 269 522 268.5 509 c 128,-1,64
 268 496 268 496 268 482 c 0,65,66
 268 442 268 442 272.5 396 c 128,-1,67
 277 350 277 350 294.5 304 c 128,-1,68
 312 258 312 258 347 215.5 c 128,-1,69
 382 173 382 173 443 140.5 c 128,-1,70
 504 108 504 108 596 88.5 c 128,-1,71
 688 69 688 69 819 69 c 256,36,37
768 375 m 1,72,-1
 839 375 l 1,73,-1
 839 752 l 1,74,-1
 1189 752 l 1,75,-1
 1189 485 l 2,76,77
 1189 457 1189 457 1187 426.5 c 128,-1,78
 1185 396 1185 396 1174 366 c 128,-1,79
 1163 336 1163 336 1139.5 308.5 c 128,-1,80
 1116 281 1116 281 1072 260.5 c 128,-1,81
 1028 240 1028 240 960.5 227.5 c 128,-1,82
 893 215 893 215 795 215 c 0,83,84
 702 215 702 215 637.5 227.5 c 128,-1,85
 573 240 573 240 530.5 261 c 128,-1,86
 488 282 488 282 465 309.5 c 128,-1,87
 442 337 442 337 431 367.5 c 128,-1,88
 420 398 420 398 418 429 c 128,-1,89
 416 460 416 460 416 489 c 2,90,-1
 416 1159 l 2,91,92
 416 1188 416 1188 418 1219.5 c 128,-1,93
 420 1251 420 1251 431 1281.5 c 128,-1,94
 442 1312 442 1312 465 1339.5 c 128,-1,95
 488 1367 488 1367 530.5 1388 c 128,-1,96
 573 1409 573 1409 637 1421.5 c 128,-1,97
 701 1434 701 1434 795 1434 c 0,98,99
 893 1434 893 1434 960.5 1421.5 c 128,-1,100
 1028 1409 1028 1409 1072 1388.5 c 128,-1,101
 1116 1368 1116 1368 1139.5 1340.5 c 128,-1,102
 1163 1313 1163 1313 1174 1282.5 c 128,-1,103
 1185 1252 1185 1252 1187 1221.5 c 128,-1,104
 1189 1191 1189 1191 1189 1163 c 2,105,-1
 1189 915 l 1,106,-1
 839 915 l 1,107,-1
 839 1274 l 1,108,-1
 768 1274 l 1,109,-1
 768 375 l 1,72,-1
EndSplineSet
Validated: 1
EndChar

StartChar: guillemotleft
Encoding: 171 171 184
Width: 1870
Flags: W
HStem: 0 21G<721.084 750 1503.08 1532> 1577 20G<721.663 750 1503.66 1532>
LayerCount: 2
Fore
SplineSet
43 1098 m 1,0,-1
 750 1597 l 1,1,-1
 750 1092 l 1,2,-1
 292 797 l 1,3,-1
 750 504 l 1,4,-1
 750 0 l 1,5,-1
 43 489 l 1,6,-1
 43 1098 l 1,0,-1
825 1098 m 1,7,-1
 1532 1597 l 1,8,-1
 1532 1092 l 1,9,-1
 1074 797 l 1,10,-1
 1532 504 l 1,11,-1
 1532 0 l 1,12,-1
 825 489 l 1,13,-1
 825 1098 l 1,7,-1
EndSplineSet
Validated: 1
EndChar

StartChar: logicalnot
Encoding: 172 172 185
Width: 1313
Flags: W
HStem: 641 676<53 837>
VStem: 837 207<278 641>
LayerCount: 2
Fore
SplineSet
1044 278 m 1,0,-1
 837 278 l 1,1,-1
 837 641 l 1,2,-1
 53 641 l 1,3,-1
 53 1317 l 1,4,-1
 1044 1317 l 1,5,-1
 1044 278 l 1,0,-1
EndSplineSet
Validated: 1
EndChar

StartChar: minus
Encoding: 8722 8722 186
Width: 1012
Flags: W
HStem: 461 436<61 814>
LayerCount: 2
Fore
SplineSet
814 897 m 1,0,-1
 814 461 l 1,1,-1
 61 461 l 1,2,-1
 61 897 l 1,3,-1
 814 897 l 1,0,-1
EndSplineSet
Validated: 1
EndChar

StartChar: registered
Encoding: 174 174 187
Width: 1911
Flags: W
HStem: -102 171<505.61 1131.86> 756 159<786 861> 1274 160<786 860.094> 1573 176<503.683 1134.63>
VStem: 51 218<263.602 1380.51> 434 352<279 756 915 1274> 861 346<279 755.633> 1370 216<265.81 1378.43>
LayerCount: 2
Fore
SplineSet
819 -102 m 0,0,1
 673 -102 673 -102 563 -81.5 c 128,-1,2
 453 -61 453 -61 371.5 -26.5 c 128,-1,3
 290 8 290 8 235 54 c 128,-1,4
 180 100 180 100 144 152 c 128,-1,5
 108 204 108 204 89 258.5 c 128,-1,6
 70 313 70 313 61.5 364 c 128,-1,7
 53 415 53 415 52 460.5 c 128,-1,8
 51 506 51 506 51 539 c 2,9,-1
 51 1116 l 2,10,11
 51 1160 51 1160 54 1224 c 128,-1,12
 57 1288 57 1288 77.5 1358.5 c 128,-1,13
 98 1429 98 1429 144 1498.5 c 128,-1,14
 190 1568 190 1568 275 1624 c 128,-1,15
 360 1680 360 1680 492.5 1714.5 c 128,-1,16
 625 1749 625 1749 819 1749 c 0,17,18
 964 1749 964 1749 1074.5 1729 c 128,-1,19
 1185 1709 1185 1709 1266 1675 c 128,-1,20
 1347 1641 1347 1641 1402.5 1595.5 c 128,-1,21
 1458 1550 1458 1550 1493.5 1498.5 c 128,-1,22
 1529 1447 1529 1447 1548 1393.5 c 128,-1,23
 1567 1340 1567 1340 1575.5 1289 c 128,-1,24
 1584 1238 1584 1238 1585 1193.5 c 128,-1,25
 1586 1149 1586 1149 1586 1116 c 2,26,-1
 1586 539 l 2,27,28
 1586 506 1586 506 1585 460.5 c 128,-1,29
 1584 415 1584 415 1575.5 364 c 128,-1,30
 1567 313 1567 313 1548 258.5 c 128,-1,31
 1529 204 1529 204 1493.5 152 c 128,-1,32
 1458 100 1458 100 1402.5 54 c 128,-1,33
 1347 8 1347 8 1266 -26.5 c 128,-1,34
 1185 -61 1185 -61 1074.5 -81.5 c 128,-1,35
 964 -102 964 -102 819 -102 c 0,0,1
861 756 m 1,36,-1
 786 756 l 1,37,-1
 786 279 l 1,38,-1
 434 279 l 1,39,-1
 434 1434 l 1,40,-1
 813 1434 l 2,41,42
 911 1434 911 1434 978.5 1421.5 c 128,-1,43
 1046 1409 1046 1409 1090 1388.5 c 128,-1,44
 1134 1368 1134 1368 1157.5 1340.5 c 128,-1,45
 1181 1313 1181 1313 1192 1282.5 c 128,-1,46
 1203 1252 1203 1252 1205 1221.5 c 128,-1,47
 1207 1191 1207 1191 1207 1163 c 2,48,-1
 1207 1010 l 2,49,50
 1207 963 1207 963 1193 933 c 128,-1,51
 1179 903 1179 903 1158 884.5 c 128,-1,52
 1137 866 1137 866 1112.5 856.5 c 128,-1,53
 1088 847 1088 847 1067 842 c 1,54,55
 1092 839 1092 839 1118.5 829 c 128,-1,56
 1145 819 1145 819 1167.5 796.5 c 128,-1,57
 1190 774 1190 774 1205 737 c 128,-1,58
 1220 700 1220 700 1220 643 c 2,59,-1
 1222 279 l 1,60,-1
 861 279 l 1,61,-1
 861 756 l 1,36,-1
786 915 m 1,62,-1
 861 915 l 1,63,-1
 861 1274 l 1,64,-1
 786 1274 l 1,65,-1
 786 915 l 1,62,-1
819 69 m 256,66,67
 950 69 950 69 1041.5 88.5 c 128,-1,68
 1133 108 1133 108 1194.5 140.5 c 128,-1,69
 1256 173 1256 173 1291 215.5 c 128,-1,70
 1326 258 1326 258 1343.5 304 c 128,-1,71
 1361 350 1361 350 1365.5 396 c 128,-1,72
 1370 442 1370 442 1370 482 c 2,73,-1
 1370 1165 l 2,74,75
 1370 1205 1370 1205 1365.5 1250.5 c 128,-1,76
 1361 1296 1361 1296 1343.5 1341 c 128,-1,77
 1326 1386 1326 1386 1291 1428 c 128,-1,78
 1256 1470 1256 1470 1194.5 1502.5 c 128,-1,79
 1133 1535 1133 1535 1041.5 1554 c 128,-1,80
 950 1573 950 1573 819 1573 c 256,81,82
 688 1573 688 1573 596 1554 c 128,-1,83
 504 1535 504 1535 443 1502.5 c 128,-1,84
 382 1470 382 1470 347 1428 c 128,-1,85
 312 1386 312 1386 294.5 1341 c 128,-1,86
 277 1296 277 1296 272.5 1250 c 128,-1,87
 268 1204 268 1204 268 1165 c 0,88,89
 268 1151 268 1151 269 1138 c 128,-1,90
 270 1125 270 1125 269 1113 c 2,91,-1
 269 534 l 2,92,93
 269 522 269 522 268.5 509 c 128,-1,94
 268 496 268 496 268 482 c 0,95,96
 268 442 268 442 272.5 396 c 128,-1,97
 277 350 277 350 294.5 304 c 128,-1,98
 312 258 312 258 347 215.5 c 128,-1,99
 382 173 382 173 443 140.5 c 128,-1,100
 504 108 504 108 596 88.5 c 128,-1,101
 688 69 688 69 819 69 c 256,66,67
EndSplineSet
Validated: 1
EndChar

StartChar: macron
Encoding: 175 175 188
Width: 774
Flags: W
HStem: 82 336<-147 777>
LayerCount: 2
Fore
SplineSet
777 418 m 1,0,-1
 777 82 l 1,1,-1
 -147 82 l 1,2,-1
 -147 418 l 1,3,-1
 777 418 l 1,0,-1
EndSplineSet
Validated: 1
EndChar

StartChar: degree
Encoding: 176 176 189
Width: 752
Flags: W
HStem: 1081 183<272.296 441.758> 1483 178<272.296 442.745>
VStem: 35 213<1290.4 1457.53> 466 211<1289.54 1458.37>
LayerCount: 2
Fore
SplineSet
355 1661 m 0,0,1
 427 1661 427 1661 486 1638 c 128,-1,2
 545 1615 545 1615 587.5 1576 c 128,-1,3
 630 1537 630 1537 653.5 1484.5 c 128,-1,4
 677 1432 677 1432 677 1372 c 0,5,6
 677 1311 677 1311 653.5 1258 c 128,-1,7
 630 1205 630 1205 587.5 1165.5 c 128,-1,8
 545 1126 545 1126 486 1103.5 c 128,-1,9
 427 1081 427 1081 355 1081 c 0,10,11
 284 1081 284 1081 225.5 1103.5 c 128,-1,12
 167 1126 167 1126 124.5 1165.5 c 128,-1,13
 82 1205 82 1205 58.5 1258 c 128,-1,14
 35 1311 35 1311 35 1372 c 0,15,16
 35 1432 35 1432 58.5 1484.5 c 128,-1,17
 82 1537 82 1537 124.5 1576 c 128,-1,18
 167 1615 167 1615 225.5 1638 c 128,-1,19
 284 1661 284 1661 355 1661 c 0,0,1
357 1483 m 0,20,21
 305 1483 305 1483 276.5 1451.5 c 128,-1,22
 248 1420 248 1420 248 1374 c 0,23,24
 248 1329 248 1329 276.5 1296.5 c 128,-1,25
 305 1264 305 1264 357 1264 c 0,26,27
 411 1264 411 1264 438.5 1296.5 c 128,-1,28
 466 1329 466 1329 466 1374 c 0,29,30
 466 1420 466 1420 438.5 1451.5 c 128,-1,31
 411 1483 411 1483 357 1483 c 0,20,21
EndSplineSet
Validated: 1
EndChar

StartChar: plusminus
Encoding: 177 177 190
Width: 1339
Flags: W
HStem: -1 436<193 946> 911 483<41 352 798 1109>
VStem: 352 446<503 911 1394 1801>
LayerCount: 2
Fore
SplineSet
352 1394 m 1,0,-1
 352 1801 l 1,1,-1
 798 1801 l 1,2,-1
 798 1394 l 1,3,-1
 1109 1394 l 1,4,-1
 1109 911 l 1,5,-1
 798 911 l 1,6,-1
 798 503 l 1,7,-1
 352 503 l 1,8,-1
 352 911 l 1,9,-1
 41 911 l 1,10,-1
 41 1394 l 1,11,-1
 352 1394 l 1,0,-1
946 435 m 1,12,-1
 946 -1 l 1,13,-1
 193 -1 l 1,14,-1
 193 435 l 1,15,-1
 946 435 l 1,12,-1
EndSplineSet
Validated: 1
EndChar

StartChar: uni00B2
Encoding: 178 178 191
Width: 1167
Flags: W
HStem: 0 240<463 921>
VStem: 63 400<240 350.34 851 1085.15> 546 418<810.383 1085.16>
LayerCount: 2
Fore
SplineSet
63 851 m 1,0,1
 63 920 63 920 68 980.5 c 128,-1,2
 73 1041 73 1041 88.5 1091.5 c 128,-1,3
 104 1142 104 1142 133.5 1182 c 128,-1,4
 163 1222 163 1222 212 1249.5 c 128,-1,5
 261 1277 261 1277 333 1291.5 c 128,-1,6
 405 1306 405 1306 505 1306 c 0,7,8
 653 1306 653 1306 743.5 1276 c 128,-1,9
 834 1246 834 1246 883 1191 c 128,-1,10
 932 1136 932 1136 948 1059.5 c 128,-1,11
 964 983 964 983 964 890 c 0,12,13
 964 777 964 777 942.5 700.5 c 128,-1,14
 921 624 921 624 885.5 574 c 128,-1,15
 850 524 850 524 805 494 c 128,-1,16
 760 464 760 464 713.5 444.5 c 128,-1,17
 667 425 667 425 622 410.5 c 128,-1,18
 577 396 577 396 541.5 375.5 c 128,-1,19
 506 355 506 355 484.5 324 c 128,-1,20
 463 293 463 293 463 240 c 1,21,-1
 921 240 l 1,22,-1
 921 0 l 1,23,-1
 63 0 l 1,24,-1
 63 242 l 2,25,26
 63 366 63 366 84 454 c 128,-1,27
 105 542 105 542 138.5 602 c 128,-1,28
 172 662 172 662 215.5 698.5 c 128,-1,29
 259 735 259 735 304.5 756 c 128,-1,30
 350 777 350 777 393.5 786.5 c 128,-1,31
 437 796 437 796 470.5 802 c 128,-1,32
 504 808 504 808 525 815 c 128,-1,33
 546 822 546 822 546 838 c 2,34,-1
 546 1086 l 1,35,-1
 463 1086 l 1,36,-1
 463 851 l 1,37,-1
 63 851 l 1,0,1
EndSplineSet
Validated: 1
EndChar

StartChar: uni00B3
Encoding: 179 179 192
Width: 1194
Flags: W
HStem: -30 219<456.363 551.262> 566 180<391 553> 1091 217<455.919 551.262>
VStem: 55 400<189.964 491 820 1089.49> 553 417<190.236 565.808 746.186 1090.39>
LayerCount: 2
Fore
SplineSet
55 820 m 1,0,1
 55 900 55 900 60.5 967.5 c 128,-1,2
 66 1035 66 1035 83 1089.5 c 128,-1,3
 100 1144 100 1144 131 1185 c 128,-1,4
 162 1226 162 1226 212.5 1253 c 128,-1,5
 263 1280 263 1280 336 1294 c 128,-1,6
 409 1308 409 1308 511 1308 c 256,7,8
 613 1308 613 1308 686.5 1293 c 128,-1,9
 760 1278 760 1278 811 1251 c 128,-1,10
 862 1224 862 1224 893 1186 c 128,-1,11
 924 1148 924 1148 941.5 1102 c 128,-1,12
 959 1056 959 1056 964.5 1003 c 128,-1,13
 970 950 970 950 970 894 c 0,14,15
 970 822 970 822 954.5 776.5 c 128,-1,16
 939 731 939 731 921 704 c 0,17,18
 899 672 899 672 872 656 c 1,19,20
 899 641 899 641 921 610 c 0,21,22
 939 584 939 584 954.5 537.5 c 128,-1,23
 970 491 970 491 970 418 c 0,24,25
 970 360 970 360 964.5 304 c 128,-1,26
 959 248 959 248 941.5 198 c 128,-1,27
 924 148 924 148 893 106 c 128,-1,28
 862 64 862 64 811 34 c 128,-1,29
 760 4 760 4 686.5 -13 c 128,-1,30
 613 -30 613 -30 511 -30 c 0,31,32
 410 -30 410 -30 336.5 -15 c 128,-1,33
 263 0 263 0 212.5 30 c 128,-1,34
 162 60 162 60 131 104 c 128,-1,35
 100 148 100 148 83 206 c 128,-1,36
 66 264 66 264 60.5 335.5 c 128,-1,37
 55 407 55 407 55 492 c 1,38,-1
 455 491 l 1,39,-1
 455 189 l 1,40,-1
 553 189 l 1,41,-1
 553 566 l 1,42,-1
 391 566 l 1,43,-1
 391 746 l 1,44,-1
 553 746 l 1,45,-1
 553 1091 l 1,46,-1
 455 1091 l 1,47,-1
 455 820 l 1,48,-1
 55 820 l 1,0,1
EndSplineSet
Validated: 1
EndChar

StartChar: acute
Encoding: 180 180 193
Width: 1706
Flags: W
LayerCount: 2
Fore
SplineSet
1363 266 m 1,0,-1
 537 41 l 1,1,-1
 467 246 l 1,2,-1
 1153 809 l 1,3,-1
 1363 266 l 1,0,-1
EndSplineSet
Validated: 1
EndChar

StartChar: uni00B5
Encoding: 181 181 194
AltUni2: 0003bc.ffffffff.0 0003bc.ffffffff.0 0003bc.ffffffff.0 0003bc.ffffffff.0
Width: 1491
Flags: W
HStem: 0 21G<754.895 1212> 1280 20G<74 595 696 1212>
VStem: 74 521<-164.176 1.46875 231 1300> 696 516<231 1300>
LayerCount: 2
Fore
SplineSet
74 -114 m 1,0,-1
 74 1300 l 1,1,-1
 595 1300 l 1,2,-1
 595 231 l 1,3,-1
 696 231 l 1,4,-1
 696 1300 l 1,5,-1
 1212 1300 l 1,6,-1
 1212 0 l 1,7,-1
 762 0 l 1,8,-1
 735 76 l 1,9,10
 722 56 722 56 705 41.5 c 128,-1,11
 688 27 688 27 669 16 c 128,-1,12
 650 5 650 5 630 -2.5 c 128,-1,13
 610 -10 610 -10 591 -16 c 1,14,-1
 591 -345 l 1,15,-1
 140 -345 l 1,16,-1
 74 -114 l 1,0,-1
EndSplineSet
Validated: 1
EndChar

StartChar: paragraph
Encoding: 182 182 195
Width: 1370
Flags: W
HStem: 0 21G<520 757 856 1092> 1580 20G<519.5 1092>
VStem: 37 1055<870.968 1372.59> 520 237<0 658> 856 236<0 658>
LayerCount: 2
Fore
SplineSet
520 659 m 1,0,1
 382 659 382 659 289 692.5 c 128,-1,2
 196 726 196 726 140 785.5 c 128,-1,3
 84 845 84 845 60.5 927 c 128,-1,4
 37 1009 37 1009 37 1107 c 0,5,6
 37 1217 37 1217 59.5 1308 c 128,-1,7
 82 1399 82 1399 144.5 1464 c 128,-1,8
 207 1529 207 1529 318.5 1564.5 c 128,-1,9
 430 1600 430 1600 609 1600 c 2,10,-1
 1092 1600 l 1,11,-1
 1092 0 l 1,12,-1
 856 0 l 1,13,-1
 856 658 l 1,14,-1
 757 658 l 1,15,-1
 757 0 l 1,16,-1
 520 0 l 1,17,-1
 520 659 l 1,0,1
EndSplineSet
Validated: 1
EndChar

StartChar: periodcentered
Encoding: 183 183 196
Width: 698
Flags: W
HStem: 655 467<80 538>
VStem: 80 458<655 1122>
LayerCount: 2
Fore
SplineSet
538 655 m 1,0,-1
 80 655 l 1,1,-1
 80 1122 l 1,2,-1
 538 1122 l 1,3,-1
 538 655 l 1,0,-1
EndSplineSet
Validated: 1
EndChar

StartChar: cedilla
Encoding: 184 184 197
Width: 1456
Flags: W
HStem: -782 180<731.202 795.158> -288 296<533 797>
VStem: 385 344<-601.394 -415> 797 341<-601.209 -288.445>
LayerCount: 2
Fore
SplineSet
533 8 m 1,0,-1
 797 8 l 1,1,-1
 797 -106 l 1,2,3
 879 -106 879 -106 936.5 -118 c 128,-1,4
 994 -130 994 -130 1032 -150.5 c 128,-1,5
 1070 -171 1070 -171 1091.5 -197 c 128,-1,6
 1113 -223 1113 -223 1123 -252 c 128,-1,7
 1133 -281 1133 -281 1135.5 -310.5 c 128,-1,8
 1138 -340 1138 -340 1138 -366 c 2,9,-1
 1138 -522 l 2,10,11
 1138 -548 1138 -548 1135.5 -578 c 128,-1,12
 1133 -608 1133 -608 1121.5 -636.5 c 128,-1,13
 1110 -665 1110 -665 1086.5 -691.5 c 128,-1,14
 1063 -718 1063 -718 1021.5 -738 c 128,-1,15
 980 -758 980 -758 916.5 -770 c 128,-1,16
 853 -782 853 -782 762 -782 c 0,17,18
 670 -782 670 -782 606 -770 c 128,-1,19
 542 -758 542 -758 500 -738 c 128,-1,20
 458 -718 458 -718 435 -691.5 c 128,-1,21
 412 -665 412 -665 401 -636.5 c 128,-1,22
 390 -608 390 -608 387.5 -578.5 c 128,-1,23
 385 -549 385 -549 385 -522 c 2,24,-1
 385 -415 l 1,25,-1
 729 -352 l 1,26,-1
 729 -602 l 1,27,-1
 797 -602 l 1,28,-1
 797 -288 l 1,29,-1
 533 -288 l 1,30,-1
 533 8 l 1,0,-1
EndSplineSet
Validated: 1
EndChar

StartChar: uni00B9
Encoding: 185 185 198
Width: 834
Flags: W
HStem: 0 21G<162 622> 1081 195<25 162>
VStem: 162 460<0 1081>
LayerCount: 2
Fore
SplineSet
622 1276 m 1,0,-1
 622 0 l 1,1,-1
 162 0 l 1,2,-1
 162 1081 l 1,3,-1
 25 1081 l 1,4,-1
 25 1276 l 1,5,-1
 622 1276 l 1,0,-1
EndSplineSet
Validated: 1
EndChar

StartChar: grave
Encoding: 96 96 205
Width: 1706
Flags: W
LayerCount: 2
Fore
SplineSet
593 809 m 1,0,-1
 1280 246 l 1,1,-1
 1210 41 l 1,2,-1
 385 266 l 1,3,-1
 593 809 l 1,0,-1
EndSplineSet
Validated: 1
EndChar

StartChar: caron
Encoding: 711 711 206
Width: 1706
Flags: W
HStem: 82 614<561 749 905 1084>
LayerCount: 2
Fore
SplineSet
561 82 m 1,0,-1
 315 696 l 1,1,-1
 749 696 l 1,2,-1
 825 377 l 1,3,-1
 905 696 l 1,4,-1
 1340 696 l 1,5,-1
 1084 82 l 1,6,-1
 561 82 l 1,0,-1
EndSplineSet
Validated: 1
EndChar

StartChar: dotlessi
Encoding: 305 305 207
Width: 766
Flags: W
HStem: 0 21G<80 594>
VStem: 80 514<0 1298>
LayerCount: 2
Fore
SplineSet
594 0 m 1,0,-1
 80 0 l 1,1,-1
 80 1298 l 1,2,-1
 594 1298 l 1,3,-1
 594 0 l 1,0,-1
EndSplineSet
Validated: 1
EndChar

StartChar: bracketleft
Encoding: 91 91 210
Width: 1104
Flags: W
HStem: -319 242<666 973> 1578 241<666 973>
VStem: 92 574<-77 1578>
LayerCount: 2
Fore
SplineSet
92 1819 m 1,0,-1
 973 1819 l 1,1,-1
 973 1578 l 1,2,-1
 666 1578 l 1,3,-1
 666 -77 l 1,4,-1
 973 -77 l 1,5,-1
 973 -319 l 1,6,-1
 92 -319 l 1,7,-1
 92 1819 l 1,0,-1
EndSplineSet
Validated: 1
EndChar

StartChar: ring
Encoding: 730 730 211
Width: 774
Flags: W
HStem: 141 178<284.618 460.788> 538 183<286.16 460.206>
VStem: 53 211<340.268 515.738> 482 213<340.268 515.738>
LayerCount: 2
Fore
SplineSet
375 141 m 0,0,1
 308 141 308 141 249 164 c 128,-1,2
 190 187 190 187 146.5 226 c 128,-1,3
 103 265 103 265 78 317.5 c 128,-1,4
 53 370 53 370 53 430 c 0,5,6
 53 491 53 491 78 544 c 128,-1,7
 103 597 103 597 146.5 636.5 c 128,-1,8
 190 676 190 676 249 698.5 c 128,-1,9
 308 721 308 721 375 721 c 0,10,11
 441 721 441 721 499 698.5 c 128,-1,12
 557 676 557 676 600.5 636.5 c 128,-1,13
 644 597 644 597 669.5 544 c 128,-1,14
 695 491 695 491 695 430 c 0,15,16
 695 370 695 370 669.5 317.5 c 128,-1,17
 644 265 644 265 600.5 226 c 128,-1,18
 557 187 557 187 499 164 c 128,-1,19
 441 141 441 141 375 141 c 0,0,1
373 319 m 0,20,21
 395 319 395 319 415 327.5 c 128,-1,22
 435 336 435 336 450 350.5 c 128,-1,23
 465 365 465 365 473.5 385 c 128,-1,24
 482 405 482 405 482 428 c 0,25,26
 482 450 482 450 473.5 470 c 128,-1,27
 465 490 465 490 450 505 c 128,-1,28
 435 520 435 520 415 529 c 128,-1,29
 395 538 395 538 373 538 c 0,30,31
 350 538 350 538 330.5 529 c 128,-1,32
 311 520 311 520 296 505 c 128,-1,33
 281 490 281 490 272.5 470 c 128,-1,34
 264 450 264 450 264 428 c 0,35,36
 264 405 264 405 272.5 385 c 128,-1,37
 281 365 281 365 296 350.5 c 128,-1,38
 311 336 311 336 330.5 327.5 c 128,-1,39
 350 319 350 319 373 319 c 0,20,21
EndSplineSet
Validated: 1
EndChar

StartChar: bracketright
Encoding: 93 93 212
Width: 1102
Flags: W
HStem: -319 242<-27 282> 1578 241<-27 282>
VStem: 282 572<-77 1578>
LayerCount: 2
Fore
SplineSet
854 -319 m 1,0,-1
 -27 -319 l 1,1,-1
 -27 -77 l 1,2,-1
 282 -77 l 1,3,-1
 282 1578 l 1,4,-1
 -27 1578 l 1,5,-1
 -27 1819 l 1,6,-1
 854 1819 l 1,7,-1
 854 -319 l 1,0,-1
EndSplineSet
Validated: 1
EndChar

StartChar: asciicircum
Encoding: 94 94 225
Width: 1706
Flags: W
HStem: 61 615<38 226 382 561>
LayerCount: 2
Fore
SplineSet
1084 676 m 1,0,-1
 1340 61 l 1,1,-1
 905 61 l 1,2,-1
 825 381 l 1,3,-1
 749 61 l 1,4,-1
 315 61 l 1,5,-1
 561 676 l 1,6,-1
 1084 676 l 1,0,-1
EndSplineSet
Validated: 1
EndChar

StartChar: backslash
Encoding: 92 92 226
Width: 1110
Flags: W
HStem: 0 21G<343.013 921> 1575 20G<29 606.987>
LayerCount: 2
Fore
SplineSet
603 1595 m 1,0,-1
 921 0 l 1,1,-1
 347 0 l 1,2,-1
 29 1595 l 1,3,-1
 603 1595 l 1,0,-1
EndSplineSet
Validated: 1
EndChar

StartChar: question
Encoding: 63 63 243
Width: 1436
Flags: W
HStem: 0 397<237 785>
VStem: 237 548<0 397 462 616.822> 660 532<1025.34 1362.53>
LayerCount: 2
Fore
SplineSet
235 462 m 1,0,1
 235 573 235 573 253.5 653.5 c 128,-1,2
 272 734 272 734 302 792 c 128,-1,3
 332 850 332 850 370 887.5 c 128,-1,4
 408 925 408 925 448 949.5 c 128,-1,5
 488 974 488 974 526 988.5 c 128,-1,6
 564 1003 564 1003 594 1014 c 128,-1,7
 624 1025 624 1025 642 1036.5 c 128,-1,8
 660 1048 660 1048 660 1066 c 2,9,-1
 664 1364 l 1,10,-1
 564 1364 l 1,11,-1
 564 1070 l 1,12,-1
 39 1070 l 1,13,-1
 39 1247 l 2,14,15
 39 1287 39 1287 42 1331 c 128,-1,16
 45 1375 45 1375 61 1418 c 128,-1,17
 77 1461 77 1461 111 1499.5 c 128,-1,18
 145 1538 145 1538 207 1567.5 c 128,-1,19
 269 1597 269 1597 363.5 1614.5 c 128,-1,20
 458 1632 458 1632 596 1632 c 0,21,22
 727 1632 727 1632 822 1620 c 128,-1,23
 917 1608 917 1608 983.5 1581 c 128,-1,24
 1050 1554 1050 1554 1090.5 1510.5 c 128,-1,25
 1131 1467 1131 1467 1153.5 1404 c 128,-1,26
 1176 1341 1176 1341 1184 1256.5 c 128,-1,27
 1192 1172 1192 1172 1192 1064 c 0,28,29
 1192 948 1192 948 1162 873 c 128,-1,30
 1132 798 1132 798 1086.5 751 c 128,-1,31
 1041 704 1041 704 988.5 679.5 c 128,-1,32
 936 655 936 655 890.5 640 c 128,-1,33
 845 625 845 625 815 614 c 128,-1,34
 785 603 785 603 785 583 c 2,35,-1
 785 462 l 1,36,-1
 235 462 l 1,0,1
237 397 m 1,37,-1
 785 397 l 1,38,-1
 785 0 l 1,39,-1
 237 0 l 1,40,-1
 237 397 l 1,37,-1
EndSplineSet
Validated: 1
EndChar

StartChar: Euro
Encoding: 8364 8364 244
Width: 1622
Flags: W
HStem: -39 218<716.75 809.466> 553 173<41 183 715 1015> 814 176<41 183 715 1015>
VStem: 183 532<179.275 553 726 814 990 1312.53> 811 527<179.033 473 1070 1313.86>
LayerCount: 2
Fore
SplineSet
183 814 m 1,0,-1
 41 814 l 1,1,-1
 41 990 l 1,2,-1
 183 990 l 1,3,-1
 183 1014 l 2,4,5
 183 1122 183 1122 191 1206.5 c 128,-1,6
 199 1291 199 1291 221.5 1354 c 128,-1,7
 244 1417 244 1417 285 1460.5 c 128,-1,8
 326 1504 326 1504 392.5 1531 c 128,-1,9
 459 1558 459 1558 554 1570 c 128,-1,10
 649 1582 649 1582 780 1582 c 0,11,12
 917 1582 917 1582 1012 1564.5 c 128,-1,13
 1107 1547 1107 1547 1169 1517.5 c 128,-1,14
 1231 1488 1231 1488 1265 1449.5 c 128,-1,15
 1299 1411 1299 1411 1315.5 1368 c 128,-1,16
 1332 1325 1332 1325 1335 1281 c 128,-1,17
 1338 1237 1338 1237 1338 1197 c 2,18,-1
 1338 1070 l 1,19,-1
 811 1070 l 1,20,-1
 811 1314 l 1,21,-1
 715 1314 l 1,22,-1
 715 990 l 1,23,-1
 1015 990 l 1,24,-1
 1015 814 l 1,25,-1
 715 814 l 1,26,-1
 715 726 l 1,27,-1
 1015 726 l 1,28,-1
 1015 553 l 1,29,-1
 715 553 l 1,30,-1
 715 179 l 1,31,-1
 811 179 l 1,32,-1
 811 473 l 1,33,-1
 1338 473 l 1,34,-1
 1338 346 l 2,35,36
 1338 306 1338 306 1335 262 c 128,-1,37
 1332 218 1332 218 1315.5 175 c 128,-1,38
 1299 132 1299 132 1265 93.5 c 128,-1,39
 1231 55 1231 55 1169 25.5 c 128,-1,40
 1107 -4 1107 -4 1012 -21.5 c 128,-1,41
 917 -39 917 -39 780 -39 c 0,42,43
 649 -39 649 -39 554 -27 c 128,-1,44
 459 -15 459 -15 392.5 12 c 128,-1,45
 326 39 326 39 285 82.5 c 128,-1,46
 244 126 244 126 221.5 189 c 128,-1,47
 199 252 199 252 191 336.5 c 128,-1,48
 183 421 183 421 183 529 c 2,49,-1
 183 553 l 1,50,-1
 41 553 l 1,51,-1
 41 726 l 1,52,-1
 183 726 l 1,53,-1
 183 814 l 1,0,-1
EndSplineSet
Validated: 1
EndChar

StartChar: underscore
Encoding: 95 95 245
Width: 967
Flags: W
HStem: -435 436<10 814>
LayerCount: 2
Fore
SplineSet
814 1 m 1,0,-1
 814 -435 l 1,1,-1
 10 -435 l 1,2,-1
 10 1 l 1,3,-1
 814 1 l 1,0,-1
EndSplineSet
Validated: 1
EndChar

StartChar: asciitilde
Encoding: 126 126 246
Width: 1456
Flags: W
HStem: 616 443<337.534 503.789> 806 446<747.753 907.026>
VStem: 43 268<1082.08 1227> 934 269<642 781.985>
LayerCount: 2
Fore
SplineSet
835 806 m 0,0,1
 810 806 810 806 788.5 792 c 128,-1,2
 767 778 767 778 742.5 757 c 128,-1,3
 718 736 718 736 689 711 c 128,-1,4
 660 686 660 686 621 665 c 128,-1,5
 582 644 582 644 530.5 630 c 128,-1,6
 479 616 479 616 410 616 c 0,7,8
 321 616 321 616 252.5 642 c 128,-1,9
 184 668 184 668 137.5 736 c 128,-1,10
 91 804 91 804 67 922.5 c 128,-1,11
 43 1041 43 1041 43 1227 c 1,12,-1
 311 1227 l 1,13,14
 311 1194 311 1194 316 1163.5 c 128,-1,15
 321 1133 321 1133 333 1110 c 128,-1,16
 345 1087 345 1087 364 1073 c 128,-1,17
 383 1059 383 1059 412 1059 c 0,18,19
 437 1059 437 1059 460.5 1073.5 c 128,-1,20
 484 1088 484 1088 510.5 1109 c 128,-1,21
 537 1130 537 1130 567.5 1155.5 c 128,-1,22
 598 1181 598 1181 636.5 1202 c 128,-1,23
 675 1223 675 1223 724 1237.5 c 128,-1,24
 773 1252 773 1252 835 1252 c 0,25,26
 924 1252 924 1252 993 1226.5 c 128,-1,27
 1062 1201 1062 1201 1108.5 1133 c 128,-1,28
 1155 1065 1155 1065 1179 946.5 c 128,-1,29
 1203 828 1203 828 1203 642 c 1,30,-1
 934 642 l 1,31,32
 934 670 934 670 929 699 c 128,-1,33
 924 728 924 728 912.5 752 c 128,-1,34
 901 776 901 776 882 791 c 128,-1,35
 863 806 863 806 835 806 c 0,0,1
EndSplineSet
Validated: 1
EndChar

StartChar: bar
Encoding: 124 124 247
Width: 862
Flags: W
VStem: 92 574<-100 1795>
LayerCount: 2
Fore
SplineSet
666 1795 m 1,0,-1
 666 -100 l 1,1,-1
 92 -100 l 1,2,-1
 92 1795 l 1,3,-1
 666 1795 l 1,0,-1
EndSplineSet
Validated: 1
EndChar

StartChar: braceleft
Encoding: 123 123 248
Width: 1057
Flags: W
HStem: -330 279<778.499 958> 1646 279<778.499 958>
LayerCount: 2
Fore
SplineSet
694 1348 m 0,0,1
 681 1241 681 1241 675 1156 c 128,-1,2
 669 1071 669 1071 659 1003.5 c 128,-1,3
 649 936 649 936 629.5 885 c 128,-1,4
 610 834 610 834 569 797 c 1,5,6
 610 760 610 760 629.5 709.5 c 128,-1,7
 649 659 649 659 659 591.5 c 128,-1,8
 669 524 669 524 675 438.5 c 128,-1,9
 681 353 681 353 694 247 c 0,10,11
 708 136 708 136 730 76 c 128,-1,12
 752 16 752 16 784.5 -12.5 c 128,-1,13
 817 -41 817 -41 859.5 -46 c 128,-1,14
 902 -51 902 -51 958 -51 c 1,15,-1
 958 -330 l 1,16,17
 853 -330 853 -330 760 -323 c 128,-1,18
 667 -316 667 -316 587.5 -292.5 c 128,-1,19
 508 -269 508 -269 442.5 -223.5 c 128,-1,20
 377 -178 377 -178 326 -100.5 c 128,-1,21
 275 -23 275 -23 239 91.5 c 128,-1,22
 203 206 203 206 183 367 c 0,23,24
 174 439 174 439 166.5 489 c 128,-1,25
 159 539 159 539 150.5 571 c 128,-1,26
 142 603 142 603 131.5 621 c 128,-1,27
 121 639 121 639 105 647 c 128,-1,28
 89 655 89 655 66.5 656.5 c 128,-1,29
 44 658 44 658 12 658 c 1,30,-1
 12 937 l 1,31,32
 44 937 44 937 66.5 938.5 c 128,-1,33
 89 940 89 940 105 948 c 128,-1,34
 121 956 121 956 131.5 974 c 128,-1,35
 142 992 142 992 150.5 1024 c 128,-1,36
 159 1056 159 1056 166.5 1106 c 128,-1,37
 174 1156 174 1156 183 1228 c 0,38,39
 203 1389 203 1389 239 1503.5 c 128,-1,40
 275 1618 275 1618 326 1695.5 c 128,-1,41
 377 1773 377 1773 442.5 1818.5 c 128,-1,42
 508 1864 508 1864 587.5 1887.5 c 128,-1,43
 667 1911 667 1911 760 1918 c 128,-1,44
 853 1925 853 1925 958 1925 c 1,45,-1
 958 1646 l 1,46,47
 902 1646 902 1646 859.5 1641 c 128,-1,48
 817 1636 817 1636 784.5 1607.5 c 128,-1,49
 752 1579 752 1579 730 1519 c 128,-1,50
 708 1459 708 1459 694 1348 c 0,0,1
EndSplineSet
Validated: 1
EndChar

StartChar: braceright
Encoding: 125 125 249
Width: 1057
Flags: W
HStem: -330 279<-68 111.501> 1646 279<-68 111.501>
LayerCount: 2
Fore
SplineSet
196 1348 m 0,0,1
 182 1459 182 1459 160 1519 c 128,-1,2
 138 1579 138 1579 105.5 1607.5 c 128,-1,3
 73 1636 73 1636 30 1641 c 128,-1,4
 -13 1646 -13 1646 -68 1646 c 1,5,-1
 -68 1925 l 1,6,7
 36 1925 36 1925 128.5 1918 c 128,-1,8
 221 1911 221 1911 300.5 1887.5 c 128,-1,9
 380 1864 380 1864 446 1818.5 c 128,-1,10
 512 1773 512 1773 563.5 1695.5 c 128,-1,11
 615 1618 615 1618 651 1503.5 c 128,-1,12
 687 1389 687 1389 707 1228 c 0,13,14
 716 1156 716 1156 723 1106 c 128,-1,15
 730 1056 730 1056 738 1024 c 128,-1,16
 746 992 746 992 757 974 c 128,-1,17
 768 956 768 956 784 948 c 128,-1,18
 800 940 800 940 823 938.5 c 128,-1,19
 846 937 846 937 878 937 c 1,20,-1
 878 658 l 1,21,22
 846 658 846 658 823 656.5 c 128,-1,23
 800 655 800 655 784 647 c 128,-1,24
 768 639 768 639 757 621 c 128,-1,25
 746 603 746 603 738 571 c 128,-1,26
 730 539 730 539 723 489 c 128,-1,27
 716 439 716 439 707 367 c 0,28,29
 687 206 687 206 651 91.5 c 128,-1,30
 615 -23 615 -23 563.5 -100.5 c 128,-1,31
 512 -178 512 -178 446 -223.5 c 128,-1,32
 380 -269 380 -269 300.5 -292.5 c 128,-1,33
 221 -316 221 -316 128.5 -323 c 128,-1,34
 36 -330 36 -330 -68 -330 c 1,35,-1
 -68 -51 l 1,36,37
 -13 -51 -13 -51 30 -46 c 128,-1,38
 73 -41 73 -41 105.5 -12.5 c 128,-1,39
 138 16 138 16 160 76 c 128,-1,40
 182 136 182 136 196 247 c 0,41,42
 209 353 209 353 215 438.5 c 128,-1,43
 221 524 221 524 231 591.5 c 128,-1,44
 241 659 241 659 260.5 709.5 c 128,-1,45
 280 760 280 760 321 797 c 1,46,47
 280 834 280 834 260.5 885 c 128,-1,48
 241 936 241 936 231 1003.5 c 128,-1,49
 221 1071 221 1071 215 1156 c 128,-1,50
 209 1241 209 1241 196 1348 c 0,0,1
EndSplineSet
Validated: 1
EndChar

StartChar: breve
Encoding: 728 728 250
Width: 1288
Flags: W
HStem: 70 403<453.369 674.865>
VStem: 150 272<503.373 731> 705.5 272.5<503.373 731>
LayerCount: 2
Fore
SplineSet
568 70 m 0,0,1
 461 70 461 70 382 103.5 c 128,-1,2
 303 137 303 137 251.5 214.5 c 128,-1,3
 200 292 200 292 175 418.5 c 128,-1,4
 150 545 150 545 150 731 c 1,5,-1
 419 731 l 1,6,7
 419 671 419 671 422 623.5 c 128,-1,8
 425 576 425 576 439 542.5 c 128,-1,9
 453 509 453 509 483.5 491 c 128,-1,10
 514 473 514 473 568 473 c 0,11,12
 619 473 619 473 647.5 491 c 128,-1,13
 676 509 676 509 689.5 542.5 c 128,-1,14
 703 576 703 576 705.5 624 c 128,-1,15
 708 672 708 672 708 731 c 1,16,-1
 978 731 l 1,17,18
 978 545 978 545 952.5 418.5 c 128,-1,19
 927 292 927 292 876.5 214.5 c 128,-1,20
 826 137 826 137 749 103.5 c 128,-1,21
 672 70 672 70 568 70 c 0,0,1
EndSplineSet
Validated: 1
EndChar

StartChar: hungarumlaut
Encoding: 733 733 260
Width: 2570
Flags: W
LayerCount: 2
Fore
SplineSet
1274 957 m 1,0,-1
 1004 30 l 1,1,-1
 821 30 l 1,2,-1
 821 1015 l 1,3,-1
 1274 957 l 1,0,-1
1789 953 m 1,4,-1
 1519 30 l 1,5,-1
 1336 30 l 1,6,-1
 1336 1011 l 1,7,-1
 1789 953 l 1,4,-1
EndSplineSet
Validated: 1
EndChar

StartChar: ogonek
Encoding: 731 731 280
Width: 1288
Flags: W
HStem: 0 79<598.631 723>
VStem: 276 227<-402.5 -174.254>
LayerCount: 2
Fore
SplineSet
722 -737 m 1,0,1
 605 -737 605 -737 520.5 -706 c 128,-1,2
 436 -675 436 -675 382 -623.5 c 128,-1,3
 328 -572 328 -572 302 -505 c 128,-1,4
 276 -438 276 -438 276 -367 c 0,5,6
 276 -286 276 -286 307 -206 c 128,-1,7
 338 -126 338 -126 396 -63 c 128,-1,8
 454 0 454 0 536.5 39.5 c 128,-1,9
 619 79 619 79 723 79 c 1,10,-1
 723 0 l 1,11,12
 672 0 672 0 631 -20 c 128,-1,13
 590 -40 590 -40 561.5 -72.5 c 128,-1,14
 533 -105 533 -105 518 -146 c 128,-1,15
 503 -187 503 -187 503 -229 c 0,16,17
 503 -266 503 -266 515.5 -301 c 128,-1,18
 528 -336 528 -336 555 -363 c 128,-1,19
 582 -390 582 -390 623.5 -406 c 128,-1,20
 665 -422 665 -422 722 -422 c 1,21,-1
 722 -737 l 1,0,1
EndSplineSet
Validated: 1
EndChar

StartChar: dcroat
Encoding: 273 273 293
Width: 1505
Flags: W
HStem: 0 21G<409 475 876.491 1293> 1324 20G<402.5 491.5> 1457 138<509 1349> 1690 20G<796 1293>
VStem: 63 497<237.343 1059.12> 796 497<237 1060 1199 1710>
LayerCount: 2
Fore
SplineSet
1349 1595 m 1,0,-1
 1349 1457 l 1,1,-1
 509 1457 l 1,2,-1
 509 1595 l 1,3,-1
 1349 1595 l 1,0,-1
1293 1710 m 1,4,-1
 1293 0 l 1,5,-1
 882 0 l 1,6,-1
 836 167 l 1,7,8
 806 117 806 117 763.5 78.5 c 128,-1,9
 721 40 721 40 670 14.5 c 128,-1,10
 619 -11 619 -11 562 -24 c 128,-1,11
 505 -37 505 -37 445 -37 c 0,12,13
 373 -37 373 -37 304 -12 c 128,-1,14
 235 13 235 13 181.5 64.5 c 128,-1,15
 128 116 128 116 95.5 194 c 128,-1,16
 63 272 63 272 63 377 c 2,17,-1
 63 955 l 2,18,19
 63 1055 63 1055 95 1128.5 c 128,-1,20
 127 1202 127 1202 179.5 1250 c 128,-1,21
 232 1298 232 1298 299.5 1321 c 128,-1,22
 367 1344 367 1344 438 1344 c 0,23,24
 545 1344 545 1344 638.5 1307 c 128,-1,25
 732 1270 732 1270 796 1199 c 1,26,-1
 796 1710 l 1,27,-1
 1293 1710 l 1,4,-1
796 1060 m 1,28,-1
 560 1060 l 1,29,-1
 560 237 l 1,30,-1
 796 237 l 1,31,-1
 796 1060 l 1,28,-1
EndSplineSet
Validated: 5
EndChar

StartChar: Dcroat
Encoding: 272 272 295
Width: 1679
Flags: W
HStem: 0 237<613 846.121> 726 142<20 741> 1358 237<613 846.121>
VStem: 116 497<237 1358> 849 497<237.896 1357.42>
LayerCount: 2
Fore
SplineSet
741 868 m 1,0,-1
 741 726 l 1,1,-1
 20 726 l 1,2,-1
 20 868 l 1,3,-1
 741 868 l 1,0,-1
613 237 m 1,4,-1
 849 237 l 1,5,-1
 849 1358 l 1,6,-1
 613 1358 l 1,7,-1
 613 237 l 1,4,-1
1346 393 m 2,8,9
 1346 353 1346 353 1343.5 308.5 c 128,-1,10
 1341 264 1341 264 1325.5 220 c 128,-1,11
 1310 176 1310 176 1276 136.5 c 128,-1,12
 1242 97 1242 97 1180 66.5 c 128,-1,13
 1118 36 1118 36 1022.5 18 c 128,-1,14
 927 0 927 0 787 0 c 2,15,-1
 116 0 l 1,16,-1
 116 1595 l 1,17,-1
 787 1595 l 2,18,19
 927 1595 927 1595 1022.5 1577 c 128,-1,20
 1118 1559 1118 1559 1180 1529 c 128,-1,21
 1242 1499 1242 1499 1276 1459.5 c 128,-1,22
 1310 1420 1310 1420 1325.5 1376.5 c 128,-1,23
 1341 1333 1341 1333 1343.5 1288.5 c 128,-1,24
 1346 1244 1346 1244 1346 1204 c 2,25,-1
 1346 393 l 2,8,9
EndSplineSet
Validated: 5
EndChar

StartChar: uni00AD
Encoding: 173 173 296
Width: 1006
Flags: W
HStem: 461 436<59 812>
LayerCount: 2
Fore
SplineSet
812 897 m 1,0,-1
 812 461 l 1,1,-1
 59 461 l 1,2,-1
 59 897 l 1,3,-1
 812 897 l 1,0,-1
EndSplineSet
Validated: 1
EndChar

StartChar: uni2074
Encoding: 8308 8308 297
Width: 1210
Flags: W
HStem: 1586 20G<204.573 635>
VStem: 546 434<330 524 812 1080>
LayerCount: 2
Fore
SplineSet
980 330 m 1,0,-1
 546 330 l 1,1,-1
 546 524 l 1,2,-1
 43 524 l 1,3,-1
 43 856 l 1,4,-1
 209 1606 l 1,5,-1
 635 1606 l 1,6,-1
 470 856 l 1,7,-1
 470 812 l 1,8,-1
 546 812 l 1,9,-1
 546 1080 l 1,10,-1
 980 1080 l 1,11,-1
 980 330 l 1,0,-1
EndSplineSet
Validated: 1
EndChar

StartChar: dotaccent
Encoding: 729 729 302
Width: 698
Flags: W
HStem: 0 467<80 538>
VStem: 80 458<0 467>
LayerCount: 2
Fore
SplineSet
538 0 m 1,0,-1
 80 0 l 1,1,-1
 80 467 l 1,2,-1
 538 467 l 1,3,-1
 538 0 l 1,0,-1
EndSplineSet
Validated: 1
EndChar

StartChar: Hbar
Encoding: 294 294 303
Width: 1772
Flags: W
HStem: 0 21G<141 638 924 1421> 688 250<638 924> 1176 124<45 1539> 1575 20G<141 638 924 1421>
VStem: 141 497<0 688 938 1595> 924 497<0 688 938 1595>
LayerCount: 2
Fore
SplineSet
1539 1300 m 1,0,-1
 1539 1176 l 1,1,-1
 45 1176 l 1,2,-1
 45 1300 l 1,3,-1
 1539 1300 l 1,0,-1
1421 1595 m 1,4,-1
 1421 0 l 1,5,-1
 924 0 l 1,6,-1
 924 688 l 1,7,-1
 638 688 l 1,8,-1
 638 0 l 1,9,-1
 141 0 l 1,10,-1
 141 1595 l 1,11,-1
 638 1595 l 1,12,-1
 638 938 l 1,13,-1
 924 938 l 1,14,-1
 924 1595 l 1,15,-1
 1421 1595 l 1,4,-1
EndSplineSet
Validated: 5
EndChar

StartChar: hbar
Encoding: 295 295 307
Width: 1520
Flags: W
HStem: 0 21G<68 565 801 1298> 1323 20G<888 951> 1454 140<-12 878> 1690 20G<68 565>
VStem: 68 497<0 1060 1188 1710> 801 497<0 1059.25>
LayerCount: 2
Fore
SplineSet
878 1594 m 1,0,-1
 878 1454 l 1,1,-1
 -12 1454 l 1,2,-1
 -12 1594 l 1,3,-1
 878 1594 l 1,0,-1
68 0 m 1,4,-1
 68 1710 l 1,5,-1
 565 1710 l 1,6,-1
 565 1188 l 1,7,8
 588 1225 588 1225 625 1254 c 128,-1,9
 662 1283 662 1283 708 1302.5 c 128,-1,10
 754 1322 754 1322 807 1332.5 c 128,-1,11
 860 1343 860 1343 916 1343 c 0,12,13
 986 1343 986 1343 1054.5 1321 c 128,-1,14
 1123 1299 1123 1299 1177 1253.5 c 128,-1,15
 1231 1208 1231 1208 1264.5 1137 c 128,-1,16
 1298 1066 1298 1066 1298 968 c 2,17,-1
 1298 0 l 1,18,-1
 801 0 l 1,19,-1
 801 1060 l 1,20,-1
 565 1060 l 1,21,-1
 565 0 l 1,22,-1
 68 0 l 1,4,-1
EndSplineSet
Validated: 5
EndChar

StartChar: jcircumflex
Encoding: 309 309 309
Width: 780
Flags: W
HStem: -318.5 252.5<-220.248 35> -285 219<-221 33.3284> 1280 20G<35 563>
VStem: 35 528<-64.8511 1300>
LayerCount: 2
Fore
SplineSet
563 94 m 2,0,1
 563 54 563 54 561 7.5 c 128,-1,2
 559 -39 559 -39 547 -85 c 128,-1,3
 535 -131 535 -131 510.5 -174 c 128,-1,4
 486 -217 486 -217 440.5 -250 c 128,-1,5
 395 -283 395 -283 326 -302.5 c 128,-1,6
 257 -322 257 -322 157 -322 c 0,7,8
 80 -322 80 -322 20 -318.5 c 128,-1,9
 -40 -315 -40 -315 -85.5 -309.5 c 128,-1,10
 -131 -304 -131 -304 -164 -297.5 c 128,-1,11
 -197 -291 -197 -291 -221 -285 c 1,12,-1
 -221 -66 l 1,13,-1
 35 -66 l 1,14,-1
 35 1300 l 1,15,-1
 563 1300 l 1,16,-1
 563 94 l 2,0,1
572 2010 m 1,17,-1
 828 1395 l 1,18,-1
 393 1395 l 1,19,-1
 313 1715 l 1,20,-1
 237 1395 l 1,21,-1
 -197 1395 l 1,22,-1
 49 2010 l 1,23,-1
 572 2010 l 1,17,-1
EndSplineSet
Validated: 1
EndChar

StartChar: kgreenlandic
Encoding: 312 312 321
Width: 1612
Flags: W
HStem: 0 21G<80 608 873.484 1401> 1279 21G<80 608 839.05 1380>
VStem: 80 528<0 318 858 1299>
LayerCount: 2
Fore
SplineSet
80 0 m 1,0,-1
 80 1299 l 1,1,-1
 608 1299 l 1,2,-1
 608 858 l 1,3,-1
 850 1300 l 1,4,-1
 1380 1300 l 1,5,-1
 1077 790 l 1,6,-1
 1401 0 l 1,7,-1
 881 0 l 1,8,-1
 710 455 l 1,9,-1
 608 318 l 1,10,-1
 608 0 l 1,11,-1
 80 0 l 1,0,-1
EndSplineSet
Validated: 1
EndChar

StartChar: tbar
Encoding: 359 359 331
Width: 1001
Flags: W
HStem: 0 21G<176 673> 597 200<41 822> 1100 200<53 176 673 837> 1575 20G<176 673>
VStem: 176 497<0 1100 1300 1595>
LayerCount: 2
Fore
SplineSet
822 797 m 1,0,-1
 822 597 l 1,1,-1
 41 597 l 1,2,-1
 41 797 l 1,3,-1
 822 797 l 1,0,-1
673 0 m 1,4,-1
 176 0 l 1,5,-1
 176 1100 l 1,6,-1
 53 1100 l 1,7,-1
 53 1300 l 1,8,-1
 176 1300 l 1,9,-1
 176 1595 l 1,10,-1
 673 1595 l 1,11,-1
 673 1300 l 1,12,-1
 837 1300 l 1,13,-1
 837 1100 l 1,14,-1
 673 1100 l 1,15,-1
 673 0 l 1,4,-1
EndSplineSet
Validated: 5
EndChar

StartChar: Eng
Encoding: 330 330 332
Width: 1741
Flags: W
HStem: 0 21G<96 498> 1575 20G<96 610.723 1008 1409>
VStem: 96 402<0 711> 500 400<-379.506 -125> 1008 401<-382.092 -144 834 1595>
LayerCount: 2
Fore
SplineSet
1010 -144 m 1,0,-1
 498 711 l 1,1,-1
 498 0 l 1,2,-1
 96 0 l 1,3,-1
 96 1595 l 1,4,-1
 600 1595 l 1,5,-1
 1008 834 l 1,6,-1
 1008 1595 l 1,7,-1
 1409 1595 l 1,8,-1
 1409 -245 l 2,9,10
 1409 -376 1409 -376 1369.5 -474.5 c 128,-1,11
 1330 -573 1330 -573 1265.5 -639 c 128,-1,12
 1201 -705 1201 -705 1118.5 -738.5 c 128,-1,13
 1036 -772 1036 -772 950 -772 c 0,14,15
 865 -772 865 -772 784 -739.5 c 128,-1,16
 703 -707 703 -707 640 -641 c 128,-1,17
 577 -575 577 -575 538.5 -476 c 128,-1,18
 500 -377 500 -377 500 -245 c 2,19,-1
 500 -125 l 1,20,-1
 900 -125 l 1,21,-1
 900 -383 l 1,22,-1
 1010 -383 l 1,23,-1
 1010 -144 l 1,0,-1
EndSplineSet
Validated: 1
EndChar

StartChar: eng
Encoding: 331 331 333
Width: 1520
Flags: W
HStem: -458.5 252.5<454.752 710> -425 219<454 708.328> 0 21G<80 608> 1280 20G<80 548.933>
VStem: 80 528<0 1069> 710 528<-204.851 1067.62>
LayerCount: 2
Fore
SplineSet
80 0 m 1,0,-1
 80 1300 l 1,1,-1
 542 1300 l 1,2,-1
 568 1225 l 1,3,4
 590 1255 590 1255 624.5 1277.5 c 128,-1,5
 659 1300 659 1300 698.5 1314.5 c 128,-1,6
 738 1329 738 1329 779 1336 c 128,-1,7
 820 1343 820 1343 855 1343 c 0,8,9
 948 1343 948 1343 1013 1323 c 128,-1,10
 1078 1303 1078 1303 1120.5 1270 c 128,-1,11
 1163 1237 1163 1237 1186.5 1194 c 128,-1,12
 1210 1151 1210 1151 1221.5 1105 c 128,-1,13
 1233 1059 1233 1059 1235.5 1013 c 128,-1,14
 1238 967 1238 967 1238 928 c 2,15,-1
 1238 -46 l 2,16,17
 1238 -86 1238 -86 1236 -132.5 c 128,-1,18
 1234 -179 1234 -179 1222 -225 c 128,-1,19
 1210 -271 1210 -271 1185.5 -314 c 128,-1,20
 1161 -357 1161 -357 1115.5 -390 c 128,-1,21
 1070 -423 1070 -423 1001 -442.5 c 128,-1,22
 932 -462 932 -462 832 -462 c 0,23,24
 755 -462 755 -462 695 -458.5 c 128,-1,25
 635 -455 635 -455 589.5 -449.5 c 128,-1,26
 544 -444 544 -444 511 -437.5 c 128,-1,27
 478 -431 478 -431 454 -425 c 1,28,-1
 454 -206 l 1,29,-1
 710 -206 l 1,30,-1
 710 1069 l 1,31,-1
 608 1069 l 1,32,-1
 608 0 l 1,33,-1
 80 0 l 1,0,-1
EndSplineSet
Validated: 1
EndChar

StartChar: Euro
Encoding: 65539 -1 345
Width: 1690
Flags: W
HStem: -39 276<619.644 851.111> 441 255<51 759> 868 255<51 759> 1358 274<617.398 852.887>
VStem: 51 708<441 696 868 1123> 120 497<237.695 1357.88> 853 497<237.695 686 909 1357.88>
LayerCount: 2
Fore
SplineSet
759 696 m 1,0,-1
 759 441 l 1,1,-1
 51 441 l 1,2,-1
 51 696 l 1,3,-1
 759 696 l 1,0,-1
759 1123 m 1,4,-1
 759 868 l 1,5,-1
 51 868 l 1,6,-1
 51 1123 l 1,7,-1
 759 1123 l 1,4,-1
853 1358 m 1,8,-1
 617 1358 l 1,9,-1
 617 237 l 1,10,-1
 853 237 l 1,11,-1
 853 686 l 1,12,-1
 1350 686 l 1,13,-1
 1350 371 l 2,14,15
 1350 331 1350 331 1345.5 285 c 128,-1,16
 1341 239 1341 239 1321.5 193.5 c 128,-1,17
 1302 148 1302 148 1263 106 c 128,-1,18
 1224 64 1224 64 1155.5 32 c 128,-1,19
 1087 0 1087 0 984.5 -19.5 c 128,-1,20
 882 -39 882 -39 735 -39 c 0,21,22
 589 -39 589 -39 487 -19.5 c 128,-1,23
 385 0 385 0 316.5 32 c 128,-1,24
 248 64 248 64 209 106 c 128,-1,25
 170 148 170 148 150 193.5 c 128,-1,26
 130 239 130 239 125 285 c 128,-1,27
 120 331 120 331 120 371 c 2,28,-1
 120 1227 l 2,29,30
 120 1267 120 1267 125 1312.5 c 128,-1,31
 130 1358 130 1358 149.5 1403 c 128,-1,32
 169 1448 169 1448 208.5 1489.5 c 128,-1,33
 248 1531 248 1531 316 1562.5 c 128,-1,34
 384 1594 384 1594 485.5 1613 c 128,-1,35
 587 1632 587 1632 732 1632 c 0,36,37
 880 1632 880 1632 983 1613 c 128,-1,38
 1086 1594 1086 1594 1155 1562.5 c 128,-1,39
 1224 1531 1224 1531 1263 1489.5 c 128,-1,40
 1302 1448 1302 1448 1321.5 1403 c 128,-1,41
 1341 1358 1341 1358 1345.5 1312.5 c 128,-1,42
 1350 1267 1350 1267 1350 1227 c 2,43,-1
 1350 909 l 1,44,-1
 853 909 l 1,45,-1
 853 1358 l 1,8,-1
EndSplineSet
Validated: 5
EndChar

StartChar: florin
Encoding: 402 402 347
Width: 1204
Flags: W
HStem: -434 257<-140.102 38> -383 206<-141 38> 998 202<2 166 717 978> 1377 254<736 1012>
LayerCount: 2
Fore
SplineSet
583 -17 m 2,0,1
 571 -131 571 -131 532.5 -210.5 c 128,-1,2
 494 -290 494 -290 435.5 -339.5 c 128,-1,3
 377 -389 377 -389 301 -411.5 c 128,-1,4
 225 -434 225 -434 138 -434 c 0,5,6
 68 -434 68 -434 -8 -420.5 c 128,-1,7
 -84 -407 -84 -407 -162 -383 c 1,8,-1
 -141 -177 l 1,9,-1
 38 -177 l 1,10,-1
 166 998 l 1,11,-1
 -21 998 l 1,12,-1
 2 1200 l 1,13,-1
 189 1200 l 1,14,-1
 191 1217 l 2,15,16
 203 1320 203 1320 233 1398 c 128,-1,17
 263 1476 263 1476 322 1527.5 c 128,-1,18
 381 1579 381 1579 474.5 1605 c 128,-1,19
 568 1631 568 1631 708 1631 c 0,20,21
 802 1631 802 1631 863.5 1623.5 c 128,-1,22
 925 1616 925 1616 964 1606 c 0,23,24
 983 1601 983 1601 1001 1596 c 128,-1,25
 1019 1591 1019 1591 1033 1583 c 1,26,-1
 1012 1377 l 1,27,-1
 736 1377 l 1,28,-1
 717 1200 l 1,29,-1
 999 1200 l 1,30,-1
 978 998 l 1,31,-1
 694 998 l 1,32,-1
 583 -17 l 2,0,1
EndSplineSet
Validated: 1
EndChar

StartChar: afii00208
Encoding: 8213 8213 348
Width: 1911
Flags: W
HStem: 461 436<59 1583>
LayerCount: 2
Fore
SplineSet
1583 897 m 1,0,-1
 1583 461 l 1,1,-1
 59 461 l 1,2,-1
 59 897 l 1,3,-1
 1583 897 l 1,0,-1
EndSplineSet
Validated: 1
EndChar

StartChar: zero.zero
Encoding: 65540 -1 356
Width: 1475
Flags: W
HStem: -39 21G<566 708> 1613 20G<566 708>
VStem: 68 515<231.591 1358.36> 685 520<231.591 1358.36>
LayerCount: 2
Fore
SplineSet
583 231 m 1,0,-1
 685 231 l 1,1,-1
 685 1359 l 1,2,-1
 583 1359 l 1,3,-1
 583 231 l 1,0,-1
637 -39 m 256,4,5
 495 -39 495 -39 397.5 -21 c 128,-1,6
 300 -3 300 -3 236.5 27 c 128,-1,7
 173 57 173 57 139 97 c 128,-1,8
 105 137 105 137 89 180 c 128,-1,9
 73 223 73 223 70.5 267.5 c 128,-1,10
 68 312 68 312 68 352 c 2,11,-1
 68 1242 l 2,12,13
 68 1282 68 1282 70.5 1326.5 c 128,-1,14
 73 1371 73 1371 89 1414.5 c 128,-1,15
 105 1458 105 1458 139 1497.5 c 128,-1,16
 173 1537 173 1537 236.5 1567 c 128,-1,17
 300 1597 300 1597 397.5 1615 c 128,-1,18
 495 1633 495 1633 637 1633 c 256,19,20
 779 1633 779 1633 876.5 1615 c 128,-1,21
 974 1597 974 1597 1037 1567 c 128,-1,22
 1100 1537 1100 1537 1134 1497.5 c 128,-1,23
 1168 1458 1168 1458 1184 1414.5 c 128,-1,24
 1200 1371 1200 1371 1202.5 1326.5 c 128,-1,25
 1205 1282 1205 1282 1205 1242 c 2,26,-1
 1205 352 l 2,27,28
 1205 312 1205 312 1202.5 267.5 c 128,-1,29
 1200 223 1200 223 1184 180 c 128,-1,30
 1168 137 1168 137 1134 97 c 128,-1,31
 1100 57 1100 57 1037 27 c 128,-1,32
 974 -3 974 -3 876.5 -21 c 128,-1,33
 779 -39 779 -39 637 -39 c 256,4,5
EndSplineSet
Validated: 1
EndChar

StartChar: uni0237
Encoding: 567 567 378
Width: 662
Flags: W
HStem: -332 266<-111.541 79> -285 219<-118 78.875>
VStem: 79 497<-63.5547 1300>
LayerCount: 2
Fore
SplineSet
79 1300 m 1,0,-1
 576 1300 l 1,1,-1
 576 94 l 2,2,3
 576 -5 576 -5 544.5 -83.5 c 128,-1,4
 513 -162 513 -162 455.5 -217.5 c 128,-1,5
 398 -273 398 -273 317.5 -302.5 c 128,-1,6
 237 -332 237 -332 140 -332 c 0,7,8
 80 -332 80 -332 15.5 -320.5 c 128,-1,9
 -49 -309 -49 -309 -118 -285 c 1,10,-1
 -118 -66 l 1,11,-1
 79 -66 l 1,12,-1
 79 1300 l 1,0,-1
EndSplineSet
Validated: 1
EndChar

